<svg xmlns="http://www.w3.org/2000/svg" width="254" height="254" viewBox="0 0 254 254">
  <g fill="none" fill-rule="evenodd" transform="translate(2 2)">
    <path fill="#E9E5E3" d="M249.588816,124.794408 C249.588816,193.716283 193.716283,249.588816 124.794408,249.588816 C55.8725329,249.588816 0,193.716283 0,124.794408 C0,55.8725329 55.8725329,0 124.794408,0 C193.716283,0 249.588816,55.8725329 249.588816,124.794408 L249.588816,124.794408 Z"/>
    <path stroke="#D6D6D6" stroke-width="4" d="M249.588816,124.794408 C249.588816,193.716283 193.716283,249.588816 124.794408,249.588816 C55.8725329,249.588816 0,193.716283 0,124.794408 C0,55.8725329 55.8725329,0 124.794408,0 C193.716283,0 249.588816,55.8725329 249.588816,124.794408 L249.588816,124.794408 Z"/>
    <path fill="#000000" d="M203.839227,197.912171 C203.839227,199.2625 168.898438,200.357072 125.796464,200.357072 C82.6944901,200.357072 47.7537007,199.2625 47.7537007,197.912171 C47.7537007,196.561842 82.6944901,195.46727 125.796464,195.46727 C168.898438,195.46727 203.839227,196.561842 203.839227,197.912171" opacity=".2"/>
    <polygon fill="#782500" points="23.534 149.396 225.77 149.396 225.77 45.569 23.534 45.569"/>
    <polygon fill="#FFD234" points="24.347 148.602 24.347 174.743 225.14 174.705 225.77 149.193"/>
    <polygon fill="#FFC22F" points="104.216 174.744 104.216 195.41 145.437 195.38 145.567 175.211"/>
    <polygon fill="#000000" points="104.216 189.284 104.216 195.41 145.437 195.401 145.567 180.724" opacity=".2"/>
    <polygon fill="#000000" points="24.347 170.6 24.347 174.743 225.14 174.737 225.77 170.6" opacity=".2"/>
    <polygon fill="#FFD234" points="24.649 35.371 23.534 45.925 225.769 45.925 224.931 35.371"/>
    <path fill="#000000" d="M225.056661,44.7128289 L24.5319901,44.7128289 L24.5319901,38.6495066 C24.5319901,37.2333882 25.6841283,36.0820724 27.0994243,36.0820724 L222.489227,36.0820724 C223.905345,36.0820724 225.056661,37.2333882 225.056661,38.6495066 L225.056661,44.7128289 Z M24.5319901,148.255592 L225.056661,148.255592 L225.056661,46.425 L24.5319901,46.425 L24.5319901,148.255592 Z M225.056661,171.860855 C225.056661,173.276974 223.905345,174.428289 222.489227,174.428289 L145.477714,174.428289 L104.117516,174.428289 L27.0994243,174.428289 C25.6841283,174.428289 24.5319901,173.276974 24.5319901,171.860855 L24.5319901,149.966941 L225.056661,149.966941 L225.056661,171.860855 Z M104.973602,194.684046 L144.622451,194.684046 L144.622451,176.139638 L104.973602,176.139638 L104.973602,194.684046 Z M222.489227,34.3707237 L27.0994243,34.3707237 C24.7400493,34.3707237 22.8206414,36.2901316 22.8206414,38.6495066 L22.8206414,171.860855 C22.8206414,174.22023 24.7400493,176.139638 27.0994243,176.139638 L103.262253,176.139638 L103.262253,194.684046 L95.5541941,194.684046 C95.0813322,194.684046 94.6981086,195.066447 94.6981086,195.540132 C94.6981086,196.012993 95.0813322,196.395395 95.5541941,196.395395 L154.03528,196.395395 C154.507319,196.395395 154.890543,196.012993 154.890543,195.540132 C154.890543,195.066447 154.507319,194.684046 154.03528,194.684046 L146.333799,194.684046 L146.333799,176.139638 L222.489227,176.139638 C224.848602,176.139638 226.76801,174.22023 226.76801,171.860855 L226.76801,38.6495066 C226.76801,36.2901316 224.848602,34.3707237 222.489227,34.3707237 L222.489227,34.3707237 Z"/>
    <path fill="#FF9C00" d="M124.509211,166.204359 C122.397368,166.204359 120.679441,164.486431 120.679441,162.374589 C120.679441,160.263569 122.397368,158.544819 124.509211,158.544819 C126.621053,158.544819 128.33898,160.263569 128.33898,162.374589 C128.33898,164.486431 126.621053,166.204359 124.509211,166.204359"/>
    <path fill="#000000" d="M124.509211,159.593668 C122.975493,159.593668 121.727961,160.841201 121.727961,162.374918 C121.727961,163.907813 122.975493,165.156168 124.509211,165.156168 C126.042928,165.156168 127.290461,163.907813 127.290461,162.374918 C127.290461,160.841201 126.042928,159.593668 124.509211,159.593668 M124.509211,166.867516 C122.032237,166.867516 120.016612,164.851891 120.016612,162.374918 C120.016612,159.897944 122.032237,157.882319 124.509211,157.882319 C126.986184,157.882319 129.001809,159.897944 129.001809,162.374918 C129.001809,164.851891 126.986184,166.867516 124.509211,166.867516"/>
    <path fill="#000000" d="M190.542352,142.407895 L65.8918586,142.407895 C64.4765625,142.407895 63.3252467,141.256579 63.3252467,139.840461 L63.3252467,61.9695724 C63.3252467,60.5542763 64.4765625,59.4029605 65.8918586,59.4029605 L190.542352,59.4029605 C191.957648,59.4029605 193.109786,60.5542763 193.109786,61.9695724 L193.109786,139.840461 C193.109786,141.256579 191.957648,142.407895 190.542352,142.407895" opacity=".2"/>
    <polygon fill="#FF7829" points="60.848 57.031 61.185 137.82 188.831 137.82 188.494 57.031"/>
    <path fill="#000000" d="M62.4693257,57.5486842 C61.9972862,57.5486842 61.6132401,57.9319079 61.6132401,58.4047697 L61.6132401,136.274836 C61.6132401,136.747697 61.9972862,137.130921 62.4693257,137.130921 L187.119819,137.130921 C187.591036,137.130921 187.975082,136.747697 187.975082,136.274836 L187.975082,58.4047697 C187.975082,57.9319079 187.591036,57.5486842 187.119819,57.5486842 L62.4693257,57.5486842 Z M187.119819,138.84227 L62.4693257,138.84227 C61.0540296,138.84227 59.9018914,137.690954 59.9018914,136.274836 L59.9018914,58.4047697 C59.9018914,56.9886513 61.0540296,55.8373355 62.4693257,55.8373355 L187.119819,55.8373355 C188.535115,55.8373355 189.686431,56.9886513 189.686431,58.4047697 L189.686431,136.274836 C189.686431,137.690954 188.535115,138.84227 187.119819,138.84227 L187.119819,138.84227 Z"/>
    <path fill="#000000" d="M124.229605 74.5352796C124.037993 74.754852 123.835691 74.9291941 123.62352 75.0591283 123.411349 75.1890625 123.172039 75.2540296 122.90477 75.2540296 122.562664 75.2540296 122.247697 75.2096217 121.960691 75.1208059 121.672862 75.0319901 121.426151 74.8897204 121.221382 74.6948191 121.015789 74.4990954 120.854605 74.2441612 120.738651 73.9291941 120.621875 73.6150493 120.564309 73.2277138 120.564309 72.7688322L120.564309 70.1199836C120.564309 69.661102 120.621875 69.2745888 120.738651 68.9596217 120.854605 68.6446546 121.015789 68.3897204 121.221382 68.1948191 121.426151 67.9999178 121.672862 67.857648 121.960691 67.7688322 122.247697 67.6791941 122.562664 67.6347862 122.90477 67.6347862 123.630921 67.6347862 124.185197 67.842023 124.568421 68.2564967 124.951645 68.6709704 125.157237 69.301727 125.184375 70.1504112L123.768257 70.1504112C123.768257 69.6717928 123.689309 69.3412007 123.531414 69.1594572 123.37352 68.9785362 123.165461 68.8880757 122.90477 68.8880757 122.617763 68.8880757 122.391612 68.9596217 122.227138 69.1035362 122.063487 69.2474507 121.980428 69.5245888 121.980428 69.9349507L121.980428 72.9538651C121.980428 73.3650493 122.063487 73.6421875 122.227138 73.786102 122.391612 73.9291941 122.617763 74.0015625 122.90477 74.0015625 123.172039 74.0015625 123.382566 73.911102 123.537171 73.7293586 123.690954 73.5476151 123.768257 73.2967928 123.768257 72.9744243L123.768257 72.5229441 122.771546 72.5229441 122.771546 71.3518914 125.184375 71.3518914 125.184375 75.1512336 124.445888 75.1512336 124.229605 74.5352796zM127.690049 72.9541941C127.690049 73.3645559 127.772286 73.6416941 127.93676 73.7856086 128.100411 73.929523 128.326562 74.0010691 128.614391 74.0010691 128.901398 74.0010691 129.127549 73.929523 129.292023 73.7856086 129.456497 73.6416941 129.538734 73.3645559 129.538734 72.9541941L129.538734 69.9352796C129.538734 69.5240954 129.456497 69.2469572 129.292023 69.1030428 129.127549 68.9599507 128.901398 68.8875822 128.614391 68.8875822 128.326562 68.8875822 128.100411 68.9599507 127.93676 69.1030428 127.772286 69.2469572 127.690049 69.5240954 127.690049 69.9352796L127.690049 72.9541941zM126.273109 70.1203125C126.273109 69.6614309 126.331497 69.2740954 126.447451 68.9599507 126.564227 68.6449836 126.724589 68.3900493 126.930181 68.1943257 127.135773 67.9994243 127.382484 67.8571546 127.66949 67.7683388 127.957319 67.679523 128.272286 67.6351151 128.614391 67.6351151 128.956497 67.6351151 129.271464 67.679523 129.559293 67.7683388 129.846299 67.8571546 130.09301 67.9994243 130.298602 68.1943257 130.503372 68.3900493 130.664556 68.6449836 130.781332 68.9599507 130.897286 69.2740954 130.955674 69.6614309 130.955674 70.1203125L130.955674 72.7691612C130.955674 73.2280428 130.897286 73.6145559 130.781332 73.929523 130.664556 74.2444901 130.503372 74.4994243 130.298602 74.6943257 130.09301 74.889227 129.846299 75.0323191 129.559293 75.1203125 129.271464 75.2099507 128.956497 75.2543586 128.614391 75.2543586 128.272286 75.2543586 127.957319 75.2099507 127.66949 75.1203125 127.382484 75.0323191 127.135773 74.889227 126.930181 74.6943257 126.724589 74.4994243 126.564227 74.2444901 126.447451 73.929523 126.331497 73.6145559 126.273109 73.2280428 126.273109 72.7691612L126.273109 70.1203125zM132.166941 75.1513158L133.625 75.1513158 133.625 73.6932566 132.166941 73.6932566 132.166941 75.1513158zM133.358553 72.6455592L132.434211 72.6455592 132.146382 67.7376645 133.645559 67.7376645 133.358553 72.6455592z"/>
    <path fill="#000000" d="M150.739803,83.054523 C139.016118,83.054523 129.477467,92.592352 129.477467,104.316859 C129.477467,116.040543 139.016118,125.578372 150.739803,125.578372 C162.463487,125.578372 172.002138,116.040543 172.002138,104.316859 C172.002138,92.592352 162.463487,83.054523 150.739803,83.054523" opacity=".2"/>
    <path fill="#F97D00" d="M128.200164,102.046299 C128.200164,91.7773849 137.335855,82.2198191 148.026645,82.2198191 L148.026645,102.455839 L128.200164,102.046299 Z"/>
    <path fill="#FF6513" d="M148.026316,102.455757 L148.026316,82.2197368 C158.717105,82.2197368 167.852796,91.7773026 167.852796,102.046217 L148.026316,102.455757 Z"/>
    <path fill="#FFB253" d="M148.026316,102.757155 L148.026316,122.993174 C137.335526,122.993174 128.199836,113.435609 128.199836,103.166694 L148.026316,102.757155 Z"/>
    <path fill="#E18B30" d="M167.852467,103.166612 C167.852467,113.435526 158.716776,122.993092 148.025987,122.993092 L148.025987,102.757072 L167.852467,103.166612 Z"/>
    <path fill="#000000" d="M135.919408,96.4835526 L138.629112,96.4835526 L138.629112,93.9876645 L135.919408,93.9876645 L135.919408,96.4835526 Z M140.340461,92.2763158 L143.584704,92.2763158 L143.584704,89.78125 L140.340461,89.78125 L140.340461,92.2763158 Z M149.236842,96.484375 L144.439967,96.484375 C143.967928,96.484375 143.584704,96.8667763 143.584704,97.3396382 L143.584704,101.600329 L140.366776,101.600329 L140.366776,97.3396382 C140.366776,97.2935855 140.347039,97.2532895 140.340461,97.2097039 L140.340461,93.9876645 L144.439967,93.9876645 C144.912829,93.9876645 145.296053,93.6052632 145.296053,93.1324013 L145.296053,89.78125 L149.236842,89.78125 C149.709704,89.78125 150.092928,89.3988487 150.092928,88.9251645 C150.092928,88.4523026 149.709704,88.0699013 149.236842,88.0699013 L145.296053,88.0699013 L145.296053,82.9251645 C145.296053,82.4523026 144.912829,82.0699013 144.439967,82.0699013 C143.967928,82.0699013 143.584704,82.4523026 143.584704,82.9251645 L143.584704,88.0699013 L139.484375,88.0699013 C139.011513,88.0699013 138.628289,88.4523026 138.628289,88.9251645 L138.628289,92.2763158 L135.063322,92.2763158 C134.590461,92.2763158 134.207237,92.6595395 134.207237,93.1324013 L134.207237,96.484375 L129.784539,96.484375 C129.3125,96.484375 128.929276,96.8667763 128.929276,97.3396382 C128.929276,97.8125 129.3125,98.1957237 129.784539,98.1957237 L134.207237,98.1957237 L134.207237,102.455592 C134.207237,102.928454 134.590461,103.311678 135.063322,103.311678 C135.536184,103.311678 135.919408,102.928454 135.919408,102.455592 L135.919408,98.1957237 L138.654605,98.1957237 L138.654605,102.455592 C138.654605,102.928454 139.037829,103.311678 139.510691,103.311678 L144.439967,103.311678 C144.912829,103.311678 145.296053,102.928454 145.296053,102.455592 L145.296053,98.1957237 L149.236842,98.1957237 C149.709704,98.1957237 150.092928,97.8125 150.092928,97.3396382 C150.092928,96.8667763 149.709704,96.484375 149.236842,96.484375 L149.236842,96.484375 Z"/>
    <path fill="#000000" d="M135.918586 116.014803L138.628289 116.014803 138.628289 113.518914 135.918586 113.518914 135.918586 116.014803zM140.340461 111.806743L143.584704 111.806743 143.584704 109.310855 140.340461 109.310855 140.340461 111.806743zM149.236842 116.014803L144.439967 116.014803C143.967928 116.014803 143.584704 116.397204 143.584704 116.870066L143.584704 119.152961 140.340461 119.152961 140.340461 116.870066 140.340461 113.518092 144.439967 113.518092C144.912829 113.518092 145.296053 113.135691 145.296053 112.662829L145.296053 109.310855 149.236842 109.310855C149.709704 109.310855 150.092928 108.927632 150.092928 108.45477 150.092928 107.981908 149.709704 107.599507 149.236842 107.599507L145.296053 107.599507 145.296053 102.45477C145.296053 101.981908 144.912829 101.599507 144.439967 101.599507 143.967928 101.599507 143.584704 101.981908 143.584704 102.45477L143.584704 107.599507 139.484375 107.599507C139.011513 107.599507 138.628289 107.981908 138.628289 108.45477L138.628289 111.806743 135.063322 111.806743C134.590461 111.806743 134.207237 112.189967 134.207237 112.662829L134.207237 116.664474C134.207237 116.912007 134.315789 117.129934 134.48273 117.286184 134.630757 117.544408 134.897204 117.726151 135.215461 117.726151L138.628289 117.726151 138.628289 120.009046C138.628289 120.481908 139.011513 120.864309 139.484375 120.864309L144.439967 120.864309C144.912829 120.864309 145.296053 120.481908 145.296053 120.009046L145.296053 117.726151 149.236842 117.726151C149.709704 117.726151 150.092928 117.342928 150.092928 116.870066 150.092928 116.397204 149.709704 116.014803 149.236842 116.014803L149.236842 116.014803zM150.092928 96.4835526L153.152961 96.4835526 153.152961 93.9876645 150.092928 93.9876645 150.092928 96.4835526zM154.864309 92.2763158L158.109375 92.2763158 158.109375 89.78125 154.864309 89.78125 154.864309 92.2763158zM168.689145 96.484375L158.964638 96.484375C158.491776 96.484375 158.108553 96.8667763 158.108553 97.3396382L158.108553 101.600329 154.864309 101.600329 154.864309 97.3396382 154.864309 93.9876645 158.964638 93.9876645C159.4375 93.9876645 159.820724 93.6052632 159.820724 93.1324013L159.820724 89.78125 163.760691 89.78125C164.233553 89.78125 164.616776 89.3988487 164.616776 88.9251645 164.616776 88.4523026 164.233553 88.0699013 163.760691 88.0699013L159.820724 88.0699013 159.820724 84.8544408C159.820724 84.3807566 159.4375 83.9983553 158.964638 83.9983553 158.491776 83.9983553 158.108553 84.3807566 158.108553 84.8544408L158.108553 88.0699013 154.008224 88.0699013C153.535362 88.0699013 153.152138 88.4523026 153.152138 88.9251645L153.152138 92.2763158 149.236842 92.2763158C148.764803 92.2763158 148.381579 92.6595395 148.381579 93.1324013L148.381579 102.455592C148.381579 102.928454 148.764803 103.311678 149.236842 103.311678 149.709704 103.311678 150.092928 102.928454 150.092928 102.455592L150.092928 98.1957237 153.152138 98.1957237 153.152138 102.455592C153.152138 102.928454 153.535362 103.311678 154.008224 103.311678L158.964638 103.311678C159.4375 103.311678 159.820724 102.928454 159.820724 102.455592L159.820724 98.1957237 168.689145 98.1957237C169.162007 98.1957237 169.54523 97.8125 169.54523 97.3396382 169.54523 96.8667763 169.162007 96.484375 168.689145 96.484375L168.689145 96.484375z"/>
    <path fill="#000000" d="M154.863487,109.878289 L158.108553,109.878289 L158.108553,107.382401 L154.863487,107.382401 L154.863487,109.878289 Z M150.092105,114.084704 L153.152138,114.084704 L153.152138,111.589638 L150.092105,111.589638 L150.092105,114.084704 Z M168.689145,105.67023 L159.820724,105.67023 L159.820724,102.45477 C159.820724,101.981908 159.4375,101.599507 158.964638,101.599507 C158.491776,101.599507 158.108553,101.981908 158.108553,102.45477 L158.108553,105.67023 L154.008224,105.67023 C153.535362,105.67023 153.152138,106.053454 153.152138,106.526316 L153.152138,109.878289 L149.236842,109.878289 C148.764803,109.878289 148.381579,110.260691 148.381579,110.733553 L148.381579,120.056743 C148.381579,120.529605 148.764803,120.912007 149.236842,120.912007 C149.709704,120.912007 150.092928,120.529605 150.092928,120.056743 L150.092928,115.796053 L153.152138,115.796053 L153.152138,120.056743 C153.152138,120.529605 153.535362,120.912007 154.008224,120.912007 L158.964638,120.912007 C159.4375,120.912007 159.820724,120.529605 159.820724,120.056743 L159.820724,115.796053 L165,115.796053 C165.472039,115.796053 165.855263,115.413651 165.855263,114.940789 C165.855263,114.467928 165.472039,114.084704 165,114.084704 L158.964638,114.084704 C158.491776,114.084704 158.108553,114.467928 158.108553,114.940789 L158.108553,119.200658 L154.864309,119.200658 L154.864309,114.940789 L154.864309,111.589638 L158.964638,111.589638 C159.4375,111.589638 159.820724,111.207237 159.820724,110.733553 L159.820724,107.382401 L168.689145,107.382401 C169.162007,107.382401 169.54523,106.999178 169.54523,106.526316 C169.54523,106.053454 169.162007,105.67023 168.689145,105.67023 L168.689145,105.67023 Z"/>
    <path fill="#000000" d="M150.092763 121.687829L150.092763 103.311184 168.469408 103.311184C168.031908 113.247862 160.029441 121.250329 150.092763 121.687829M130.00477 103.311184L148.381414 103.311184 148.381414 121.687829C138.444737 121.250329 130.44227 113.247862 130.00477 103.311184M148.381414 83.2240132L148.381414 101.599836 130.00477 101.599836C130.44227 91.6631579 138.444737 83.6606908 148.381414 83.2240132M168.469408 101.599836L150.092763 101.599836 150.092763 83.2240132C160.029441 83.6606908 168.031908 91.6631579 168.469408 101.599836M149.236678 81.4904605C137.676645 81.4904605 128.272039 90.8950658 128.272039 102.455921 128.272039 114.016776 137.676645 123.421382 149.236678 123.421382 160.797533 123.421382 170.202138 114.016776 170.202138 102.455921 170.202138 90.8950658 160.797533 81.4904605 149.236678 81.4904605M101.836349 120.864638C92.3429276 120.864638 84.6184211 113.140954 84.6184211 103.647533 84.6184211 94.1532895 92.3429276 86.4296053 101.836349 86.4296053 111.32977 86.4296053 119.054276 94.1532895 119.054276 103.647533 119.054276 113.140954 111.32977 120.864638 101.836349 120.864638"/>
    <path fill="#FFB24B" d="M100.460855,118.231743 C91.7618421,118.231743 84.6845395,111.154441 84.6845395,102.455428 C84.6845395,93.7564145 91.7618421,86.6791118 100.460855,86.6791118 C109.159868,86.6791118 116.237171,93.7564145 116.237171,102.455428 C116.237171,111.154441 109.159868,118.231743 100.460855,118.231743"/>
    <path fill="#000000" d="M100.460855,87.2850329 C92.0957237,87.2850329 85.290625,94.0909539 85.290625,102.456086 C85.290625,110.820395 92.0957237,117.625493 100.460855,117.625493 C108.825987,117.625493 115.631086,110.820395 115.631086,102.456086 C115.631086,94.0909539 108.825987,87.2850329 100.460855,87.2850329 M100.460855,119.336842 C91.1524671,119.336842 83.5792763,111.764474 83.5792763,102.456086 C83.5792763,93.146875 91.1524671,85.5736842 100.460855,85.5736842 C109.769243,85.5736842 117.342434,93.146875 117.342434,102.456086 C117.342434,111.764474 109.769243,119.336842 100.460855,119.336842"/>
    <path fill="#000000" d="M97.7219572,109.925493 L100.559128,105.536513 C100.79597,105.276645 101.028701,105.000329 101.258964,104.707566 C101.393832,104.722368 101.529523,104.733059 101.669326,104.702632 L102.144655,104.60148 C102.835444,104.451809 103.277878,103.768421 103.129852,103.075987 L103.027878,102.602303 C102.999095,102.466612 102.932484,102.348191 102.862582,102.233059 C103.044326,101.888487 103.207155,101.548849 103.352714,101.214145 L106.274589,96.6952303 C106.788569,96.8169408 107.34449,96.6162829 107.647122,96.1475329 C108.03199,95.5521382 107.86176,94.7577303 107.266365,94.3728618 C106.67097,93.9879934 105.876563,94.1582237 105.491694,94.7536184 C105.18824,95.2223684 105.234293,95.8120066 105.555839,96.2305921 L104.317352,98.1458882 C104.841201,95.4238487 104.366694,93.5225329 104.333799,93.4 C104.244161,93.0570724 103.89301,92.853125 103.550082,92.9427632 C103.207155,93.0332237 103.002385,93.384375 103.092845,93.7264803 C103.102714,93.7651316 103.985115,97.3120066 101.735938,101.616283 C101.657813,101.617105 101.581332,101.599836 101.503207,101.616283 L101.028701,101.718257 C100.336266,101.867105 99.8946546,102.550493 100.043503,103.242928 L100.144655,103.717434 C100.161924,103.795559 100.207155,103.857237 100.23676,103.928783 C97.2869243,107.649178 93.6306743,108.400822 93.5903783,108.409046 C93.2425164,108.474836 93.013898,108.811184 93.0796875,109.158224 C93.114227,109.338322 93.2194901,109.486349 93.3617599,109.578454 C93.4949836,109.66398 93.6594572,109.701809 93.8272204,109.670559 C93.9546875,109.646711 95.9028783,109.25773 98.1652138,107.663158 L97.0032072,109.460855 C96.4900493,109.339145 95.9333059,109.539803 95.6306743,110.008553 C95.2458059,110.603947 95.4160362,111.398355 96.0114309,111.783224 C96.6068257,112.168092 97.4020559,111.997862 97.7869243,111.402467 C98.0895559,110.933717 98.0435033,110.344079 97.7219572,109.925493"/>
    <path fill="#000000" d="M211.299178,112.485115 L162.856743,103.842845 C162.531908,103.784457 162.202961,103.918503 162.010526,104.186595 C161.818914,104.453865 161.797533,104.808306 161.95625,105.09778 L185.66102,148.218668 C185.802467,148.476069 186.065625,148.64301 186.359211,148.66028 C186.652796,148.678372 186.934868,148.544326 187.105921,148.305839 L194.870724,137.48347 L196.006414,135.900411 L197.589474,137.036102 L212.16102,147.490872 C214.077961,148.866694 216.756414,148.425905 218.132237,146.508964 L220.08125,143.792681 C221.45625,141.876563 221.015461,139.197286 219.09852,137.822286 L204.526974,127.367516 L202.943914,126.231826 L204.079605,124.647944 L211.844408,113.826398 C212.015461,113.587911 212.052467,113.277878 211.941447,113.005674 C211.83125,112.732648 211.587829,112.536924 211.299178,112.485115" opacity=".2"/>
    <polygon fill="#FFFFFF" points="162.308 101.839 185.576 143.657 195.122 131.32 196.04 131.592 212.759 143.187 214.259 143.682 216.446 142.534 218.906 138.731 219.391 136.472 218.16 134.518 201.915 123.056 202.057 121.402 210.24 109.958 162.139 100.881"/>
    <path fill="#000000" d="M201.124589,121.45148 C201.003701,121.620066 200.923109,121.804276 200.866365,121.992599 C200.657484,122.685033 200.872122,123.45148 201.451891,123.930921 C201.484786,123.958059 217.599095,135.532072 217.599095,135.532072 C218.749589,136.356908 219.014391,137.963816 218.188734,139.114309 L216.240543,141.830592 C215.414885,142.981086 213.807977,143.245066 212.657484,142.419408 C212.657484,142.419408 196.530839,130.86102 196.495477,130.839638 C195.855674,130.443257 195.060444,130.485197 194.471628,130.905428 C194.311266,131.019737 194.16324,131.154605 194.04153,131.323191 L186.005345,142.523849 L163.817023,102.161184 L209.160773,110.250822 L201.124589,121.45148 Z M210.798109,108.804276 L162.354852,100.162007 C162.030839,100.103618 161.701891,100.237664 161.509457,100.505757 C161.317023,100.773026 161.295641,101.127467 161.455181,101.416941 L185.159128,144.537829 C185.300576,144.79523 185.564556,144.962171 185.858141,144.979441 C186.151727,144.997533 186.433799,144.863487 186.604852,144.625 L194.368832,133.802632 L195.505345,132.219572 L197.088405,133.355263 L211.659951,143.810033 C213.576891,145.185855 216.255345,144.745066 217.630345,142.828125 L219.579359,140.111842 C220.955181,138.195724 220.514391,135.516447 218.597451,134.141447 L204.025905,123.686678 L202.442023,122.550164 L203.578536,120.967105 L211.342516,110.145559 C211.514391,109.907072 211.550576,109.597039 211.440378,109.324836 C211.329359,109.051809 211.08676,108.856086 210.798109,108.804276 L210.798109,108.804276 Z"/>
    <path fill="#000000" d="M187.696135 122.922944C185.103207 122.922944 183.793997 121.007648 183.73972 120.926234 183.543174 120.631826 183.622122 120.232977 183.91653 120.035609 184.210115 119.840707 184.608141 119.91801 184.80551 120.210773 184.85074 120.276563 185.811266 121.639227 187.696135 121.639227 189.557977 121.639227 190.551398 120.260938 190.592516 120.202549 190.797286 119.913898 191.196135 119.843174 191.484786 120.044655 191.77426 120.246135 191.847451 120.643339 191.647615 120.934457 191.591694 121.015049 190.247122 122.922944 187.696135 122.922944M180.676645 116.813076C180.676645 117.521957 180.101809 118.096793 179.392928 118.096793 178.684046 118.096793 178.109211 117.521957 178.109211 116.813076 178.109211 116.104194 178.684046 115.529359 179.392928 115.529359 180.101809 115.529359 180.676645 116.104194 180.676645 116.813076M197.282484 116.813076C197.282484 117.521957 196.707648 118.096793 195.998766 118.096793 195.289885 118.096793 194.715049 117.521957 194.715049 116.813076 194.715049 116.104194 195.289885 115.529359 195.998766 115.529359 196.707648 115.529359 197.282484 116.104194 197.282484 116.813076"/>
    <path fill="#FF966A" d="M180.776069 119.851316C180.776069 120.135033 179.773602 120.365296 178.537582 120.365296 177.30074 120.365296 176.298273 120.135033 176.298273 119.851316 176.298273 119.567599 177.30074 119.337336 178.537582 119.337336 179.773602 119.337336 180.776069 119.567599 180.776069 119.851316M199.093339 119.851316C199.093339 120.135033 198.090872 120.365296 196.854852 120.365296 195.61801 120.365296 194.615543 120.135033 194.615543 119.851316 194.615543 119.567599 195.61801 119.337336 196.854852 119.337336 198.090872 119.337336 199.093339 119.567599 199.093339 119.851316"/>
  </g>
</svg>
