<svg xmlns="http://www.w3.org/2000/svg" width="254" height="254" viewBox="0 0 254 254">
  <g fill="none" fill-rule="evenodd" transform="translate(2 2)">
    <path fill="#E9E5E3" d="M249.794408,124.794408 C249.794408,193.716283 193.921875,249.588816 125,249.588816 C56.078125,249.588816 0.205592105,193.716283 0.205592105,124.794408 C0.205592105,55.8725329 56.078125,0 125,0 C193.921875,0 249.794408,55.8725329 249.794408,124.794408"/>
    <path stroke="#D6D6D6" stroke-width="4" d="M249.794408,124.794408 C249.794408,193.716283 193.921875,249.588816 125,249.588816 C56.078125,249.588816 0.205592105,193.716283 0.205592105,124.794408 C0.205592105,55.8725329 56.078125,0 125,0 C193.921875,0 249.794408,55.8725329 249.794408,124.794408 L249.794408,124.794408 Z"/>
    <path fill="#000000" d="M204.044819,197.912171 C204.044819,199.2625 169.10403,200.357072 126.002056,200.357072 C82.9000822,200.357072 47.9592928,199.2625 47.9592928,197.912171 C47.9592928,196.561842 82.9000822,195.46727 126.002056,195.46727 C169.10403,195.46727 204.044819,196.561842 204.044819,197.912171" opacity=".2"/>
    <polygon fill="#FF7829" points="23.882 97.174 124.715 97.174 124.715 44.57 23.882 44.57"/>
    <polygon fill="#FFB253" points="23.882 149.295 124.715 149.295 124.715 96.691 23.882 96.691"/>
    <polygon fill="#E18B30" points="125 149.295 225.833 149.295 225.833 96.691 125 96.691"/>
    <polygon fill="#FF6513" points="125 97.174 225.833 97.174 225.833 44.57 125 44.57"/>
    <polygon fill="#FFD234" points="24.998 35.121 23.882 45.675 226.118 45.675 225.279 35.121"/>
    <polygon fill="#FFC22F" points="104.328 175.079 104.328 195.746 145.549 195.715 145.678 175.546"/>
    <polygon fill="#000000" points="104.328 189.619 104.328 195.746 145.549 195.737 145.678 181.059" opacity=".2"/>
    <polygon fill="#FFD234" points="24.859 149.127 24.859 175.268 225.653 175.23 226.282 149.718"/>
    <polygon fill="#000000" points="24.859 170.6 24.859 174.743 225.653 174.737 226.282 170.6" opacity=".2"/>
    <path fill="#000000" d="M225.262253,44.7128289 L24.7375822,44.7128289 L24.7375822,38.6495066 C24.7375822,37.2333882 25.8897204,36.0820724 27.3050164,36.0820724 L222.694819,36.0820724 C224.110937,36.0820724 225.262253,37.2333882 225.262253,38.6495066 L225.262253,44.7128289 Z M125.570641,96.4842105 L225.262253,96.4842105 L225.262253,46.4241776 L125.570641,46.4241776 L125.570641,96.4842105 Z M125.570641,148.255592 L225.262253,148.255592 L225.262253,98.1955592 L125.570641,98.1955592 L125.570641,148.255592 Z M225.262253,171.860855 C225.262253,173.276974 224.110937,174.428289 222.694819,174.428289 L145.683306,174.428289 L104.323109,174.428289 L27.3050164,174.428289 C25.8897204,174.428289 24.7375822,173.276974 24.7375822,171.860855 L24.7375822,149.966941 L225.262253,149.966941 L225.262253,171.860855 Z M105.179194,194.684046 L144.828043,194.684046 L144.828043,176.139638 L105.179194,176.139638 L105.179194,194.684046 Z M24.7375822,148.255592 L123.859293,148.255592 L123.859293,98.1955592 L24.7375822,98.1955592 L24.7375822,148.255592 Z M24.7375822,96.4842105 L123.859293,96.4842105 L123.859293,46.4241776 L24.7375822,46.4241776 L24.7375822,96.4842105 Z M222.694819,34.3707237 L27.3050164,34.3707237 C24.9456414,34.3707237 23.0262336,36.2901316 23.0262336,38.6495066 L23.0262336,171.860855 C23.0262336,174.22023 24.9456414,176.139638 27.3050164,176.139638 L103.467845,176.139638 L103.467845,194.684046 L95.7597862,194.684046 C95.2869243,194.684046 94.9037007,195.066447 94.9037007,195.540132 C94.9037007,196.012993 95.2869243,196.395395 95.7597862,196.395395 L154.240872,196.395395 C154.712911,196.395395 155.096135,196.012993 155.096135,195.540132 C155.096135,195.066447 154.712911,194.684046 154.240872,194.684046 L146.539391,194.684046 L146.539391,176.139638 L222.694819,176.139638 C225.054194,176.139638 226.973602,174.22023 226.973602,171.860855 L226.973602,38.6495066 C226.973602,36.2901316 225.054194,34.3707237 222.694819,34.3707237 L222.694819,34.3707237 Z"/>
    <path fill="#000000" d="M113.800987 85.7098684L85.1381579 85.7098684C84.6652961 85.7098684 84.2820724 85.3274671 84.2820724 84.8537829L84.2820724 75.3175987 63.8503289 75.3175987C63.3774671 75.3175987 62.9942434 74.934375 62.9942434 74.4615132L62.9942434 58.8907895 34.7960526 58.8907895C34.3231908 58.8907895 33.9399671 58.5083882 33.9399671 58.0347039 33.9399671 57.5618421 34.3231908 57.1794408 34.7960526 57.1794408L63.8503289 57.1794408C64.3231908 57.1794408 64.7064145 57.5618421 64.7064145 58.0347039L64.7064145 73.60625 85.1381579 73.60625C85.6110197 73.60625 85.9934211 73.9886513 85.9934211 74.4615132L85.9934211 83.9985197 113.800987 83.9985197C114.273849 83.9985197 114.657072 84.3809211 114.657072 84.8537829 114.657072 85.3274671 114.273849 85.7098684 113.800987 85.7098684M197.10699 114.310526L197.10699 113.109046C197.599589 112.643586 198.025576 112.234868 198.384951 111.882072 198.744326 111.529276 199.052714 111.223355 199.309293 110.962664 199.565872 110.702796 199.773109 110.476645 199.931003 110.285033 200.088076 110.093421 200.213076 109.922368 200.305181 109.771875 200.398109 109.621382 200.459786 109.484046 200.489391 109.360691 200.520641 109.237336 200.536266 109.110691 200.536266 108.980757 200.536266 108.67977 200.45403 108.435526 200.290378 108.247204 200.125082 108.058882 199.879194 107.964309 199.550247 107.964309 199.201562 107.964309 198.937582 108.056414 198.759951 108.24227 198.582319 108.42648 198.492681 108.659211 198.492681 108.940461L198.492681 109.206908 197.137418 109.206908 197.137418 108.857401C197.137418 108.584375 197.190872 108.323684 197.296957 108.076974 197.403043 107.831086 197.555181 107.611513 197.753372 107.420724 197.951563 107.228289 198.193339 107.076151 198.477878 106.963487 198.761595 106.850822 199.084786 106.794079 199.447451 106.794079 199.810115 106.794079 200.14153 106.840132 200.438405 106.932237 200.736102 107.025164 200.993503 107.161678 201.208964 107.343421 201.425247 107.524342 201.592187 107.748849 201.712253 108.016118 201.831497 108.282566 201.892352 108.594243 201.892352 108.950329 201.892352 109.382072 201.782155 109.786678 201.563405 110.167434 201.343832 110.547368 201.07574 110.910033 200.757484 111.255428 200.438405 111.601645 200.103701 111.92977 199.750905 112.241447 199.398109 112.553125 199.088076 112.852467 198.821628 113.139474L201.778865 113.139474 201.778865 114.310526 197.10699 114.310526zM204.129934 111.691941C204.129934 111.992928 204.153783 112.242928 204.20148 112.441118 204.25 112.640132 204.320724 112.798849 204.412007 112.918914 204.504934 113.03898 204.620888 113.122862 204.761513 113.170559 204.902138 113.219079 205.068257 113.242105 205.259868 113.242105 205.45148 113.242105 205.617599 113.219079 205.757401 113.170559 205.898026 113.122862 206.01398 113.03898 206.106908 112.918914 206.199013 112.798849 206.268914 112.640132 206.317434 112.441118 206.365132 112.242928 206.389803 111.992928 206.389803 111.691941L206.389803 109.515132C206.389803 109.214145 206.365132 108.964145 206.317434 108.765132 206.268914 108.566941 206.199013 108.407401 206.106908 108.288158 206.01398 108.168092 205.898026 108.084211 205.757401 108.036513 205.617599 107.988816 205.45148 107.964145 205.259868 107.964145 205.068257 107.964145 204.902138 107.988816 204.761513 108.036513 204.620888 108.084211 204.504934 108.168092 204.412007 108.288158 204.320724 108.407401 204.25 108.566941 204.20148 108.765132 204.153783 108.964145 204.129934 109.214145 204.129934 109.515132L204.129934 111.691941zM202.774671 109.360526C202.774671 108.566941 202.986842 107.940296 203.411184 107.482237 203.835526 107.023355 204.45148 106.793914 205.259868 106.793914 206.068257 106.793914 206.683388 107.023355 207.108553 107.482237 207.532895 107.940296 207.745066 108.566941 207.745066 109.360526L207.745066 111.845724C207.745066 112.640132 207.532895 113.266776 207.108553 113.724836 206.683388 114.183717 206.068257 114.413158 205.259868 114.413158 204.45148 114.413158 203.835526 114.183717 203.411184 113.724836 202.986842 113.266776 202.774671 112.640132 202.774671 111.845724L202.774671 109.360526zM209.839227 111.691941C209.839227 111.992928 209.863076 112.242928 209.910773 112.441118 209.959293 112.640132 210.030016 112.798849 210.122122 112.918914 210.214227 113.03898 210.331003 113.122862 210.470806 113.170559 210.611431 113.219079 210.777549 113.242105 210.969161 113.242105 211.160773 113.242105 211.326891 113.219079 211.466694 113.170559 211.607319 113.122862 211.724095 113.03898 211.816201 112.918914 211.908306 112.798849 211.978207 112.640132 212.026727 112.441118 212.074424 112.242928 212.099095 111.992928 212.099095 111.691941L212.099095 109.515132C212.099095 109.214145 212.074424 108.964145 212.026727 108.765132 211.978207 108.566941 211.908306 108.407401 211.816201 108.288158 211.724095 108.168092 211.607319 108.084211 211.466694 108.036513 211.326891 107.988816 211.160773 107.964145 210.969161 107.964145 210.777549 107.964145 210.611431 107.988816 210.470806 108.036513 210.331003 108.084211 210.214227 108.168092 210.122122 108.288158 210.030016 108.407401 209.959293 108.566941 209.910773 108.765132 209.863076 108.964145 209.839227 109.214145 209.839227 109.515132L209.839227 111.691941zM208.483964 109.360526C208.483964 108.566941 208.696135 107.940296 209.120477 107.482237 209.544819 107.023355 210.160773 106.793914 210.969161 106.793914 211.777549 106.793914 212.392681 107.023355 212.817845 107.482237 213.242187 107.940296 213.454359 108.566941 213.454359 109.360526L213.454359 111.845724C213.454359 112.640132 213.242187 113.266776 212.817845 113.724836 212.392681 114.183717 211.777549 114.413158 210.969161 114.413158 210.160773 114.413158 209.544819 114.183717 209.120477 113.724836 208.696135 113.266776 208.483964 112.640132 208.483964 111.845724L208.483964 109.360526zM217.623438 108.919655C217.623438 108.78972 217.599589 108.666365 217.551891 108.549589 217.503372 108.433635 217.437582 108.332484 217.356168 108.246957 217.273931 108.161431 217.174424 108.092352 217.05847 108.041365 216.941694 107.990378 216.815049 107.964885 216.678536 107.964885 216.541201 107.964885 216.415378 107.990378 216.29778 108.041365 216.181826 108.092352 216.082319 108.161431 216.000905 108.246957 215.918668 108.332484 215.853701 108.433635 215.806003 108.549589 215.757484 108.666365 215.733635 108.78972 215.733635 108.919655 215.733635 109.049589 215.757484 109.171299 215.806003 109.283964 215.853701 109.396628 215.920313 109.496135 216.005839 109.581661 216.091365 109.667187 216.191694 109.734622 216.309293 109.782319 216.425247 109.830016 216.54778 109.853865 216.678536 109.853865 216.80847 109.853865 216.931826 109.830016 217.04778 109.782319 217.164556 109.734622 217.264885 109.667187 217.351234 109.581661 217.435938 109.496135 217.503372 109.396628 217.551891 109.283964 217.599589 109.171299 217.623438 109.049589 217.623438 108.919655M217.80847 112.16472C217.80847 111.815214 217.707319 111.538076 217.505016 111.332484 217.303536 111.126891 217.02722 111.024918 216.678536 111.024918 216.32903 111.024918 216.053536 111.126891 215.852056 111.332484 215.649753 111.538076 215.548602 111.815214 215.548602 112.16472 215.548602 112.486266 215.632484 112.746135 215.800247 112.944326 215.96801 113.143339 216.260773 113.242845 216.678536 113.242845 217.096299 113.242845 217.38824 113.143339 217.556826 112.944326 217.723766 112.746135 217.80847 112.486266 217.80847 112.16472M219.163734 112.205839C219.163734 112.575082 219.100411 112.896628 218.972944 113.170477 218.847122 113.445148 218.671957 113.673766 218.449918 113.858799 218.227056 114.043832 217.963898 114.18199 217.659622 114.274918 217.354523 114.367023 217.02722 114.413076 216.678536 114.413076 216.32903 114.413076 216.002549 114.367023 215.698273 114.274918 215.393174 114.18199 215.129194 114.043832 214.906332 113.858799 214.684293 113.673766 214.509951 113.445148 214.383306 113.170477 214.256661 112.896628 214.193339 112.575082 214.193339 112.205839 214.193339 111.788076 214.273931 111.424589 214.434293 111.117023 214.595477 110.809457 214.87426 110.576727 215.272286 110.418832 214.977056 110.268339 214.754194 110.043832 214.604523 109.746135 214.45403 109.448437 214.378372 109.135115 214.378372 108.806168 214.378372 108.464062 214.437582 108.166365 214.55847 107.913076 214.677714 107.659786 214.840543 107.450905 215.045313 107.286431 215.250905 107.12278 215.494326 106.999424 215.774753 106.917187 216.056003 106.834951 216.356168 106.793832 216.678536 106.793832 217.000082 106.793832 217.301069 106.834951 217.581497 106.917187 217.862747 106.999424 218.105345 107.12278 218.310938 107.286431 218.51653 107.450905 218.678536 107.659786 218.799424 107.913076 218.918668 108.166365 218.978701 108.464062 218.978701 108.806168 218.978701 109.135115 218.903043 109.448437 218.752549 109.746135 218.602056 110.043832 218.380016 110.268339 218.085609 110.418832 218.482813 110.576727 218.760773 110.809457 218.921957 111.117023 219.082319 111.424589 219.163734 111.788076 219.163734 112.205839M93.5001645 114.310526L93.5001645 113.109046C93.9927632 112.643586 94.41875 112.234868 94.778125 111.882072 95.1375 111.529276 95.4458882 111.223355 95.7024671 110.962664 95.9590461 110.702796 96.1662829 110.476645 96.3241776 110.285033 96.48125 110.093421 96.60625 109.922368 96.6983553 109.771875 96.7912829 109.621382 96.8529605 109.484046 96.8825658 109.360691 96.9138158 109.237336 96.9294408 109.110691 96.9294408 108.980757 96.9294408 108.67977 96.8472039 108.435526 96.6835526 108.247204 96.5182566 108.058882 96.2723684 107.964309 95.9434211 107.964309 95.5947368 107.964309 95.3307566 108.056414 95.153125 108.24227 94.9754934 108.42648 94.8858553 108.659211 94.8858553 108.940461L94.8858553 109.206908 93.5305921 109.206908 93.5305921 108.857401C93.5305921 108.584375 93.5840461 108.323684 93.6901316 108.076974 93.7962171 107.831086 93.9483553 107.611513 94.1465461 107.420724 94.3447368 107.228289 94.5865132 107.076151 94.8710526 106.963487 95.1547697 106.850822 95.4779605 106.794079 95.840625 106.794079 96.2032895 106.794079 96.5347039 106.840132 96.8315789 106.932237 97.1292763 107.025164 97.3866776 107.161678 97.6021382 107.343421 97.8184211 107.524342 97.9853618 107.748849 98.1054276 108.016118 98.2246711 108.282566 98.2855263 108.594243 98.2855263 108.950329 98.2855263 109.382072 98.1753289 109.786678 97.9565789 110.167434 97.7370066 110.547368 97.4689145 110.910033 97.1506579 111.255428 96.8315789 111.601645 96.496875 111.92977 96.1440789 112.241447 95.7912829 112.553125 95.48125 112.852467 95.2148026 113.139474L98.1720395 113.139474 98.1720395 114.310526 93.5001645 114.310526zM100.523109 111.691941C100.523109 111.992928 100.546957 112.242928 100.594655 112.441118 100.643174 112.640132 100.713898 112.798849 100.806003 112.918914 100.898109 113.03898 101.014885 113.122862 101.154687 113.170559 101.295312 113.219079 101.461431 113.242105 101.653043 113.242105 101.844655 113.242105 102.010773 113.219079 102.151398 113.170559 102.291201 113.122862 102.407977 113.03898 102.500082 112.918914 102.592187 112.798849 102.662089 112.640132 102.710609 112.441118 102.758306 112.242928 102.782977 111.992928 102.782977 111.691941L102.782977 109.515132C102.782977 109.214145 102.758306 108.964145 102.710609 108.765132 102.662089 108.566941 102.592187 108.407401 102.500082 108.288158 102.407977 108.168092 102.291201 108.084211 102.151398 108.036513 102.010773 107.988816 101.844655 107.964145 101.653043 107.964145 101.461431 107.964145 101.295312 107.988816 101.154687 108.036513 101.014885 108.084211 100.898109 108.168092 100.806003 108.288158 100.713898 108.407401 100.643174 108.566941 100.594655 108.765132 100.546957 108.964145 100.523109 109.214145 100.523109 109.515132L100.523109 111.691941zM99.1678454 109.360526C99.1678454 108.566941 99.3800164 107.940296 99.8043586 107.482237 100.228701 107.023355 100.844655 106.793914 101.653043 106.793914 102.461431 106.793914 103.076562 107.023355 103.501727 107.482237 103.926069 107.940296 104.13824 108.566941 104.13824 109.360526L104.13824 111.845724C104.13824 112.640132 103.926069 113.266776 103.501727 113.724836 103.076562 114.183717 102.461431 114.413158 101.653043 114.413158 100.844655 114.413158 100.228701 114.183717 99.8043586 113.724836 99.3800164 113.266776 99.1678454 112.640132 99.1678454 111.845724L99.1678454 109.360526zM106.232401 111.691941C106.232401 111.992928 106.25625 112.242928 106.303947 112.441118 106.352467 112.640132 106.423191 112.798849 106.514474 112.918914 106.607401 113.03898 106.724178 113.122862 106.86398 113.170559 107.004605 113.219079 107.170724 113.242105 107.362336 113.242105 107.553947 113.242105 107.720066 113.219079 107.859868 113.170559 108.000493 113.122862 108.116447 113.03898 108.209375 112.918914 108.30148 112.798849 108.371382 112.640132 108.419901 112.441118 108.467599 112.242928 108.49227 111.992928 108.49227 111.691941L108.49227 109.515132C108.49227 109.214145 108.467599 108.964145 108.419901 108.765132 108.371382 108.566941 108.30148 108.407401 108.209375 108.288158 108.116447 108.168092 108.000493 108.084211 107.859868 108.036513 107.720066 107.988816 107.553947 107.964145 107.362336 107.964145 107.170724 107.964145 107.004605 107.988816 106.86398 108.036513 106.724178 108.084211 106.607401 108.168092 106.514474 108.288158 106.423191 108.407401 106.352467 108.566941 106.303947 108.765132 106.25625 108.964145 106.232401 109.214145 106.232401 109.515132L106.232401 111.691941zM104.877138 109.360526C104.877138 108.566941 105.089309 107.940296 105.513651 107.482237 105.937993 107.023355 106.553947 106.793914 107.362336 106.793914 108.170724 106.793914 108.785855 107.023355 109.21102 107.482237 109.635362 107.940296 109.847533 108.566941 109.847533 109.360526L109.847533 111.845724C109.847533 112.640132 109.635362 113.266776 109.21102 113.724836 108.785855 114.183717 108.170724 114.413158 107.362336 114.413158 106.553947 114.413158 105.937993 114.183717 105.513651 113.724836 105.089309 113.266776 104.877138 112.640132 104.877138 111.845724L104.877138 109.360526z"/>
    <polygon fill="#000000" points="110.525 106.896 115.208 106.896 115.208 107.574 113.205 114.31 111.726 114.31 113.78 108.068 110.525 108.068"/>
    <path fill="#000000" d="M197.137911 62.4625L197.137911 61.2610197C197.63051 60.7955592 198.056497 60.3868421 198.415872 60.0340461 198.775247 59.68125 199.083635 59.3753289 199.340214 59.1146382 199.596793 58.8547697 199.80403 58.6286184 199.961924 58.4370066 200.118997 58.2453947 200.243997 58.0743421 200.336102 57.9238487 200.42903 57.7733553 200.490707 57.6360197 200.520312 57.5126645 200.551562 57.3893092 200.567187 57.2626645 200.567187 57.1327303 200.567187 56.8317434 200.484951 56.5875 200.321299 56.3991776 200.156003 56.2108553 199.910115 56.1162829 199.581168 56.1162829 199.232484 56.1162829 198.968503 56.2083882 198.790872 56.3942434 198.61324 56.5784539 198.523602 56.8111842 198.523602 57.0924342L198.523602 57.3588816 197.168339 57.3588816 197.168339 57.009375C197.168339 56.7363487 197.221793 56.4756579 197.327878 56.2289474 197.433964 55.9830592 197.586102 55.7634868 197.784293 55.5726974 197.982484 55.3802632 198.22426 55.228125 198.508799 55.1154605 198.792516 55.0027961 199.115707 54.9460526 199.478372 54.9460526 199.841036 54.9460526 200.172451 54.9921053 200.469326 55.0842105 200.767023 55.1771382 201.024424 55.3136513 201.239885 55.4953947 201.456168 55.6763158 201.623109 55.9008224 201.743174 56.1680921 201.862418 56.4345395 201.923273 56.7462171 201.923273 57.1023026 201.923273 57.5340461 201.813076 57.9386513 201.594326 58.3194079 201.374753 58.6993421 201.106661 59.0620066 200.788405 59.4074013 200.469326 59.7536184 200.134622 60.0817434 199.781826 60.3934211 199.42903 60.7050987 199.118997 61.0044408 198.852549 61.2914474L201.809786 61.2914474 201.809786 62.4625 197.137911 62.4625zM204.160855 59.8439145C204.160855 60.1449013 204.184704 60.3949013 204.232401 60.5930921 204.280921 60.7921053 204.351645 60.9508224 204.442928 61.0708882 204.535855 61.1909539 204.651809 61.2748355 204.792434 61.3225329 204.933059 61.3710526 205.099178 61.3940789 205.290789 61.3940789 205.482401 61.3940789 205.64852 61.3710526 205.788322 61.3225329 205.928947 61.2748355 206.044901 61.1909539 206.137829 61.0708882 206.229934 60.9508224 206.299836 60.7921053 206.348355 60.5930921 206.396053 60.3949013 206.420724 60.1449013 206.420724 59.8439145L206.420724 57.6671053C206.420724 57.3661184 206.396053 57.1161184 206.348355 56.9171053 206.299836 56.7189145 206.229934 56.559375 206.137829 56.4401316 206.044901 56.3200658 205.928947 56.2361842 205.788322 56.1884868 205.64852 56.1407895 205.482401 56.1161184 205.290789 56.1161184 205.099178 56.1161184 204.933059 56.1407895 204.792434 56.1884868 204.651809 56.2361842 204.535855 56.3200658 204.442928 56.4401316 204.351645 56.559375 204.280921 56.7189145 204.232401 56.9171053 204.184704 57.1161184 204.160855 57.3661184 204.160855 57.6671053L204.160855 59.8439145zM202.805592 57.5125C202.805592 56.7189145 203.017763 56.0922697 203.442105 55.6342105 203.866447 55.1753289 204.482401 54.9458882 205.290789 54.9458882 206.099178 54.9458882 206.714309 55.1753289 207.139474 55.6342105 207.563816 56.0922697 207.775987 56.7189145 207.775987 57.5125L207.775987 59.9976974C207.775987 60.7921053 207.563816 61.41875 207.139474 61.8768092 206.714309 62.3356908 206.099178 62.5651316 205.290789 62.5651316 204.482401 62.5651316 203.866447 62.3356908 203.442105 61.8768092 203.017763 61.41875 202.805592 60.7921053 202.805592 59.9976974L202.805592 57.5125zM209.870148 59.8439145C209.870148 60.1449013 209.893997 60.3949013 209.941694 60.5930921 209.990214 60.7921053 210.060938 60.9508224 210.153043 61.0708882 210.245148 61.1909539 210.361924 61.2748355 210.501727 61.3225329 210.642352 61.3710526 210.80847 61.3940789 211.000082 61.3940789 211.191694 61.3940789 211.357813 61.3710526 211.497615 61.3225329 211.63824 61.2748355 211.755016 61.1909539 211.847122 61.0708882 211.939227 60.9508224 212.009128 60.7921053 212.057648 60.5930921 212.105345 60.3949013 212.130016 60.1449013 212.130016 59.8439145L212.130016 57.6671053C212.130016 57.3661184 212.105345 57.1161184 212.057648 56.9171053 212.009128 56.7189145 211.939227 56.559375 211.847122 56.4401316 211.755016 56.3200658 211.63824 56.2361842 211.497615 56.1884868 211.357813 56.1407895 211.191694 56.1161184 211.000082 56.1161184 210.80847 56.1161184 210.642352 56.1407895 210.501727 56.1884868 210.361924 56.2361842 210.245148 56.3200658 210.153043 56.4401316 210.060938 56.559375 209.990214 56.7189145 209.941694 56.9171053 209.893997 57.1161184 209.870148 57.3661184 209.870148 57.6671053L209.870148 59.8439145zM208.514885 57.5125C208.514885 56.7189145 208.727056 56.0922697 209.151398 55.6342105 209.57574 55.1753289 210.191694 54.9458882 211.000082 54.9458882 211.80847 54.9458882 212.423602 55.1753289 212.848766 55.6342105 213.273109 56.0922697 213.48528 56.7189145 213.48528 57.5125L213.48528 59.9976974C213.48528 60.7921053 213.273109 61.41875 212.848766 61.8768092 212.423602 62.3356908 211.80847 62.5651316 211.000082 62.5651316 210.191694 62.5651316 209.57574 62.3356908 209.151398 61.8768092 208.727056 61.41875 208.514885 60.7921053 208.514885 59.9976974L208.514885 57.5125zM215.579441 59.8439145C215.579441 60.1449013 215.603289 60.3949013 215.650987 60.5930921 215.699507 60.7921053 215.77023 60.9508224 215.861513 61.0708882 215.954441 61.1909539 216.070395 61.2748355 216.21102 61.3225329 216.351645 61.3710526 216.517763 61.3940789 216.709375 61.3940789 217.065461 61.3940789 217.331908 61.2748355 217.510362 61.0355263 217.687993 60.7953947 217.777632 60.4598684 217.777632 60.0289474 217.777632 59.6177632 217.678125 59.3151316 217.479934 59.1202303 217.280921 58.9253289 217.024342 58.8274671 216.709375 58.8274671 216.490625 58.8274671 216.291612 58.8891447 216.113158 59.0116776 215.935526 59.1350329 215.757072 59.2756579 215.579441 59.4335526L215.579441 59.8439145zM217.643586 56.9894737C217.630428 56.7361842 217.534211 56.5273026 217.355757 56.3628289 217.178125 56.1983553 216.962664 56.1161184 216.709375 56.1161184 216.517763 56.1161184 216.351645 56.1407895 216.21102 56.1884868 216.070395 56.2361842 215.954441 56.3200658 215.861513 56.4401316 215.77023 56.559375 215.699507 56.7189145 215.650987 56.9171053 215.603289 57.1161184 215.579441 57.3661184 215.579441 57.6671053L215.579441 58.3554276C215.812993 58.1769737 216.062171 58.0371711 216.328618 57.934375 216.596711 57.8315789 216.877138 57.7797697 217.171546 57.7797697 217.493092 57.7797697 217.777632 57.8381579 218.02352 57.9541118 218.27023 58.0708882 218.475822 58.2304276 218.639474 58.4319079 218.803947 58.6342105 218.927303 58.8685855 219.009539 59.1350329 219.091776 59.4023026 219.132895 59.6827303 219.132895 59.9779605 219.132895 60.3603618 219.085197 60.7098684 218.98898 61.0248355 218.892763 61.3398026 218.747204 61.6120066 218.553125 61.8414474 218.357401 62.0708882 218.105757 62.2485197 217.798191 62.3751645 217.489803 62.5018092 217.127138 62.5651316 216.709375 62.5651316 215.900987 62.5651316 215.285033 62.3356908 214.860691 61.8768092 214.436349 61.41875 214.224178 60.7921053 214.224178 59.9976974L214.224178 57.5125C214.224178 56.7189145 214.436349 56.0922697 214.860691 55.6342105 215.285033 55.1753289 215.900987 54.9458882 216.709375 54.9458882 217.352467 54.9458882 217.882072 55.1185855 218.296546 55.4639803 218.710197 55.8101974 218.944572 56.3184211 218.998849 56.9894737L217.643586 56.9894737zM93.3564145 62.4625L93.3564145 61.2610197C93.8490132 60.7955592 94.275 60.3868421 94.634375 60.0340461 94.99375 59.68125 95.3021382 59.3753289 95.5587171 59.1146382 95.8152961 58.8547697 96.0225329 58.6286184 96.1804276 58.4370066 96.3375 58.2453947 96.4625 58.0743421 96.5546053 57.9238487 96.6475329 57.7733553 96.7092105 57.6360197 96.7388158 57.5126645 96.7700658 57.3893092 96.7856908 57.2626645 96.7856908 57.1327303 96.7856908 56.8317434 96.7034539 56.5875 96.5398026 56.3991776 96.3745066 56.2108553 96.1286184 56.1162829 95.7996711 56.1162829 95.4509868 56.1162829 95.1870066 56.2083882 95.009375 56.3942434 94.8317434 56.5784539 94.7421053 56.8111842 94.7421053 57.0924342L94.7421053 57.3588816 93.3868421 57.3588816 93.3868421 57.009375C93.3868421 56.7363487 93.4402961 56.4756579 93.5463816 56.2289474 93.6524671 55.9830592 93.8046053 55.7634868 94.0027961 55.5726974 94.2009868 55.3802632 94.4427632 55.228125 94.7273026 55.1154605 95.0110197 55.0027961 95.3342105 54.9460526 95.696875 54.9460526 96.0595395 54.9460526 96.3909539 54.9921053 96.6878289 55.0842105 96.9855263 55.1771382 97.2429276 55.3136513 97.4583882 55.4953947 97.6746711 55.6763158 97.8416118 55.9008224 97.9616776 56.1680921 98.0809211 56.4345395 98.1417763 56.7462171 98.1417763 57.1023026 98.1417763 57.5340461 98.0315789 57.9386513 97.8128289 58.3194079 97.5932566 58.6993421 97.3251645 59.0620066 97.0069079 59.4074013 96.6878289 59.7536184 96.353125 60.0817434 96.0003289 60.3934211 95.6475329 60.7050987 95.3375 61.0044408 95.0710526 61.2914474L98.0282895 61.2914474 98.0282895 62.4625 93.3564145 62.4625zM100.379359 59.8439145C100.379359 60.1449013 100.403207 60.3949013 100.450905 60.5930921 100.499424 60.7921053 100.570148 60.9508224 100.661431 61.0708882 100.754359 61.1909539 100.870313 61.2748355 101.010938 61.3225329 101.151563 61.3710526 101.317681 61.3940789 101.509293 61.3940789 101.700905 61.3940789 101.867023 61.3710526 102.006826 61.3225329 102.147451 61.2748355 102.263405 61.1909539 102.356332 61.0708882 102.448438 60.9508224 102.518339 60.7921053 102.566859 60.5930921 102.614556 60.3949013 102.639227 60.1449013 102.639227 59.8439145L102.639227 57.6671053C102.639227 57.3661184 102.614556 57.1161184 102.566859 56.9171053 102.518339 56.7189145 102.448438 56.559375 102.356332 56.4401316 102.263405 56.3200658 102.147451 56.2361842 102.006826 56.1884868 101.867023 56.1407895 101.700905 56.1161184 101.509293 56.1161184 101.317681 56.1161184 101.151563 56.1407895 101.010938 56.1884868 100.870313 56.2361842 100.754359 56.3200658 100.661431 56.4401316 100.570148 56.559375 100.499424 56.7189145 100.450905 56.9171053 100.403207 57.1161184 100.379359 57.3661184 100.379359 57.6671053L100.379359 59.8439145zM99.0240954 57.5125C99.0240954 56.7189145 99.2362664 56.0922697 99.6606086 55.6342105 100.084951 55.1753289 100.700905 54.9458882 101.509293 54.9458882 102.317681 54.9458882 102.932813 55.1753289 103.357977 55.6342105 103.782319 56.0922697 103.99449 56.7189145 103.99449 57.5125L103.99449 59.9976974C103.99449 60.7921053 103.782319 61.41875 103.357977 61.8768092 102.932813 62.3356908 102.317681 62.5651316 101.509293 62.5651316 100.700905 62.5651316 100.084951 62.3356908 99.6606086 61.8768092 99.2362664 61.41875 99.0240954 60.7921053 99.0240954 59.9976974L99.0240954 57.5125zM106.088651 59.8439145C106.088651 60.1449013 106.1125 60.3949013 106.160197 60.5930921 106.208717 60.7921053 106.279441 60.9508224 106.371546 61.0708882 106.463651 61.1909539 106.580428 61.2748355 106.72023 61.3225329 106.860855 61.3710526 107.026974 61.3940789 107.218586 61.3940789 107.410197 61.3940789 107.576316 61.3710526 107.716118 61.3225329 107.856743 61.2748355 107.97352 61.1909539 108.065625 61.0708882 108.15773 60.9508224 108.227632 60.7921053 108.276151 60.5930921 108.323849 60.3949013 108.34852 60.1449013 108.34852 59.8439145L108.34852 57.6671053C108.34852 57.3661184 108.323849 57.1161184 108.276151 56.9171053 108.227632 56.7189145 108.15773 56.559375 108.065625 56.4401316 107.97352 56.3200658 107.856743 56.2361842 107.716118 56.1884868 107.576316 56.1407895 107.410197 56.1161184 107.218586 56.1161184 107.026974 56.1161184 106.860855 56.1407895 106.72023 56.1884868 106.580428 56.2361842 106.463651 56.3200658 106.371546 56.4401316 106.279441 56.559375 106.208717 56.7189145 106.160197 56.9171053 106.1125 57.1161184 106.088651 57.3661184 106.088651 57.6671053L106.088651 59.8439145zM104.733388 57.5125C104.733388 56.7189145 104.945559 56.0922697 105.369901 55.6342105 105.794243 55.1753289 106.410197 54.9458882 107.218586 54.9458882 108.026974 54.9458882 108.642105 55.1753289 109.06727 55.6342105 109.491612 56.0922697 109.703783 56.7189145 109.703783 57.5125L109.703783 59.9976974C109.703783 60.7921053 109.491612 61.41875 109.06727 61.8768092 108.642105 62.3356908 108.026974 62.5651316 107.218586 62.5651316 106.410197 62.5651316 105.794243 62.3356908 105.369901 61.8768092 104.945559 61.41875 104.733388 60.7921053 104.733388 59.9976974L104.733388 57.5125zM111.787911 60.3370066C111.774753 60.6856908 111.862747 60.9496711 112.055181 61.1273026 112.246793 61.3057566 112.509951 61.3945724 112.845477 61.3945724 113.283799 61.3945724 113.584786 61.2555921 113.74926 60.9784539 113.913734 60.7013158 113.99597 60.3024671 113.99597 59.7827303 113.99597 59.3238487 113.913734 58.9710526 113.74926 58.7243421 113.584786 58.4784539 113.307648 58.3550987 112.917845 58.3550987 112.684293 58.3550987 112.477056 58.4060855 112.296135 58.5088816 112.114391 58.6116776 111.958964 58.7523026 111.82903 58.9299342L110.709786 58.9299342 110.709786 55.0483553 114.991859 55.0483553 114.991859 56.2194079 111.880839 56.2194079 111.880839 57.7597039C112.07903 57.6223684 112.284622 57.5129934 112.496793 57.4307566 112.708964 57.3485197 112.952385 57.3074013 113.225411 57.3074013 113.622615 57.3074013 113.956497 57.3674342 114.226234 57.4875 114.496793 57.6075658 114.716365 57.7745066 114.884128 57.9907895 115.051891 58.20625 115.171957 58.4694079 115.243503 58.7810855 115.315049 59.0927632 115.351234 59.4373355 115.351234 59.8131579 115.351234 60.2449013 115.305181 60.6297697 115.212253 60.9685855 115.120148 61.3074013 114.974589 61.5944079 114.776398 61.83125 114.577385 62.0672697 114.320806 62.2481908 114.005839 62.3748355 113.690872 62.5014803 113.310938 62.565625 112.866036 62.565625 112.400576 62.565625 112.01324 62.5014803 111.705674 62.3748355 111.397286 62.2481908 111.148109 62.08125 110.956497 61.8723684 110.764063 61.6634868 110.629194 61.4258224 110.550247 61.1585526 110.472122 60.8912829 110.432648 60.6174342 110.432648 60.3370066L111.787911 60.3370066zM217.582484 85.7098684L188.919655 85.7098684C188.446793 85.7098684 188.063569 85.3274671 188.063569 84.8537829L188.063569 75.3175987 167.631826 75.3175987C167.158964 75.3175987 166.77574 74.934375 166.77574 74.4615132L166.77574 58.8907895 138.577549 58.8907895C138.104687 58.8907895 137.721464 58.5083882 137.721464 58.0347039 137.721464 57.5618421 138.104687 57.1794408 138.577549 57.1794408L167.631826 57.1794408C168.104687 57.1794408 168.487089 57.5618421 168.487089 58.0347039L168.487089 73.60625 188.919655 73.60625C189.392516 73.60625 189.774918 73.9886513 189.774918 74.4615132L189.774918 83.9985197 217.582484 83.9985197C218.055345 83.9985197 218.438569 84.3809211 218.438569 84.8537829 218.438569 85.3274671 218.055345 85.7098684 217.582484 85.7098684"/>
    <path fill="#000000" d="M188.680099 85.7098684L151.456414 85.7098684C150.983553 85.7098684 150.600329 85.3274671 150.600329 84.8537829L150.600329 70.2978618 139.433388 70.2978618 139.433388 84.8537829C139.433388 85.3274671 139.050164 85.7098684 138.577303 85.7098684 138.104441 85.7098684 137.721217 85.3274671 137.721217 84.8537829L137.721217 69.4417763C137.721217 68.9689145 138.104441 68.5865132 138.577303 68.5865132L151.456414 68.5865132C151.928454 68.5865132 152.311678 68.9689145 152.311678 69.4417763L152.311678 83.9985197 188.680099 83.9985197C189.152961 83.9985197 189.536184 84.3809211 189.536184 84.8537829 189.536184 85.3274671 189.152961 85.7098684 188.680099 85.7098684M113.800987 137.557895L85.1381579 137.557895C84.6652961 137.557895 84.2820724 137.175493 84.2820724 136.701809L84.2820724 127.165625 63.8503289 127.165625C63.3774671 127.165625 62.9942434 126.783224 62.9942434 126.309539L62.9942434 110.738816 34.7960526 110.738816C34.3231908 110.738816 33.9399671 110.356414 33.9399671 109.88273 33.9399671 109.409868 34.3231908 109.027467 34.7960526 109.027467L63.8503289 109.027467C64.3231908 109.027467 64.7064145 109.409868 64.7064145 109.88273L64.7064145 125.454276 85.1381579 125.454276C85.6110197 125.454276 85.9934211 125.836678 85.9934211 126.309539L85.9934211 135.846546 113.800987 135.846546C114.273849 135.846546 114.657072 136.228947 114.657072 136.701809 114.657072 137.175493 114.273849 137.557895 113.800987 137.557895"/>
    <path fill="#000000" d="M84.8986842,137.557895 L47.675,137.557895 C47.2021382,137.557895 46.8189145,137.175493 46.8189145,136.701809 L46.8189145,122.145888 L35.6519737,122.145888 L35.6519737,136.701809 C35.6519737,137.175493 35.26875,137.557895 34.7958882,137.557895 C34.3230263,137.557895 33.9398026,137.175493 33.9398026,136.701809 L33.9398026,121.289803 C33.9398026,120.816941 34.3230263,120.434539 34.7958882,120.434539 L47.675,120.434539 C48.1470395,120.434539 48.5302632,120.816941 48.5302632,121.289803 L48.5302632,135.846546 L84.8986842,135.846546 C85.3715461,135.846546 85.7547697,136.228947 85.7547697,136.701809 C85.7547697,137.175493 85.3715461,137.557895 84.8986842,137.557895"/>
    <path fill="#000000" d="M85.1380757 127.165543C84.6652138 127.165543 84.2819901 126.783141 84.2819901 126.309457L84.2819901 116.022451 55.6150493 116.022451 55.6150493 121.28972C55.6150493 121.762582 55.2318257 122.145806 54.7597862 122.145806L47.6750822 122.145806C47.2022204 122.145806 46.8189967 121.762582 46.8189967 121.28972 46.8189967 120.816859 47.2022204 120.434457 47.6750822 120.434457L53.9037007 120.434457 53.9037007 115.167188C53.9037007 114.694326 54.2869243 114.311102 54.7597862 114.311102L85.1380757 114.311102C85.6109375 114.311102 85.9941612 114.694326 85.9941612 115.167188L85.9941612 126.309457C85.9941612 126.783141 85.6109375 127.165543 85.1380757 127.165543M217.582484 137.557895L188.919655 137.557895C188.446793 137.557895 188.063569 137.175493 188.063569 136.701809L188.063569 127.165625 167.631826 127.165625C167.158964 127.165625 166.77574 126.783224 166.77574 126.309539L166.77574 110.738816 138.577549 110.738816C138.104687 110.738816 137.721464 110.356414 137.721464 109.88273 137.721464 109.409868 138.104687 109.027467 138.577549 109.027467L167.631826 109.027467C168.104687 109.027467 168.487089 109.409868 168.487089 109.88273L168.487089 125.454276 188.919655 125.454276C189.392516 125.454276 189.774918 125.836678 189.774918 126.309539L189.774918 135.846546 217.582484 135.846546C218.055345 135.846546 218.438569 136.228947 218.438569 136.701809 218.438569 137.175493 218.055345 137.557895 217.582484 137.557895"/>
    <path fill="#000000" d="M188.680099,137.557895 L151.456414,137.557895 C150.983553,137.557895 150.600329,137.175493 150.600329,136.701809 L150.600329,122.145888 L139.433388,122.145888 L139.433388,136.701809 C139.433388,137.175493 139.050164,137.557895 138.577303,137.557895 C138.104441,137.557895 137.721217,137.175493 137.721217,136.701809 L137.721217,121.289803 C137.721217,120.816941 138.104441,120.434539 138.577303,120.434539 L151.456414,120.434539 C151.928454,120.434539 152.311678,120.816941 152.311678,121.289803 L152.311678,135.846546 L188.680099,135.846546 C189.152961,135.846546 189.536184,136.228947 189.536184,136.701809 C189.536184,137.175493 189.152961,137.557895 188.680099,137.557895"/>
    <path fill="#000000" d="M188.91949,127.165543 C188.446628,127.165543 188.063405,126.783141 188.063405,126.309457 L188.063405,116.022451 L159.396464,116.022451 L159.396464,121.28972 C159.396464,121.762582 159.01324,122.145806 158.541201,122.145806 L151.456497,122.145806 C150.983635,122.145806 150.600411,121.762582 150.600411,121.28972 C150.600411,120.816859 150.983635,120.434457 151.456497,120.434457 L157.685115,120.434457 L157.685115,115.167188 C157.685115,114.694326 158.068339,114.311102 158.541201,114.311102 L188.91949,114.311102 C189.392352,114.311102 189.775576,114.694326 189.775576,115.167188 L189.775576,126.309457 C189.775576,126.783141 189.392352,127.165543 188.91949,127.165543"/>
    <path fill="#FF9C00" d="M124.714885,166.204359 C122.603043,166.204359 120.885115,164.486431 120.885115,162.374589 C120.885115,160.263569 122.603043,158.544819 124.714885,158.544819 C126.826727,158.544819 128.544655,160.263569 128.544655,162.374589 C128.544655,164.486431 126.826727,166.204359 124.714885,166.204359"/>
    <path fill="#000000" d="M124.714885,159.593668 C123.181168,159.593668 121.933635,160.841201 121.933635,162.374918 C121.933635,163.907813 123.181168,165.156168 124.714885,165.156168 C126.248602,165.156168 127.496135,163.907813 127.496135,162.374918 C127.496135,160.841201 126.248602,159.593668 124.714885,159.593668 M124.714885,166.867516 C122.237911,166.867516 120.222286,164.851891 120.222286,162.374918 C120.222286,159.897944 122.237911,157.882319 124.714885,157.882319 C127.191859,157.882319 129.207484,159.897944 129.207484,162.374918 C129.207484,164.851891 127.191859,166.867516 124.714885,166.867516"/>
  </g>
</svg>
