<?xml version="1.0" encoding="UTF-8" standalone="no"?>
<svg width="254px" height="254px" viewBox="0 0 254 254" version="1.1" xmlns="http://www.w3.org/2000/svg" xmlns:xlink="http://www.w3.org/1999/xlink">
    <!-- Generator: Sketch 39.1 (31720) - http://www.bohemiancoding.com/sketch -->
    <title>Page 1</title>
    <desc>Created with Sketch.</desc>
    <defs></defs>
    <g id="DESIGN" stroke="none" stroke-width="1" fill="none" fill-rule="evenodd">
        <g id="Logging_Roads_1_home_revised" transform="translate(-176.000000, -1171.000000)">
            <g id="Group-5" transform="translate(111.000000, 1173.000000)">
                <g id="Page-1" transform="translate(67.000000, 0.000000)">
                    <path d="M249.588816,124.794408 C249.588816,193.716283 193.716283,249.588816 124.794408,249.588816 C55.8725329,249.588816 0,193.716283 0,124.794408 C0,55.8725329 55.8725329,0 124.794408,0 C193.716283,0 249.588816,55.8725329 249.588816,124.794408 L249.588816,124.794408 Z" id="Fill-1" fill="#E7E4E2"></path>
                    <path d="M249.588816,124.794408 C249.588816,193.716283 193.716283,249.588816 124.794408,249.588816 C55.8725329,249.588816 0,193.716283 0,124.794408 C0,55.8725329 55.8725329,0 124.794408,0 C193.716283,0 249.588816,55.8725329 249.588816,124.794408 L249.588816,124.794408 Z" id="Stroke-3" stroke="#D6D6D6" stroke-width="4"></path>
                    <path d="M203.839227,197.912171 C203.839227,199.2625 168.898438,200.357072 125.796464,200.357072 C82.6944901,200.357072 47.7537007,199.2625 47.7537007,197.912171 C47.7537007,196.561842 82.6944901,195.46727 125.796464,195.46727 C168.898438,195.46727 203.839227,196.561842 203.839227,197.912171" id="Fill-5" fill="#000000" opacity="0.2"></path>
                    <polygon id="Fill-7" fill="#782500" points="23.5337171 149.396382 225.769737 149.396382 225.769737 45.5690789 23.5337171 45.5690789"></polygon>
                    <polygon id="Fill-9" fill="#FFD234" points="24.3465461 148.601809 24.3465461 174.743257 225.140132 174.705428 225.770066 149.193092"></polygon>
                    <polygon id="Fill-10" fill="#FFC22F" points="104.216201 174.743503 104.216201 195.410444 145.437418 195.380016 145.56653 175.210609"></polygon>
                    <polygon id="Fill-11" fill="#000000" opacity="0.2" points="104.216201 189.283799 104.216201 195.410444 145.437418 195.401398 145.56653 180.723766"></polygon>
                    <polygon id="Fill-12" fill="#000000" opacity="0.2" points="24.3465461 170.6 24.3465461 174.743092 225.140132 174.737336 225.770066 170.6"></polygon>
                    <polygon id="Fill-13" fill="#FFD234" points="24.6493421 35.3712171 23.5342105 45.9254934 225.769408 45.9254934 224.930592 35.3712171"></polygon>
                    <path d="M225.056661,44.7128289 L24.5319901,44.7128289 L24.5319901,38.6495066 C24.5319901,37.2333882 25.6841283,36.0820724 27.0994243,36.0820724 L222.489227,36.0820724 C223.905345,36.0820724 225.056661,37.2333882 225.056661,38.6495066 L225.056661,44.7128289 Z M24.5319901,148.255592 L225.056661,148.255592 L225.056661,46.425 L24.5319901,46.425 L24.5319901,148.255592 Z M225.056661,171.860855 C225.056661,173.276974 223.905345,174.428289 222.489227,174.428289 L145.477714,174.428289 L104.117516,174.428289 L27.0994243,174.428289 C25.6841283,174.428289 24.5319901,173.276974 24.5319901,171.860855 L24.5319901,149.966941 L225.056661,149.966941 L225.056661,171.860855 Z M104.973602,194.684046 L144.622451,194.684046 L144.622451,176.139638 L104.973602,176.139638 L104.973602,194.684046 Z M222.489227,34.3707237 L27.0994243,34.3707237 C24.7400493,34.3707237 22.8206414,36.2901316 22.8206414,38.6495066 L22.8206414,171.860855 C22.8206414,174.22023 24.7400493,176.139638 27.0994243,176.139638 L103.262253,176.139638 L103.262253,194.684046 L95.5541941,194.684046 C95.0813322,194.684046 94.6981086,195.066447 94.6981086,195.540132 C94.6981086,196.012993 95.0813322,196.395395 95.5541941,196.395395 L154.03528,196.395395 C154.507319,196.395395 154.890543,196.012993 154.890543,195.540132 C154.890543,195.066447 154.507319,194.684046 154.03528,194.684046 L146.333799,194.684046 L146.333799,176.139638 L222.489227,176.139638 C224.848602,176.139638 226.76801,174.22023 226.76801,171.860855 L226.76801,38.6495066 C226.76801,36.2901316 224.848602,34.3707237 222.489227,34.3707237 L222.489227,34.3707237 Z" id="Fill-14" fill="#000000"></path>
                    <path d="M124.509211,166.204359 C122.397368,166.204359 120.679441,164.486431 120.679441,162.374589 C120.679441,160.263569 122.397368,158.544819 124.509211,158.544819 C126.621053,158.544819 128.33898,160.263569 128.33898,162.374589 C128.33898,164.486431 126.621053,166.204359 124.509211,166.204359" id="Fill-15" fill="#FF9C00"></path>
                    <path d="M124.509211,159.593668 C122.975493,159.593668 121.727961,160.841201 121.727961,162.374918 C121.727961,163.907813 122.975493,165.156168 124.509211,165.156168 C126.042928,165.156168 127.290461,163.907813 127.290461,162.374918 C127.290461,160.841201 126.042928,159.593668 124.509211,159.593668 M124.509211,166.867516 C122.032237,166.867516 120.016612,164.851891 120.016612,162.374918 C120.016612,159.897944 122.032237,157.882319 124.509211,157.882319 C126.986184,157.882319 129.001809,159.897944 129.001809,162.374918 C129.001809,164.851891 126.986184,166.867516 124.509211,166.867516" id="Fill-16" fill="#000000"></path>
                    <polygon id="Fill-17" fill="#FF9C00" points="60.6604441 56.495477 60.9976151 137.284951 188.643174 137.284951 188.306003 56.495477"></polygon>
                    <path d="M190.542352,142.407895 L65.8918586,142.407895 C64.4765625,142.407895 63.3252467,141.256579 63.3252467,139.840461 L63.3252467,61.9695724 C63.3252467,60.5542763 64.4765625,59.4029605 65.8918586,59.4029605 L190.542352,59.4029605 C191.957648,59.4029605 193.109786,60.5542763 193.109786,61.9695724 L193.109786,139.840461 C193.109786,141.256579 191.957648,142.407895 190.542352,142.407895" id="Fill-18" fill="#000000" opacity="0.2"></path>
                    <polygon id="Fill-19" fill="#FF5D33" points="60.6604441 56.495477 60.9976151 137.284951 188.643174 137.284951 188.306003 56.495477"></polygon>
                    <path d="M62.4695724,57.5486842 C61.9975329,57.5486842 61.6134868,57.9319079 61.6134868,58.4047697 L61.6134868,136.274836 C61.6134868,136.747697 61.9975329,137.130921 62.4695724,137.130921 L187.119243,137.130921 C187.591283,137.130921 187.975329,136.747697 187.975329,136.274836 L187.975329,58.4047697 C187.975329,57.9319079 187.591283,57.5486842 187.119243,57.5486842 L62.4695724,57.5486842 Z M187.119243,138.84227 L62.4695724,138.84227 C61.0542763,138.84227 59.9021382,137.690954 59.9021382,136.274836 L59.9021382,58.4047697 C59.9021382,56.9886513 61.0542763,55.8373355 62.4695724,55.8373355 L187.119243,55.8373355 C188.534539,55.8373355 189.686678,56.9886513 189.686678,58.4047697 L189.686678,136.274836 C189.686678,137.690954 188.534539,138.84227 187.119243,138.84227 L187.119243,138.84227 Z" id="Fill-20" fill="#000000"></path>
                    <path d="M124.229605,74.5352796 C124.037993,74.754852 123.835691,74.9291941 123.62352,75.0591283 C123.411349,75.1890625 123.172039,75.2540296 122.90477,75.2540296 C122.562664,75.2540296 122.247697,75.2096217 121.960691,75.1208059 C121.672862,75.0319901 121.426151,74.8897204 121.221382,74.6948191 C121.015789,74.4990954 120.854605,74.2441612 120.738651,73.9291941 C120.621875,73.6150493 120.564309,73.2277138 120.564309,72.7688322 L120.564309,70.1199836 C120.564309,69.661102 120.621875,69.2745888 120.738651,68.9596217 C120.854605,68.6446546 121.015789,68.3897204 121.221382,68.1948191 C121.426151,67.9999178 121.672862,67.857648 121.960691,67.7688322 C122.247697,67.6791941 122.562664,67.6347862 122.90477,67.6347862 C123.630921,67.6347862 124.185197,67.842023 124.568421,68.2564967 C124.951645,68.6709704 125.157237,69.301727 125.184375,70.1504112 L123.768257,70.1504112 C123.768257,69.6717928 123.689309,69.3412007 123.531414,69.1594572 C123.37352,68.9785362 123.165461,68.8880757 122.90477,68.8880757 C122.617763,68.8880757 122.391612,68.9596217 122.227138,69.1035362 C122.063487,69.2474507 121.980428,69.5245888 121.980428,69.9349507 L121.980428,72.9538651 C121.980428,73.3650493 122.063487,73.6421875 122.227138,73.786102 C122.391612,73.9291941 122.617763,74.0015625 122.90477,74.0015625 C123.172039,74.0015625 123.382566,73.911102 123.537171,73.7293586 C123.690954,73.5476151 123.768257,73.2967928 123.768257,72.9744243 L123.768257,72.5229441 L122.771546,72.5229441 L122.771546,71.3518914 L125.184375,71.3518914 L125.184375,75.1512336 L124.445888,75.1512336 L124.229605,74.5352796 Z" id="Fill-21" fill="#000000"></path>
                    <path d="M127.690049,72.9541941 C127.690049,73.3645559 127.772286,73.6416941 127.93676,73.7856086 C128.100411,73.929523 128.326563,74.0010691 128.614391,74.0010691 C128.901398,74.0010691 129.127549,73.929523 129.292023,73.7856086 C129.456497,73.6416941 129.538734,73.3645559 129.538734,72.9541941 L129.538734,69.9352796 C129.538734,69.5240954 129.456497,69.2469572 129.292023,69.1030428 C129.127549,68.9599507 128.901398,68.8875822 128.614391,68.8875822 C128.326563,68.8875822 128.100411,68.9599507 127.93676,69.1030428 C127.772286,69.2469572 127.690049,69.5240954 127.690049,69.9352796 L127.690049,72.9541941 Z M126.273109,70.1203125 C126.273109,69.6614309 126.331497,69.2740954 126.447451,68.9599507 C126.564227,68.6449836 126.724589,68.3900493 126.930181,68.1943257 C127.135773,67.9994243 127.382484,67.8571546 127.66949,67.7683388 C127.957319,67.679523 128.272286,67.6351151 128.614391,67.6351151 C128.956497,67.6351151 129.271464,67.679523 129.559293,67.7683388 C129.846299,67.8571546 130.09301,67.9994243 130.298602,68.1943257 C130.503372,68.3900493 130.664556,68.6449836 130.781332,68.9599507 C130.897286,69.2740954 130.955674,69.6614309 130.955674,70.1203125 L130.955674,72.7691612 C130.955674,73.2280428 130.897286,73.6145559 130.781332,73.929523 C130.664556,74.2444901 130.503372,74.4994243 130.298602,74.6943257 C130.09301,74.889227 129.846299,75.0323191 129.559293,75.1203125 C129.271464,75.2099507 128.956497,75.2543586 128.614391,75.2543586 C128.272286,75.2543586 127.957319,75.2099507 127.66949,75.1203125 C127.382484,75.0323191 127.135773,74.889227 126.930181,74.6943257 C126.724589,74.4994243 126.564227,74.2444901 126.447451,73.929523 C126.331497,73.6145559 126.273109,73.2280428 126.273109,72.7691612 L126.273109,70.1203125 Z" id="Fill-22" fill="#000000"></path>
                    <path d="M132.166941,75.1513158 L133.625,75.1513158 L133.625,73.6932566 L132.166941,73.6932566 L132.166941,75.1513158 Z M133.358553,72.6455592 L132.434211,72.6455592 L132.146382,67.7376645 L133.645559,67.7376645 L133.358553,72.6455592 Z" id="Fill-23" fill="#000000"></path>
                    <path d="M102.468914,82.9050987 C90.7452303,82.9050987 81.2065789,92.4429276 81.2065789,104.167434 C81.2065789,115.891118 90.7452303,125.428947 102.468914,125.428947 C114.192599,125.428947 123.73125,115.891118 123.73125,104.167434 C123.73125,92.4429276 114.192599,82.9050987 102.468914,82.9050987" id="Fill-24" fill="#000000" opacity="0.2"></path>
                    <path d="M100.460855,122.665789 C89.3169408,122.665789 80.2503289,113.6 80.2503289,102.456086 C80.2503289,91.3121711 89.3169408,82.2447368 100.460855,82.2447368 C111.60477,82.2447368 120.671382,91.3121711 120.671382,102.456086 C120.671382,113.6 111.60477,122.665789 100.460855,122.665789" id="Fill-25" fill="#FFB24B"></path>
                    <path d="M100.460609,83.2019737 C89.8446546,83.2019737 81.2064967,91.8393092 81.2064967,102.456086 C81.2064967,113.072039 89.8446546,121.709375 100.460609,121.709375 C111.076562,121.709375 119.71472,113.072039 119.71472,102.456086 C119.71472,91.8393092 111.076562,83.2019737 100.460609,83.2019737 M100.460609,123.420724 C88.8997533,123.420724 79.495148,114.016118 79.495148,102.456086 C79.495148,90.8952303 88.8997533,81.490625 100.460609,81.490625 C112.021464,81.490625 121.426069,90.8952303 121.426069,102.456086 C121.426069,114.016118 112.021464,123.420724 100.460609,123.420724" id="Fill-26" fill="#000000"></path>
                    <path d="M150.612582,120.864638 C141.119161,120.864638 133.394655,113.140954 133.394655,103.647533 C133.394655,94.1532895 141.119161,86.4296053 150.612582,86.4296053 C160.106003,86.4296053 167.83051,94.1532895 167.83051,103.647533 C167.83051,113.140954 160.106003,120.864638 150.612582,120.864638" id="Fill-27" fill="#000000" opacity="0.2"></path>
                    <path d="M96.4488487,113.230263 L100.534375,106.909539 C100.874836,106.535362 101.211184,106.137336 101.542599,105.716283 C101.735855,105.737664 101.932401,105.752467 102.133059,105.709704 L102.81727,105.5625 C103.813158,105.347862 104.449671,104.363487 104.236678,103.365954 L104.089474,102.683388 C104.047533,102.489309 103.952961,102.318257 103.851809,102.152961 C104.113322,101.65625 104.347697,101.167763 104.558224,100.685033 L108.765461,94.1768092 C109.50477,94.3519737 110.305757,94.0641447 110.742434,93.3889803 C111.296711,92.53125 111.050822,91.3873355 110.193092,90.8330592 C109.336184,90.2787829 108.191447,90.5246711 107.637993,91.3815789 C107.201316,92.0567434 107.267105,92.9054276 107.730099,93.5082237 L105.947204,96.2664474 C106.701316,92.3470395 106.017928,89.6085526 105.971053,89.4317434 C105.841118,88.9391447 105.335362,88.6447368 104.841941,88.7738487 C104.347697,88.9037829 104.053289,89.4095395 104.183224,89.9029605 C104.198026,89.9580592 105.468586,95.0657895 102.230099,101.26398 C102.117434,101.264803 102.006414,101.240132 101.89375,101.26398 L101.211184,101.411184 C100.214474,101.625 99.5771382,102.610197 99.7917763,103.606908 L99.9381579,104.290296 C99.9620066,104.402961 100.027796,104.491776 100.070559,104.594572 C95.8222039,109.952303 90.5565789,111.034539 90.4990132,111.046053 C89.9981908,111.141447 89.6692434,111.625 89.7638158,112.125822 C89.8131579,112.384868 89.9652961,112.597862 90.1700658,112.730263 C90.3616776,112.854441 90.5985197,112.907895 90.8402961,112.862664 C91.0236842,112.828125 93.8287829,112.268914 97.0870066,109.972862 L95.4134868,112.561678 C94.6741776,112.386513 93.8731908,112.675164 93.4373355,113.349507 C92.8830592,114.207237 93.1289474,115.351151 93.9858553,115.905428 C94.8435855,116.459704 95.9875,116.213816 96.5417763,115.356908 C96.9784539,114.681743 96.9126645,113.833059 96.4488487,113.230263" id="Fill-28" fill="#000000"></path>
                    <path d="M132.776398,102.123849 C132.776398,93.7990132 139.802714,86.0514803 148.848766,86.0514803 L148.848766,102.456086 L132.776398,102.123849 Z" id="Fill-29" fill="#F97D00"></path>
                    <path d="M148.848684,102.455757 L148.848684,86.0511513 C158.717105,86.0511513 164.921053,93.7995066 164.921053,102.12352 L148.848684,102.455757 Z" id="Fill-30" fill="#FF6513"></path>
                    <path d="M164.92097,102.641859 C164.92097,110.966694 158.717023,118.714227 148.848602,118.714227 L148.848602,102.309622 L164.92097,102.641859 Z" id="Fill-31" fill="#E18B30"></path>
                    <path d="M148.848684,102.309951 L148.848684,118.714556 C139.802632,118.714556 132.776316,110.966201 132.776316,102.642187 L148.848684,102.309951 Z" id="Fill-32" fill="#FFB253"></path>
                    <path d="M154.864227,116.531414 L154.864227,114.940954 L154.864227,111.589803 L158.964556,111.589803 C159.43824,111.589803 159.820641,111.206579 159.820641,110.733717 L159.820641,107.381743 L163.570641,107.381743 C162.133141,111.549507 158.936595,114.897368 154.864227,116.531414 L154.864227,116.531414 Z M134.110115,103.311842 L140.623273,103.311842 L143.584622,103.311842 L143.584622,107.599671 L139.484293,107.599671 C139.011431,107.599671 138.62903,107.982072 138.62903,108.454934 L138.62903,113.281414 C136.009786,110.71398 134.328865,107.206579 134.110115,103.311842 L134.110115,103.311842 Z M139.76801,90.6226974 L139.76801,92.2764803 L138.021299,92.2764803 C138.561595,91.6819079 139.140543,91.1259868 139.76801,90.6226974 L139.76801,90.6226974 Z M163.178372,96.4837171 L158.964556,96.4837171 C158.491694,96.4837171 158.109293,96.8669408 158.109293,97.3398026 L158.109293,101.599671 L154.864227,101.599671 L154.864227,97.3398026 L154.864227,93.9878289 L158.964556,93.9878289 C159.43824,93.9878289 159.820641,93.6054276 159.820641,93.1325658 L159.820641,91.6078947 C161.23676,92.9894737 162.386431,94.6407895 163.178372,96.4837171 L163.178372,96.4837171 Z M159.820641,103.311842 L164.364227,103.311842 C164.318997,104.115296 164.223602,104.90477 164.057484,105.670395 L159.820641,105.670395 L159.820641,103.311842 Z M164.364227,101.599671 L159.820641,101.599671 L159.820641,98.1958882 L163.787747,98.1958882 C164.107648,99.2847039 164.298437,100.425329 164.364227,101.599671 L164.364227,101.599671 Z M150.092845,114.084868 L153.152878,114.084868 L153.152878,111.589803 L150.092845,111.589803 L150.092845,114.084868 Z M150.092845,115.796217 L153.152878,115.796217 L153.152878,117.094737 C152.167681,117.358717 151.145477,117.523191 150.092845,117.582401 L150.092845,115.796217 Z M145.29597,107.599671 L148.381497,107.599671 L148.381497,103.311842 L145.29597,103.311842 L145.29597,107.599671 Z M141.479359,92.2764803 L143.584622,92.2764803 L143.584622,89.7814145 L141.479359,89.7814145 L141.479359,92.2764803 Z M148.381497,88.0700658 L145.29597,88.0700658 L145.29597,87.8225329 C146.288569,87.5544408 147.319819,87.3883224 148.381497,87.3282895 L148.381497,88.0700658 Z M150.092845,96.4837171 L153.152878,96.4837171 L153.152878,93.9878289 L150.092845,93.9878289 L150.092845,96.4837171 Z M145.29597,101.599671 L148.381497,101.599671 L148.381497,98.1950658 L145.29597,98.1950658 L145.29597,101.599671 Z M150.092845,101.600493 L153.152878,101.600493 L153.152878,98.1958882 L150.092845,98.1958882 L150.092845,101.600493 Z M154.008141,88.0700658 C153.53528,88.0700658 153.152878,88.4524671 153.152878,88.9253289 L153.152878,92.2764803 L150.092845,92.2764803 L150.092845,87.3282895 C151.457155,87.4047697 152.774589,87.6547697 154.019655,88.0700658 L154.008141,88.0700658 Z M158.109293,90.1761513 L158.109293,92.2764803 L154.864227,92.2764803 L154.864227,89.7814145 L157.536924,89.7814145 C157.540214,89.7814145 157.543503,89.7789474 157.547615,89.7789474 C157.739227,89.9055921 157.923438,90.0412829 158.109293,90.1761513 L158.109293,90.1761513 Z M141.479359,97.7460526 L141.479359,97.3398026 L141.479359,93.9878289 L144.439885,93.9878289 C144.912747,93.9878289 145.29597,93.6054276 145.29597,93.1325658 L145.29597,89.7814145 L148.381497,89.7814145 L148.381497,93.1325658 L148.381497,96.4837171 L144.439885,96.4837171 C143.967023,96.4837171 143.584622,96.8669408 143.584622,97.3398026 L143.584622,101.599671 L141.479359,101.599671 L141.479359,97.7460526 Z M135.641365,96.8899671 L135.138898,96.8899671 C135.290214,96.5075658 135.460444,96.1350329 135.641365,95.7674342 L135.641365,96.8899671 Z M137.352714,96.8899671 L139.76801,96.8899671 L139.76801,93.9878289 L137.352714,93.9878289 L137.352714,96.8899671 Z M134.110115,101.599671 C134.168503,100.569243 134.32722,99.5675987 134.582155,98.6013158 L135.641365,98.6013158 L135.641365,101.599671 L134.110115,101.599671 Z M137.352714,101.599671 L139.76801,101.599671 L139.76801,98.6013158 L137.352714,98.6013158 L137.352714,101.599671 Z M140.340378,111.806908 L143.584622,111.806908 L143.584622,109.31102 L140.340378,109.31102 L140.340378,111.806908 Z M140.340378,113.518257 L144.439885,113.518257 C144.912747,113.518257 145.29597,113.135855 145.29597,112.662993 L145.29597,109.31102 L148.381497,109.31102 L148.381497,110.733717 L148.381497,117.582401 C145.386431,117.413816 142.62574,116.379276 140.340378,114.716447 L140.340378,113.518257 Z M154.864227,109.878454 L158.109293,109.878454 L158.109293,107.382566 L154.864227,107.382566 L154.864227,109.878454 Z M154.008141,105.670395 C153.53528,105.670395 153.152878,106.053618 153.152878,106.52648 L153.152878,109.878454 L150.092845,109.878454 L150.092845,103.311842 L154.008141,103.311842 L158.109293,103.311842 L158.109293,105.670395 L154.008141,105.670395 Z M165.238405,97.1136513 C165.221957,97.0560855 165.20551,97.0009868 165.178372,96.9491776 C162.888076,90.3398026 156.615049,85.5733553 149.23676,85.5733553 C145.978536,85.5733553 142.943174,86.5174342 140.360938,88.1226974 C140.224424,88.1671053 140.102714,88.2370066 140.006497,88.3381579 C135.405345,91.3570724 132.355181,96.5536184 132.355181,102.455757 C132.355181,107.855428 134.912747,112.658059 138.869984,115.750164 C138.900411,115.782237 138.939885,115.802796 138.975247,115.829934 C141.823109,118.019901 145.374918,119.337336 149.23676,119.337336 C158.545148,119.337336 166.119161,111.764145 166.119161,102.455757 C166.119161,100.587336 165.801727,98.7945724 165.238405,97.1136513 L165.238405,97.1136513 Z" id="Fill-33" fill="#000000"></path>
                    <path d="M153.061349,117.748191 L104.618914,109.105921 C104.294079,109.047533 103.965132,109.181579 103.772697,109.449671 C103.581086,109.716941 103.559704,110.071382 103.718421,110.360855 L127.423191,153.481743 C127.564638,153.739145 127.827796,153.906086 128.121382,153.923355 C128.414967,153.941447 128.697039,153.807401 128.868092,153.568914 L136.632895,142.746546 L137.768586,141.163487 L139.351645,142.299178 L153.923191,152.753947 C155.840132,154.12977 158.518586,153.68898 159.894408,151.772039 L161.843421,149.055757 C163.218421,147.139638 162.777632,144.460362 160.860691,143.085362 L146.289145,132.630592 L144.706086,131.494901 L145.841776,129.91102 L153.606579,119.089474 C153.777632,118.850987 153.814638,118.540954 153.703618,118.26875 C153.593421,117.995724 153.35,117.8 153.061349,117.748191" id="Fill-34" fill="#000000" opacity="0.2"></path>
                    <polygon id="Fill-35" fill="#FFFFFF" points="103.247944 109.569243 126.516036 151.3875 136.062911 139.050329 136.979852 139.322533 153.698602 150.917105 155.198602 151.412171 157.38528 150.264145 159.845806 146.460691 160.331003 144.202467 159.099918 142.247697 142.854852 130.786349 142.996299 129.131743 151.179687 117.688487 103.078536 108.611184"></polygon>
                    <path d="M142.064309,129.181661 C141.943421,129.350247 141.862829,129.534457 141.806086,129.72278 C141.597204,130.415214 141.811842,131.181661 142.391612,131.661102 C142.424507,131.68824 158.538816,143.262253 158.538816,143.262253 C159.689309,144.087089 159.954112,145.693997 159.128454,146.84449 L157.180263,149.560773 C156.354605,150.711266 154.747697,150.975247 153.597204,150.149589 C153.597204,150.149589 137.470559,138.591201 137.435197,138.569819 C136.795395,138.173437 136.000164,138.215378 135.411349,138.635609 C135.250987,138.749918 135.102961,138.884786 134.98125,139.053372 L126.945066,150.25403 L104.756743,109.891365 L150.100493,117.981003 L142.064309,129.181661 Z M151.737829,116.534457 L103.294572,107.892187 C102.970559,107.833799 102.641612,107.967845 102.449178,108.235937 C102.256743,108.503207 102.235362,108.857648 102.394901,109.147122 L126.098849,152.26801 C126.240296,152.525411 126.504276,152.692352 126.797862,152.709622 C127.091447,152.727714 127.37352,152.593668 127.544572,152.355181 L135.308553,141.532812 L136.445066,139.949753 L138.028125,141.085444 L152.599671,151.540214 C154.516612,152.916036 157.195066,152.475247 158.570066,150.558306 L160.519079,147.842023 C161.894901,145.925905 161.454112,143.246628 159.537171,141.871628 L144.965625,131.416859 L143.381743,130.280345 L144.518257,128.697286 L152.282237,117.87574 C152.454112,117.637253 152.490296,117.32722 152.380099,117.055016 C152.269079,116.78199 152.02648,116.586266 151.737829,116.534457 L151.737829,116.534457 Z" id="Fill-36" fill="#000000"></path>
                    <path d="M128.635938,130.653125 C126.04301,130.653125 124.733799,128.737829 124.679523,128.656414 C124.482977,128.362007 124.561924,127.963158 124.856332,127.765789 C125.149918,127.570888 125.547944,127.648191 125.745313,127.940954 C125.790543,128.006743 126.751069,129.369408 128.635938,129.369408 C130.49778,129.369408 131.491201,127.991118 131.532319,127.93273 C131.736266,127.644079 132.135938,127.573355 132.424589,127.774836 C132.714063,127.976316 132.787253,128.37352 132.587418,128.664638 C132.531497,128.74523 131.186924,130.653125 128.635938,130.653125" id="Fill-37" fill="#000000"></path>
                    <path d="M121.616447,124.543257 C121.616447,125.252138 121.041612,125.826974 120.33273,125.826974 C119.623849,125.826974 119.049013,125.252138 119.049013,124.543257 C119.049013,123.834375 119.623849,123.259539 120.33273,123.259539 C121.041612,123.259539 121.616447,123.834375 121.616447,124.543257" id="Fill-38" fill="#000000"></path>
                    <path d="M138.222204,124.543257 C138.222204,125.252138 137.647368,125.826974 136.938487,125.826974 C136.229605,125.826974 135.65477,125.252138 135.65477,124.543257 C135.65477,123.834375 136.229605,123.259539 136.938487,123.259539 C137.647368,123.259539 138.222204,123.834375 138.222204,124.543257" id="Fill-39" fill="#000000"></path>
                    <path d="M121.715789,127.581579 C121.715789,127.865296 120.713322,128.095559 119.477303,128.095559 C118.240461,128.095559 117.237993,127.865296 117.237993,127.581579 C117.237993,127.297862 118.240461,127.067599 119.477303,127.067599 C120.713322,127.067599 121.715789,127.297862 121.715789,127.581579" id="Fill-40" fill="#FF966A"></path>
                    <path d="M140.033059,127.581579 C140.033059,127.865296 139.030592,128.095559 137.794572,128.095559 C136.55773,128.095559 135.555263,127.865296 135.555263,127.581579 C135.555263,127.297862 136.55773,127.067599 137.794572,127.067599 C139.030592,127.067599 140.033059,127.297862 140.033059,127.581579" id="Fill-41" fill="#FF966A"></path>
                </g>
            </g>
        </g>
    </g>
</svg>