<svg xmlns="http://www.w3.org/2000/svg" width="254" height="254" viewBox="0 0 254 254">
  <g fill="none" fill-rule="evenodd" transform="translate(2 2)">
    <path fill="#E9E5E3" d="M250,124.794408 C250,193.716283 194.127467,249.588816 125.205592,249.588816 C56.2837171,249.588816 0.411184211,193.716283 0.411184211,124.794408 C0.411184211,55.8725329 56.2837171,0 125.205592,0 C194.127467,0 250,55.8725329 250,124.794408"/>
    <path stroke="#D6D6D6" stroke-width="4" d="M250,124.794408 C250,193.716283 194.127467,249.588816 125.205592,249.588816 C56.2837171,249.588816 0.411184211,193.716283 0.411184211,124.794408 C0.411184211,55.8725329 56.2837171,0 125.205592,0 C194.127467,0 250,55.8725329 250,124.794408 L250,124.794408 Z"/>
    <path fill="#000000" d="M204.250411,197.912171 C204.250411,199.2625 169.309622,200.357072 126.207648,200.357072 C83.1056743,200.357072 48.1648849,199.2625 48.1648849,197.912171 C48.1648849,196.561842 83.1056743,195.46727 126.207648,195.46727 C169.309622,195.46727 204.250411,196.561842 204.250411,197.912171" opacity=".2"/>
    <polygon fill="#FF7829" points="24.088 97.174 124.921 97.174 124.921 44.57 24.088 44.57"/>
    <polygon fill="#FFB253" points="24.088 149.295 124.921 149.295 124.921 96.691 24.088 96.691"/>
    <polygon fill="#E18B30" points="125.206 149.295 226.039 149.295 226.039 96.691 125.206 96.691"/>
    <polygon fill="#FF6513" points="125.206 97.174 226.039 97.174 226.039 44.57 125.206 44.57"/>
    <polygon fill="#FFD234" points="25.203 35.121 24.088 45.675 226.323 45.675 225.484 35.121"/>
    <polygon fill="#FFC22F" points="104.534 175.079 104.534 195.746 145.755 195.715 145.884 175.546"/>
    <polygon fill="#000000" points="104.534 189.619 104.534 195.746 145.755 195.737 145.884 181.059" opacity=".2"/>
    <polygon fill="#FFD234" points="25.065 149.127 25.065 175.268 225.858 175.23 226.488 149.718"/>
    <polygon fill="#000000" points="25.065 170.6 25.065 174.743 225.858 174.737 226.488 170.6" opacity=".2"/>
    <path fill="#000000" d="M225.467763,44.7128289 L24.9430921,44.7128289 L24.9430921,38.6495066 C24.9430921,37.2333882 26.0952303,36.0820724 27.5105263,36.0820724 L222.900329,36.0820724 C224.316447,36.0820724 225.467763,37.2333882 225.467763,38.6495066 L225.467763,44.7128289 Z M125.776151,96.4842105 L225.467763,96.4842105 L225.467763,46.4241776 L125.776151,46.4241776 L125.776151,96.4842105 Z M125.776151,148.255592 L225.467763,148.255592 L225.467763,98.1955592 L125.776151,98.1955592 L125.776151,148.255592 Z M225.467763,171.860855 C225.467763,173.276974 224.316447,174.428289 222.900329,174.428289 L145.888816,174.428289 L104.528618,174.428289 L27.5105263,174.428289 C26.0952303,174.428289 24.9430921,173.276974 24.9430921,171.860855 L24.9430921,149.966941 L225.467763,149.966941 L225.467763,171.860855 Z M105.384704,194.684046 L145.033553,194.684046 L145.033553,176.139638 L105.384704,176.139638 L105.384704,194.684046 Z M24.9430921,148.255592 L124.064803,148.255592 L124.064803,98.1955592 L24.9430921,98.1955592 L24.9430921,148.255592 Z M24.9430921,96.4842105 L124.064803,96.4842105 L124.064803,46.4241776 L24.9430921,46.4241776 L24.9430921,96.4842105 Z M222.900329,34.3707237 L27.5105263,34.3707237 C25.1511513,34.3707237 23.2317434,36.2901316 23.2317434,38.6495066 L23.2317434,171.860855 C23.2317434,174.22023 25.1511513,176.139638 27.5105263,176.139638 L103.673355,176.139638 L103.673355,194.684046 L95.9652961,194.684046 C95.4924342,194.684046 95.1092105,195.066447 95.1092105,195.540132 C95.1092105,196.012993 95.4924342,196.395395 95.9652961,196.395395 L154.446382,196.395395 C154.918421,196.395395 155.301645,196.012993 155.301645,195.540132 C155.301645,195.066447 154.918421,194.684046 154.446382,194.684046 L146.744901,194.684046 L146.744901,176.139638 L222.900329,176.139638 C225.259704,176.139638 227.179112,174.22023 227.179112,171.860855 L227.179112,38.6495066 C227.179112,36.2901316 225.259704,34.3707237 222.900329,34.3707237 L222.900329,34.3707237 Z"/>
    <path fill="#000000" d="M114.006579 85.7098684L85.34375 85.7098684C84.8708882 85.7098684 84.4876645 85.3274671 84.4876645 84.8537829L84.4876645 75.3175987 64.0559211 75.3175987C63.5830592 75.3175987 63.1998355 74.934375 63.1998355 74.4615132L63.1998355 58.8907895 35.0016447 58.8907895C34.5287829 58.8907895 34.1455592 58.5083882 34.1455592 58.0347039 34.1455592 57.5618421 34.5287829 57.1794408 35.0016447 57.1794408L64.0559211 57.1794408C64.5287829 57.1794408 64.9120066 57.5618421 64.9120066 58.0347039L64.9120066 73.60625 85.34375 73.60625C85.8166118 73.60625 86.1990132 73.9886513 86.1990132 74.4615132L86.1990132 83.9985197 114.006579 83.9985197C114.479441 83.9985197 114.862664 84.3809211 114.862664 84.8537829 114.862664 85.3274671 114.479441 85.7098684 114.006579 85.7098684M197.312582 114.310526L197.312582 113.109046C197.805181 112.643586 198.231168 112.234868 198.590543 111.882072 198.949918 111.529276 199.258306 111.223355 199.514885 110.962664 199.771464 110.702796 199.978701 110.476645 200.136595 110.285033 200.293668 110.093421 200.418668 109.922368 200.510773 109.771875 200.603701 109.621382 200.665378 109.484046 200.694984 109.360691 200.726234 109.237336 200.741859 109.110691 200.741859 108.980757 200.741859 108.67977 200.659622 108.435526 200.49597 108.247204 200.330674 108.058882 200.084786 107.964309 199.755839 107.964309 199.407155 107.964309 199.143174 108.056414 198.965543 108.24227 198.787911 108.42648 198.698273 108.659211 198.698273 108.940461L198.698273 109.206908 197.34301 109.206908 197.34301 108.857401C197.34301 108.584375 197.396464 108.323684 197.502549 108.076974 197.608635 107.831086 197.760773 107.611513 197.958964 107.420724 198.157155 107.228289 198.398931 107.076151 198.68347 106.963487 198.967187 106.850822 199.290378 106.794079 199.653043 106.794079 200.015707 106.794079 200.347122 106.840132 200.644819 106.932237 200.941694 107.025164 201.199095 107.161678 201.414556 107.343421 201.630839 107.524342 201.79778 107.748849 201.917845 108.016118 202.037089 108.282566 202.097944 108.594243 202.097944 108.950329 202.097944 109.382072 201.987747 109.786678 201.768997 110.167434 201.549424 110.547368 201.281332 110.910033 200.963076 111.255428 200.644819 111.601645 200.309293 111.92977 199.956497 112.241447 199.603701 112.553125 199.293668 112.852467 199.02722 113.139474L201.984457 113.139474 201.984457 114.310526 197.312582 114.310526zM204.335526 111.691941C204.335526 111.992928 204.359375 112.242928 204.407072 112.441118 204.455592 112.640132 204.526316 112.798849 204.618421 112.918914 204.710526 113.03898 204.827303 113.122862 204.967105 113.170559 205.10773 113.219079 205.273849 113.242105 205.465461 113.242105 205.657072 113.242105 205.823191 113.219079 205.962993 113.170559 206.103618 113.122862 206.220395 113.03898 206.3125 112.918914 206.404605 112.798849 206.474507 112.640132 206.523026 112.441118 206.570724 112.242928 206.595395 111.992928 206.595395 111.691941L206.595395 109.515132C206.595395 109.214145 206.570724 108.964145 206.523026 108.765132 206.474507 108.566941 206.404605 108.407401 206.3125 108.288158 206.220395 108.168092 206.103618 108.084211 205.962993 108.036513 205.823191 107.988816 205.657072 107.964145 205.465461 107.964145 205.273849 107.964145 205.10773 107.988816 204.967105 108.036513 204.827303 108.084211 204.710526 108.168092 204.618421 108.288158 204.526316 108.407401 204.455592 108.566941 204.407072 108.765132 204.359375 108.964145 204.335526 109.214145 204.335526 109.515132L204.335526 111.691941zM202.980263 109.360526C202.980263 108.566941 203.192434 107.940296 203.616776 107.482237 204.041118 107.023355 204.657072 106.793914 205.465461 106.793914 206.273026 106.793914 206.88898 107.023355 207.314145 107.482237 207.738487 107.940296 207.950658 108.566941 207.950658 109.360526L207.950658 111.845724C207.950658 112.640132 207.738487 113.266776 207.314145 113.724836 206.88898 114.183717 206.273026 114.413158 205.465461 114.413158 204.657072 114.413158 204.041118 114.183717 203.616776 113.724836 203.192434 113.266776 202.980263 112.640132 202.980263 111.845724L202.980263 109.360526zM210.044901 111.691941C210.044901 111.992928 210.06875 112.242928 210.116447 112.441118 210.164967 112.640132 210.235691 112.798849 210.326974 112.918914 210.419901 113.03898 210.535855 113.122862 210.67648 113.170559 210.817105 113.219079 210.983224 113.242105 211.174836 113.242105 211.366447 113.242105 211.532566 113.219079 211.672368 113.170559 211.812993 113.122862 211.928947 113.03898 212.021875 112.918914 212.11398 112.798849 212.183882 112.640132 212.232401 112.441118 212.280099 112.242928 212.30477 111.992928 212.30477 111.691941L212.30477 109.515132C212.30477 109.214145 212.280099 108.964145 212.232401 108.765132 212.183882 108.566941 212.11398 108.407401 212.021875 108.288158 211.928947 108.168092 211.812993 108.084211 211.672368 108.036513 211.532566 107.988816 211.366447 107.964145 211.174836 107.964145 210.983224 107.964145 210.817105 107.988816 210.67648 108.036513 210.535855 108.084211 210.419901 108.168092 210.326974 108.288158 210.235691 108.407401 210.164967 108.566941 210.116447 108.765132 210.06875 108.964145 210.044901 109.214145 210.044901 109.515132L210.044901 111.691941zM208.689638 109.360526C208.689638 108.566941 208.901809 107.940296 209.326151 107.482237 209.750493 107.023355 210.366447 106.793914 211.174836 106.793914 211.982401 106.793914 212.598355 107.023355 213.02352 107.482237 213.447862 107.940296 213.660033 108.566941 213.660033 109.360526L213.660033 111.845724C213.660033 112.640132 213.447862 113.266776 213.02352 113.724836 212.598355 114.183717 211.982401 114.413158 211.174836 114.413158 210.366447 114.413158 209.750493 114.183717 209.326151 113.724836 208.901809 113.266776 208.689638 112.640132 208.689638 111.845724L208.689638 109.360526zM217.82903 108.919655C217.82903 108.78972 217.805181 108.666365 217.757484 108.549589 217.708964 108.433635 217.643174 108.332484 217.56176 108.246957 217.479523 108.161431 217.380016 108.092352 217.264063 108.041365 217.147286 107.990378 217.020641 107.964885 216.884128 107.964885 216.746793 107.964885 216.62097 107.990378 216.503372 108.041365 216.387418 108.092352 216.287911 108.161431 216.206497 108.246957 216.12426 108.332484 216.059293 108.433635 216.011595 108.549589 215.963076 108.666365 215.939227 108.78972 215.939227 108.919655 215.939227 109.049589 215.963076 109.171299 216.011595 109.283964 216.059293 109.396628 216.125905 109.496135 216.211431 109.581661 216.296957 109.667187 216.397286 109.734622 216.514885 109.782319 216.630839 109.830016 216.753372 109.853865 216.884128 109.853865 217.014063 109.853865 217.137418 109.830016 217.253372 109.782319 217.370148 109.734622 217.470477 109.667187 217.556826 109.581661 217.64153 109.496135 217.708964 109.396628 217.757484 109.283964 217.805181 109.171299 217.82903 109.049589 217.82903 108.919655M218.014062 112.16472C218.014062 111.815214 217.912911 111.538076 217.710609 111.332484 217.509128 111.126891 217.233635 111.024918 216.884128 111.024918 216.534622 111.024918 216.259128 111.126891 216.057648 111.332484 215.855345 111.538076 215.754194 111.815214 215.754194 112.16472 215.754194 112.486266 215.838076 112.746135 216.005839 112.944326 216.173602 113.143339 216.466365 113.242845 216.884128 113.242845 217.301891 113.242845 217.593832 113.143339 217.762418 112.944326 217.929359 112.746135 218.014062 112.486266 218.014062 112.16472M219.369326 112.205839C219.369326 112.575082 219.306003 112.896628 219.178536 113.170477 219.052714 113.445148 218.877549 113.673766 218.65551 113.858799 218.432648 114.043832 218.16949 114.18199 217.865214 114.274918 217.560115 114.367023 217.233635 114.413076 216.884128 114.413076 216.534622 114.413076 216.208141 114.367023 215.903865 114.274918 215.598766 114.18199 215.334786 114.043832 215.111924 113.858799 214.889885 113.673766 214.715543 113.445148 214.588898 113.170477 214.462253 112.896628 214.398931 112.575082 214.398931 112.205839 214.398931 111.788076 214.479523 111.424589 214.639885 111.117023 214.801069 110.809457 215.079852 110.576727 215.477878 110.418832 215.182648 110.268339 214.959786 110.043832 214.810115 109.746135 214.659622 109.448437 214.583964 109.135115 214.583964 108.806168 214.583964 108.464062 214.643174 108.166365 214.764062 107.913076 214.883306 107.659786 215.046135 107.450905 215.250905 107.286431 215.456497 107.12278 215.699918 106.999424 215.980345 106.917187 216.261595 106.834951 216.56176 106.793832 216.884128 106.793832 217.205674 106.793832 217.506661 106.834951 217.787089 106.917187 218.068339 106.999424 218.310938 107.12278 218.51653 107.286431 218.722122 107.450905 218.884128 107.659786 219.005016 107.913076 219.12426 108.166365 219.184293 108.464062 219.184293 108.806168 219.184293 109.135115 219.108635 109.448437 218.958141 109.746135 218.807648 110.043832 218.585609 110.268339 218.291201 110.418832 218.688405 110.576727 218.966365 110.809457 219.127549 111.117023 219.287911 111.424589 219.369326 111.788076 219.369326 112.205839M93.7057566 114.310526L93.7057566 113.109046C94.1983553 112.643586 94.6243421 112.234868 94.9837171 111.882072 95.3430921 111.529276 95.6514803 111.223355 95.9080592 110.962664 96.1646382 110.702796 96.371875 110.476645 96.5297697 110.285033 96.6868421 110.093421 96.8118421 109.922368 96.9039474 109.771875 96.996875 109.621382 97.0585526 109.484046 97.0881579 109.360691 97.1194079 109.237336 97.1350329 109.110691 97.1350329 108.980757 97.1350329 108.67977 97.0527961 108.435526 96.8891447 108.247204 96.7238487 108.058882 96.4779605 107.964309 96.1490132 107.964309 95.8003289 107.964309 95.5363487 108.056414 95.3587171 108.24227 95.1810855 108.42648 95.0914474 108.659211 95.0914474 108.940461L95.0914474 109.206908 93.7361842 109.206908 93.7361842 108.857401C93.7361842 108.584375 93.7896382 108.323684 93.8957237 108.076974 94.0018092 107.831086 94.1539474 107.611513 94.3521382 107.420724 94.5503289 107.228289 94.7921053 107.076151 95.0766447 106.963487 95.3603618 106.850822 95.6835526 106.794079 96.0462171 106.794079 96.4088816 106.794079 96.7402961 106.840132 97.0371711 106.932237 97.3348684 107.025164 97.5922697 107.161678 97.8077303 107.343421 98.0240132 107.524342 98.1909539 107.748849 98.3110197 108.016118 98.4302632 108.282566 98.4911184 108.594243 98.4911184 108.950329 98.4911184 109.382072 98.3809211 109.786678 98.1621711 110.167434 97.9425987 110.547368 97.6745066 110.910033 97.35625 111.255428 97.0371711 111.601645 96.7024671 111.92977 96.3496711 112.241447 95.996875 112.553125 95.6868421 112.852467 95.4203947 113.139474L98.3776316 113.139474 98.3776316 114.310526 93.7057566 114.310526zM100.728701 111.691941C100.728701 111.992928 100.752549 112.242928 100.800247 112.441118 100.848766 112.640132 100.91949 112.798849 101.011595 112.918914 101.103701 113.03898 101.220477 113.122862 101.36028 113.170559 101.500905 113.219079 101.667023 113.242105 101.858635 113.242105 102.050247 113.242105 102.216365 113.219079 102.35699 113.170559 102.496793 113.122862 102.613569 113.03898 102.705674 112.918914 102.79778 112.798849 102.867681 112.640132 102.916201 112.441118 102.963898 112.242928 102.988569 111.992928 102.988569 111.691941L102.988569 109.515132C102.988569 109.214145 102.963898 108.964145 102.916201 108.765132 102.867681 108.566941 102.79778 108.407401 102.705674 108.288158 102.613569 108.168092 102.496793 108.084211 102.35699 108.036513 102.216365 107.988816 102.050247 107.964145 101.858635 107.964145 101.667023 107.964145 101.500905 107.988816 101.36028 108.036513 101.220477 108.084211 101.103701 108.168092 101.011595 108.288158 100.91949 108.407401 100.848766 108.566941 100.800247 108.765132 100.752549 108.964145 100.728701 109.214145 100.728701 109.515132L100.728701 111.691941zM99.3734375 109.360526C99.3734375 108.566941 99.5856086 107.940296 100.009951 107.482237 100.434293 107.023355 101.050247 106.793914 101.858635 106.793914 102.667023 106.793914 103.282155 107.023355 103.707319 107.482237 104.131661 107.940296 104.343832 108.566941 104.343832 109.360526L104.343832 111.845724C104.343832 112.640132 104.131661 113.266776 103.707319 113.724836 103.282155 114.183717 102.667023 114.413158 101.858635 114.413158 101.050247 114.413158 100.434293 114.183717 100.009951 113.724836 99.5856086 113.266776 99.3734375 112.640132 99.3734375 111.845724L99.3734375 109.360526zM106.437993 111.691941C106.437993 111.992928 106.461842 112.242928 106.509539 112.441118 106.558059 112.640132 106.628783 112.798849 106.720066 112.918914 106.812993 113.03898 106.92977 113.122862 107.069572 113.170559 107.210197 113.219079 107.376316 113.242105 107.567928 113.242105 107.759539 113.242105 107.925658 113.219079 108.065461 113.170559 108.206086 113.122862 108.322039 113.03898 108.414967 112.918914 108.507072 112.798849 108.576974 112.640132 108.625493 112.441118 108.673191 112.242928 108.697862 111.992928 108.697862 111.691941L108.697862 109.515132C108.697862 109.214145 108.673191 108.964145 108.625493 108.765132 108.576974 108.566941 108.507072 108.407401 108.414967 108.288158 108.322039 108.168092 108.206086 108.084211 108.065461 108.036513 107.925658 107.988816 107.759539 107.964145 107.567928 107.964145 107.376316 107.964145 107.210197 107.988816 107.069572 108.036513 106.92977 108.084211 106.812993 108.168092 106.720066 108.288158 106.628783 108.407401 106.558059 108.566941 106.509539 108.765132 106.461842 108.964145 106.437993 109.214145 106.437993 109.515132L106.437993 111.691941zM105.08273 109.360526C105.08273 108.566941 105.294901 107.940296 105.719243 107.482237 106.143586 107.023355 106.759539 106.793914 107.567928 106.793914 108.376316 106.793914 108.991447 107.023355 109.416612 107.482237 109.840954 107.940296 110.053125 108.566941 110.053125 109.360526L110.053125 111.845724C110.053125 112.640132 109.840954 113.266776 109.416612 113.724836 108.991447 114.183717 108.376316 114.413158 107.567928 114.413158 106.759539 114.413158 106.143586 114.183717 105.719243 113.724836 105.294901 113.266776 105.08273 112.640132 105.08273 111.845724L105.08273 109.360526z"/>
    <polygon fill="#000000" points="110.731 106.896 115.413 106.896 115.413 107.574 113.411 114.31 111.931 114.31 113.986 108.068 110.731 108.068"/>
    <path fill="#000000" d="M197.343503 62.4625L197.343503 61.2610197C197.836102 60.7955592 198.262089 60.3868421 198.621464 60.0340461 198.980839 59.68125 199.289227 59.3753289 199.545806 59.1146382 199.802385 58.8547697 200.009622 58.6286184 200.167516 58.4370066 200.324589 58.2453947 200.449589 58.0743421 200.541694 57.9238487 200.634622 57.7733553 200.696299 57.6360197 200.725905 57.5126645 200.757155 57.3893092 200.77278 57.2626645 200.77278 57.1327303 200.77278 56.8317434 200.690543 56.5875 200.526891 56.3991776 200.361595 56.2108553 200.115707 56.1162829 199.78676 56.1162829 199.438076 56.1162829 199.174095 56.2083882 198.996464 56.3942434 198.818832 56.5784539 198.729194 56.8111842 198.729194 57.0924342L198.729194 57.3588816 197.373931 57.3588816 197.373931 57.009375C197.373931 56.7363487 197.427385 56.4756579 197.53347 56.2289474 197.639556 55.9830592 197.791694 55.7634868 197.989885 55.5726974 198.188076 55.3802632 198.429852 55.228125 198.714391 55.1154605 198.998109 55.0027961 199.321299 54.9460526 199.683964 54.9460526 200.046628 54.9460526 200.378043 54.9921053 200.67574 55.0842105 200.972615 55.1771382 201.230016 55.3136513 201.445477 55.4953947 201.66176 55.6763158 201.828701 55.9008224 201.948766 56.1680921 202.06801 56.4345395 202.128865 56.7462171 202.128865 57.1023026 202.128865 57.5340461 202.018668 57.9386513 201.799918 58.3194079 201.580345 58.6993421 201.312253 59.0620066 200.993997 59.4074013 200.67574 59.7536184 200.340214 60.0817434 199.987418 60.3934211 199.634622 60.7050987 199.324589 61.0044408 199.058141 61.2914474L202.015378 61.2914474 202.015378 62.4625 197.343503 62.4625zM204.366447 59.8439145C204.366447 60.1449013 204.390296 60.3949013 204.437993 60.5930921 204.486513 60.7921053 204.557237 60.9508224 204.649342 61.0708882 204.741447 61.1909539 204.858224 61.2748355 204.998026 61.3225329 205.138651 61.3710526 205.30477 61.3940789 205.496382 61.3940789 205.687993 61.3940789 205.854112 61.3710526 205.993914 61.3225329 206.134539 61.2748355 206.251316 61.1909539 206.343421 61.0708882 206.435526 60.9508224 206.505428 60.7921053 206.553947 60.5930921 206.601645 60.3949013 206.626316 60.1449013 206.626316 59.8439145L206.626316 57.6671053C206.626316 57.3661184 206.601645 57.1161184 206.553947 56.9171053 206.505428 56.7189145 206.435526 56.559375 206.343421 56.4401316 206.251316 56.3200658 206.134539 56.2361842 205.993914 56.1884868 205.854112 56.1407895 205.687993 56.1161184 205.496382 56.1161184 205.30477 56.1161184 205.138651 56.1407895 204.998026 56.1884868 204.858224 56.2361842 204.741447 56.3200658 204.649342 56.4401316 204.557237 56.559375 204.486513 56.7189145 204.437993 56.9171053 204.390296 57.1161184 204.366447 57.3661184 204.366447 57.6671053L204.366447 59.8439145zM203.011184 57.5125C203.011184 56.7189145 203.223355 56.0922697 203.647697 55.6342105 204.072039 55.1753289 204.687993 54.9458882 205.496382 54.9458882 206.303947 54.9458882 206.919901 55.1753289 207.345066 55.6342105 207.769408 56.0922697 207.981579 56.7189145 207.981579 57.5125L207.981579 59.9976974C207.981579 60.7921053 207.769408 61.41875 207.345066 61.8768092 206.919901 62.3356908 206.303947 62.5651316 205.496382 62.5651316 204.687993 62.5651316 204.072039 62.3356908 203.647697 61.8768092 203.223355 61.41875 203.011184 60.7921053 203.011184 59.9976974L203.011184 57.5125zM210.07574 59.8439145C210.07574 60.1449013 210.099589 60.3949013 210.147286 60.5930921 210.195806 60.7921053 210.26653 60.9508224 210.357813 61.0708882 210.45074 61.1909539 210.566694 61.2748355 210.707319 61.3225329 210.847944 61.3710526 211.014063 61.3940789 211.205674 61.3940789 211.397286 61.3940789 211.563405 61.3710526 211.703207 61.3225329 211.843832 61.2748355 211.959786 61.1909539 212.052714 61.0708882 212.144819 60.9508224 212.21472 60.7921053 212.26324 60.5930921 212.310938 60.3949013 212.335609 60.1449013 212.335609 59.8439145L212.335609 57.6671053C212.335609 57.3661184 212.310938 57.1161184 212.26324 56.9171053 212.21472 56.7189145 212.144819 56.559375 212.052714 56.4401316 211.959786 56.3200658 211.843832 56.2361842 211.703207 56.1884868 211.563405 56.1407895 211.397286 56.1161184 211.205674 56.1161184 211.014063 56.1161184 210.847944 56.1407895 210.707319 56.1884868 210.566694 56.2361842 210.45074 56.3200658 210.357813 56.4401316 210.26653 56.559375 210.195806 56.7189145 210.147286 56.9171053 210.099589 57.1161184 210.07574 57.3661184 210.07574 57.6671053L210.07574 59.8439145zM208.720477 57.5125C208.720477 56.7189145 208.932648 56.0922697 209.35699 55.6342105 209.781332 55.1753289 210.397286 54.9458882 211.205674 54.9458882 212.01324 54.9458882 212.629194 55.1753289 213.054359 55.6342105 213.478701 56.0922697 213.690872 56.7189145 213.690872 57.5125L213.690872 59.9976974C213.690872 60.7921053 213.478701 61.41875 213.054359 61.8768092 212.629194 62.3356908 212.01324 62.5651316 211.205674 62.5651316 210.397286 62.5651316 209.781332 62.3356908 209.35699 61.8768092 208.932648 61.41875 208.720477 60.7921053 208.720477 59.9976974L208.720477 57.5125zM215.784951 59.8439145C215.784951 60.1449013 215.809622 60.3949013 215.856497 60.5930921 215.905016 60.7921053 215.97574 60.9508224 216.067845 61.0708882 216.159951 61.1909539 216.276727 61.2748355 216.41653 61.3225329 216.557155 61.3710526 216.723273 61.3940789 216.914885 61.3940789 217.27097 61.3940789 217.537418 61.2748355 217.715872 61.0355263 217.893503 60.7953947 217.983141 60.4598684 217.983141 60.0289474 217.983141 59.6177632 217.883635 59.3151316 217.685444 59.1202303 217.486431 58.9253289 217.229852 58.8274671 216.914885 58.8274671 216.696135 58.8274671 216.497122 58.8891447 216.318668 59.0116776 216.141036 59.1350329 215.963405 59.2756579 215.784951 59.4335526L215.784951 59.8439145zM217.849095 56.9894737C217.835938 56.7361842 217.73972 56.5273026 217.561266 56.3628289 217.383635 56.1983553 217.168174 56.1161184 216.914885 56.1161184 216.723273 56.1161184 216.557155 56.1407895 216.41653 56.1884868 216.276727 56.2361842 216.159951 56.3200658 216.067845 56.4401316 215.97574 56.559375 215.905016 56.7189145 215.856497 56.9171053 215.809622 57.1161184 215.784951 57.3661184 215.784951 57.6671053L215.784951 58.3554276C216.018503 58.1769737 216.267681 58.0371711 216.534128 57.934375 216.80222 57.8315789 217.082648 57.7797697 217.377056 57.7797697 217.698602 57.7797697 217.983141 57.8381579 218.22903 57.9541118 218.47574 58.0708882 218.681332 58.2304276 218.844984 58.4319079 219.01028 58.6342105 219.132812 58.8685855 219.215049 59.1350329 219.297286 59.4023026 219.338405 59.6827303 219.338405 59.9779605 219.338405 60.3603618 219.290707 60.7098684 219.19449 61.0248355 219.098273 61.3398026 218.952714 61.6120066 218.758635 61.8414474 218.562911 62.0708882 218.311266 62.2485197 218.003701 62.3751645 217.695313 62.5018092 217.332648 62.5651316 216.914885 62.5651316 216.106497 62.5651316 215.490543 62.3356908 215.066201 61.8768092 214.641859 61.41875 214.429688 60.7921053 214.429688 59.9976974L214.429688 57.5125C214.429688 56.7189145 214.641859 56.0922697 215.066201 55.6342105 215.490543 55.1753289 216.106497 54.9458882 216.914885 54.9458882 217.557977 54.9458882 218.087582 55.1185855 218.502056 55.4639803 218.915707 55.8101974 219.150082 56.3184211 219.204359 56.9894737L217.849095 56.9894737zM93.5620066 62.4625L93.5620066 61.2610197C94.0546053 60.7955592 94.4805921 60.3868421 94.8399671 60.0340461 95.1993421 59.68125 95.5077303 59.3753289 95.7643092 59.1146382 96.0208882 58.8547697 96.228125 58.6286184 96.3860197 58.4370066 96.5430921 58.2453947 96.6680921 58.0743421 96.7601974 57.9238487 96.853125 57.7733553 96.9148026 57.6360197 96.9444079 57.5126645 96.9756579 57.3893092 96.9912829 57.2626645 96.9912829 57.1327303 96.9912829 56.8317434 96.9090461 56.5875 96.7453947 56.3991776 96.5800987 56.2108553 96.3342105 56.1162829 96.0052632 56.1162829 95.6565789 56.1162829 95.3925987 56.2083882 95.2149671 56.3942434 95.0373355 56.5784539 94.9476974 56.8111842 94.9476974 57.0924342L94.9476974 57.3588816 93.5924342 57.3588816 93.5924342 57.009375C93.5924342 56.7363487 93.6458882 56.4756579 93.7519737 56.2289474 93.8580592 55.9830592 94.0101974 55.7634868 94.2083882 55.5726974 94.4065789 55.3802632 94.6483553 55.228125 94.9328947 55.1154605 95.2166118 55.0027961 95.5398026 54.9460526 95.9024671 54.9460526 96.2651316 54.9460526 96.5965461 54.9921053 96.8934211 55.0842105 97.1911184 55.1771382 97.4485197 55.3136513 97.6639803 55.4953947 97.8802632 55.6763158 98.0472039 55.9008224 98.1672697 56.1680921 98.2865132 56.4345395 98.3473684 56.7462171 98.3473684 57.1023026 98.3473684 57.5340461 98.2371711 57.9386513 98.0184211 58.3194079 97.7988487 58.6993421 97.5307566 59.0620066 97.2125 59.4074013 96.8934211 59.7536184 96.5587171 60.0817434 96.2059211 60.3934211 95.853125 60.7050987 95.5430921 61.0044408 95.2766447 61.2914474L98.2338816 61.2914474 98.2338816 62.4625 93.5620066 62.4625zM100.584951 59.8439145C100.584951 60.1449013 100.608799 60.3949013 100.656497 60.5930921 100.705016 60.7921053 100.77574 60.9508224 100.867023 61.0708882 100.959951 61.1909539 101.075905 61.2748355 101.21653 61.3225329 101.357155 61.3710526 101.523273 61.3940789 101.714885 61.3940789 101.906497 61.3940789 102.072615 61.3710526 102.212418 61.3225329 102.353043 61.2748355 102.468997 61.1909539 102.561924 61.0708882 102.65403 60.9508224 102.723931 60.7921053 102.772451 60.5930921 102.820148 60.3949013 102.844819 60.1449013 102.844819 59.8439145L102.844819 57.6671053C102.844819 57.3661184 102.820148 57.1161184 102.772451 56.9171053 102.723931 56.7189145 102.65403 56.559375 102.561924 56.4401316 102.468997 56.3200658 102.353043 56.2361842 102.212418 56.1884868 102.072615 56.1407895 101.906497 56.1161184 101.714885 56.1161184 101.523273 56.1161184 101.357155 56.1407895 101.21653 56.1884868 101.075905 56.2361842 100.959951 56.3200658 100.867023 56.4401316 100.77574 56.559375 100.705016 56.7189145 100.656497 56.9171053 100.608799 57.1161184 100.584951 57.3661184 100.584951 57.6671053L100.584951 59.8439145zM99.2296875 57.5125C99.2296875 56.7189145 99.4418586 56.0922697 99.8662007 55.6342105 100.290543 55.1753289 100.906497 54.9458882 101.714885 54.9458882 102.523273 54.9458882 103.138405 55.1753289 103.563569 55.6342105 103.987911 56.0922697 104.200082 56.7189145 104.200082 57.5125L104.200082 59.9976974C104.200082 60.7921053 103.987911 61.41875 103.563569 61.8768092 103.138405 62.3356908 102.523273 62.5651316 101.714885 62.5651316 100.906497 62.5651316 100.290543 62.3356908 99.8662007 61.8768092 99.4418586 61.41875 99.2296875 60.7921053 99.2296875 59.9976974L99.2296875 57.5125zM106.294243 59.8439145C106.294243 60.1449013 106.318092 60.3949013 106.365789 60.5930921 106.414309 60.7921053 106.485033 60.9508224 106.577138 61.0708882 106.669243 61.1909539 106.78602 61.2748355 106.925822 61.3225329 107.066447 61.3710526 107.232566 61.3940789 107.424178 61.3940789 107.615789 61.3940789 107.781908 61.3710526 107.921711 61.3225329 108.062336 61.2748355 108.179112 61.1909539 108.271217 61.0708882 108.363322 60.9508224 108.433224 60.7921053 108.481743 60.5930921 108.529441 60.3949013 108.554112 60.1449013 108.554112 59.8439145L108.554112 57.6671053C108.554112 57.3661184 108.529441 57.1161184 108.481743 56.9171053 108.433224 56.7189145 108.363322 56.559375 108.271217 56.4401316 108.179112 56.3200658 108.062336 56.2361842 107.921711 56.1884868 107.781908 56.1407895 107.615789 56.1161184 107.424178 56.1161184 107.232566 56.1161184 107.066447 56.1407895 106.925822 56.1884868 106.78602 56.2361842 106.669243 56.3200658 106.577138 56.4401316 106.485033 56.559375 106.414309 56.7189145 106.365789 56.9171053 106.318092 57.1161184 106.294243 57.3661184 106.294243 57.6671053L106.294243 59.8439145zM104.93898 57.5125C104.93898 56.7189145 105.151151 56.0922697 105.575493 55.6342105 105.999836 55.1753289 106.615789 54.9458882 107.424178 54.9458882 108.232566 54.9458882 108.847697 55.1753289 109.272862 55.6342105 109.697204 56.0922697 109.909375 56.7189145 109.909375 57.5125L109.909375 59.9976974C109.909375 60.7921053 109.697204 61.41875 109.272862 61.8768092 108.847697 62.3356908 108.232566 62.5651316 107.424178 62.5651316 106.615789 62.5651316 105.999836 62.3356908 105.575493 61.8768092 105.151151 61.41875 104.93898 60.7921053 104.93898 59.9976974L104.93898 57.5125zM111.993503 60.3370066C111.980345 60.6856908 112.068339 60.9496711 112.260773 61.1273026 112.452385 61.3057566 112.715543 61.3945724 113.051069 61.3945724 113.489391 61.3945724 113.790378 61.2555921 113.954852 60.9784539 114.119326 60.7013158 114.201563 60.3024671 114.201563 59.7827303 114.201563 59.3238487 114.119326 58.9710526 113.954852 58.7243421 113.790378 58.4784539 113.51324 58.3550987 113.123438 58.3550987 112.889885 58.3550987 112.682648 58.4060855 112.501727 58.5088816 112.319984 58.6116776 112.164556 58.7523026 112.034622 58.9299342L110.915378 58.9299342 110.915378 55.0483553 115.197451 55.0483553 115.197451 56.2194079 112.086431 56.2194079 112.086431 57.7597039C112.284622 57.6223684 112.490214 57.5129934 112.702385 57.4307566 112.914556 57.3485197 113.157977 57.3074013 113.431003 57.3074013 113.828207 57.3074013 114.162089 57.3674342 114.431826 57.4875 114.702385 57.6075658 114.921957 57.7745066 115.08972 57.9907895 115.257484 58.20625 115.377549 58.4694079 115.449095 58.7810855 115.520641 59.0927632 115.556826 59.4373355 115.556826 59.8131579 115.556826 60.2449013 115.510773 60.6297697 115.417845 60.9685855 115.32574 61.3074013 115.180181 61.5944079 114.98199 61.83125 114.782977 62.0672697 114.526398 62.2481908 114.211431 62.3748355 113.896464 62.5014803 113.51653 62.565625 113.071628 62.565625 112.606168 62.565625 112.218832 62.5014803 111.911266 62.3748355 111.602878 62.2481908 111.353701 62.08125 111.162089 61.8723684 110.969655 61.6634868 110.834786 61.4258224 110.755839 61.1585526 110.677714 60.8912829 110.63824 60.6174342 110.63824 60.3370066L111.993503 60.3370066zM217.788076 85.7098684L189.125247 85.7098684C188.652385 85.7098684 188.269161 85.3274671 188.269161 84.8537829L188.269161 75.3175987 167.837418 75.3175987C167.364556 75.3175987 166.981332 74.934375 166.981332 74.4615132L166.981332 58.8907895 138.783141 58.8907895C138.31028 58.8907895 137.927056 58.5083882 137.927056 58.0347039 137.927056 57.5618421 138.31028 57.1794408 138.783141 57.1794408L167.837418 57.1794408C168.31028 57.1794408 168.692681 57.5618421 168.692681 58.0347039L168.692681 73.60625 189.125247 73.60625C189.597286 73.60625 189.98051 73.9886513 189.98051 74.4615132L189.98051 83.9985197 217.788076 83.9985197C218.260937 83.9985197 218.644161 84.3809211 218.644161 84.8537829 218.644161 85.3274671 218.260937 85.7098684 217.788076 85.7098684"/>
    <path fill="#000000" d="M188.885609 85.7098684L151.661924 85.7098684C151.189062 85.7098684 150.805839 85.3274671 150.805839 84.8537829L150.805839 70.2978618 139.638898 70.2978618 139.638898 84.8537829C139.638898 85.3274671 139.255674 85.7098684 138.782812 85.7098684 138.309951 85.7098684 137.926727 85.3274671 137.926727 84.8537829L137.926727 69.4417763C137.926727 68.9689145 138.309951 68.5865132 138.782812 68.5865132L151.661924 68.5865132C152.133964 68.5865132 152.517187 68.9689145 152.517187 69.4417763L152.517187 83.9985197 188.885609 83.9985197C189.35847 83.9985197 189.741694 84.3809211 189.741694 84.8537829 189.741694 85.3274671 189.35847 85.7098684 188.885609 85.7098684M217.788076 137.557895L189.125247 137.557895C188.652385 137.557895 188.269161 137.175493 188.269161 136.701809L188.269161 127.165625 167.837418 127.165625C167.364556 127.165625 166.981332 126.783224 166.981332 126.309539L166.981332 110.738816 138.783141 110.738816C138.31028 110.738816 137.927056 110.356414 137.927056 109.88273 137.927056 109.409868 138.31028 109.027467 138.783141 109.027467L167.837418 109.027467C168.31028 109.027467 168.692681 109.409868 168.692681 109.88273L168.692681 125.454276 189.125247 125.454276C189.597286 125.454276 189.98051 125.836678 189.98051 126.309539L189.98051 135.846546 217.788076 135.846546C218.260937 135.846546 218.644161 136.228947 218.644161 136.701809 218.644161 137.175493 218.260937 137.557895 217.788076 137.557895"/>
    <path fill="#000000" d="M188.885609,137.557895 L151.661924,137.557895 C151.189062,137.557895 150.805839,137.175493 150.805839,136.701809 L150.805839,122.145888 L139.638898,122.145888 L139.638898,136.701809 C139.638898,137.175493 139.255674,137.557895 138.782812,137.557895 C138.309951,137.557895 137.926727,137.175493 137.926727,136.701809 L137.926727,121.289803 C137.926727,120.816941 138.309951,120.434539 138.782812,120.434539 L151.661924,120.434539 C152.133964,120.434539 152.517187,120.816941 152.517187,121.289803 L152.517187,135.846546 L188.885609,135.846546 C189.35847,135.846546 189.741694,136.228947 189.741694,136.701809 C189.741694,137.175493 189.35847,137.557895 188.885609,137.557895"/>
    <path fill="#000000" d="M189.125082,127.165543 C188.65222,127.165543 188.268997,126.783141 188.268997,126.309457 L188.268997,116.022451 L159.602056,116.022451 L159.602056,121.28972 C159.602056,121.762582 159.218832,122.145806 158.746793,122.145806 L151.662089,122.145806 C151.189227,122.145806 150.806003,121.762582 150.806003,121.28972 C150.806003,120.816859 151.189227,120.434457 151.662089,120.434457 L157.890707,120.434457 L157.890707,115.167188 C157.890707,114.694326 158.273931,114.311102 158.746793,114.311102 L189.125082,114.311102 C189.597944,114.311102 189.981168,114.694326 189.981168,115.167188 L189.981168,126.309457 C189.981168,126.783141 189.597944,127.165543 189.125082,127.165543"/>
    <path fill="#FF9C00" d="M124.920477,166.204359 C122.808635,166.204359 121.090707,164.486431 121.090707,162.374589 C121.090707,160.263569 122.808635,158.544819 124.920477,158.544819 C127.032319,158.544819 128.750247,160.263569 128.750247,162.374589 C128.750247,164.486431 127.032319,166.204359 124.920477,166.204359"/>
    <path fill="#000000" d="M124.920477,159.593668 C123.38676,159.593668 122.139227,160.841201 122.139227,162.374918 C122.139227,163.907813 123.38676,165.156168 124.920477,165.156168 C126.454194,165.156168 127.701727,163.907813 127.701727,162.374918 C127.701727,160.841201 126.454194,159.593668 124.920477,159.593668 M124.920477,166.867516 C122.443503,166.867516 120.427878,164.851891 120.427878,162.374918 C120.427878,159.897944 122.443503,157.882319 124.920477,157.882319 C127.397451,157.882319 129.413076,159.897944 129.413076,162.374918 C129.413076,164.851891 127.397451,166.867516 124.920477,166.867516"/>
    <path fill="#000000" d="M119.103618,91.6594572 L110.828125,82.7564967 C110.363487,82.254852 109.728618,81.9653783 109.041941,81.9398849 C108.356086,81.926727 107.70148,82.1569901 107.200658,82.623273 L65.5674342,121.314885 L53.6422697,108.484293 C53.1776316,107.982648 52.5435855,107.693174 51.8569079,107.667681 C51.171875,107.648766 50.5164474,107.884786 50.0148026,108.351069 L41.1118421,116.62574 C40.6101974,117.091201 40.3199013,117.726069 40.2952303,118.412747 C40.2697368,119.099424 40.5131579,119.753207 40.9786184,120.25403 L54.6513158,134.965378 L62.9259868,143.869161 C63.0476974,144.00074 63.1817434,144.114227 63.3223684,144.214556 C63.3708882,144.249095 63.4251645,144.272944 63.4761513,144.304194 C63.5723684,144.362582 63.6685855,144.421793 63.7697368,144.467023 C63.8371711,144.496628 63.9087171,144.51472 63.9786184,144.538569 C64.0690789,144.568997 64.1587171,144.602714 64.2508224,144.623273 C64.3355263,144.641365 64.4235197,144.647944 64.5106908,144.657812 C64.6060855,144.668503 64.7006579,144.685773 64.7960526,144.686595 L64.8092105,144.686595 C64.9695724,144.686595 65.1274671,144.67097 65.2820724,144.64301 C65.3618421,144.628207 65.4391447,144.599424 65.5180921,144.576398 C65.5904605,144.555839 65.6652961,144.541036 65.7360197,144.513898 C65.8347039,144.475247 65.9276316,144.422615 66.0213816,144.371628 C66.0690789,144.346135 66.1192434,144.328043 66.1652961,144.29926 C66.3009868,144.213734 66.4317434,144.115049 66.5534539,144.001562 L75.4588816,135.725247 L118.970395,95.2877467 C120.006579,94.3239309 120.067434,92.6964638 119.103618,91.6594572" opacity=".2"/>
    <polygon fill="#FFFFFF" points="40.22 113.35 50.166 104.141 51.179 104.141 64.533 118.231 107.061 78.722 108.74 78.722 117.706 88.484 117.706 90.51 84.979 120.35 64.625 139.322 62.692 139.322 40.22 115.377"/>
    <path fill="#000000" d="M116.949507,89.7553454 L75.2019737,128.553865 L73.4371711,130.19449 L73.4363487,130.195312 L64.5325658,138.469984 C64.365625,138.624589 64.1476974,138.704359 63.9190789,138.696135 C63.6888158,138.687089 63.4774671,138.591694 63.3228618,138.425576 L55.0481908,129.521793 L55.0481908,129.521793 L53.4083882,127.75699 L41.3763158,114.810444 C41.2217105,114.644326 41.1411184,114.425576 41.1493421,114.196135 C41.1575658,113.966694 41.2537829,113.755345 41.4199013,113.60074 L50.3236842,105.326069 C50.4898026,105.171464 50.6879934,105.089227 50.9379934,105.099918 C51.1666118,105.108141 51.3779605,105.204359 51.5325658,105.370477 L63.4577303,118.201069 L64.6230263,119.455181 L65.8763158,118.289885 L107.508717,79.5974507 C107.674013,79.4428454 107.879605,79.3622533 108.123026,79.3721217 C108.352467,79.3803454 108.563816,79.4765625 108.718421,79.6418586 L116.993914,88.5456414 C117.314638,88.8910362 117.294901,89.4337993 116.949507,89.7553454 M118.247204,87.3811678 L109.971711,78.4773849 C109.507072,77.9765625 108.872204,77.6862664 108.185526,77.660773 C107.499671,77.6484375 106.845066,77.8787007 106.344243,78.3441612 L64.7118421,117.036595 L52.7858553,104.206003 C52.3212171,103.704359 51.6871711,103.414885 51.0004934,103.389391 C50.3162829,103.369655 49.6600329,103.606497 49.1583882,104.07278 L40.2554276,112.346628 C39.7537829,112.812911 39.4643092,113.446957 39.4388158,114.133635 C39.4141447,114.821135 39.6567434,115.474918 40.1222039,115.974918 L53.7949013,130.686266 L62.0695724,139.590049 C62.1912829,139.721628 62.3253289,139.835937 62.4659539,139.936266 C62.5144737,139.969984 62.56875,139.994655 62.6197368,140.025082 C62.7159539,140.08347 62.8121711,140.143503 62.9141447,140.187911 C62.9807566,140.217516 63.053125,140.236431 63.1222039,140.259457 C63.2126645,140.290707 63.3023026,140.323602 63.3944079,140.344161 C63.4791118,140.363076 63.5671053,140.368832 63.6542763,140.379523 C63.7496711,140.390214 63.8442434,140.407484 63.9404605,140.407484 C63.9445724,140.407484 63.9486842,140.408306 63.9527961,140.408306 C64.1131579,140.408306 64.271875,140.392681 64.4256579,140.363898 C64.50625,140.349095 64.5827303,140.320312 64.6616776,140.298109 C64.7340461,140.276727 64.8097039,140.262747 64.8796053,140.234786 C64.9782895,140.196957 65.0712171,140.143503 65.1649671,140.093339 C65.2126645,140.067845 65.2628289,140.048931 65.3088816,140.02097 C65.4445724,139.935444 65.5753289,139.83676 65.6970395,139.723273 L74.6024671,131.446957 L118.114803,91.0086349 C119.150987,90.0456414 119.21102,88.4181743 118.247204,87.3811678"/>
    <path fill="#000000" d="M64.4370066 126.20403C61.8440789 126.20403 60.5348684 124.288734 60.4805921 124.207319 60.2840461 123.912911 60.3629934 123.514063 60.6574013 123.316694 60.9509868 123.121793 61.3490132 123.199095 61.5463816 123.491859 61.5916118 123.557648 62.5521382 124.920313 64.4370066 124.920313 66.2988487 124.920313 67.2922697 123.542845 67.3333882 123.483635 67.5381579 123.194984 67.9370066 123.12426 68.2256579 123.32574 68.5151316 123.52722 68.5883224 123.924424 68.3884868 124.215543 68.3325658 124.296135 66.9879934 126.20403 64.4370066 126.20403M57.4175164 120.094161C57.4175164 120.803043 56.8426809 121.377878 56.1337993 121.377878 55.4249178 121.377878 54.8500822 120.803043 54.8500822 120.094161 54.8500822 119.38528 55.4249178 118.810444 56.1337993 118.810444 56.8426809 118.810444 57.4175164 119.38528 57.4175164 120.094161"/>
    <path fill="#FF966A" d="M57.5169408 123.132484C57.5169408 123.416201 56.5144737 123.646464 55.2784539 123.646464 54.0416118 123.646464 53.0391447 123.416201 53.0391447 123.132484 53.0391447 122.848766 54.0416118 122.618503 55.2784539 122.618503 56.5144737 122.618503 57.5169408 122.848766 57.5169408 123.132484M75.8342105 123.132484C75.8342105 123.416201 74.8317434 123.646464 73.5957237 123.646464 72.3588816 123.646464 71.3564145 123.416201 71.3564145 123.132484 71.3564145 122.848766 72.3588816 122.618503 73.5957237 122.618503 74.8317434 122.618503 75.8342105 122.848766 75.8342105 123.132484"/>
    <path fill="#000000" d="M74.4737664,120.924013 C74.3643914,120.924013 74.2541941,120.896053 74.1522204,120.836842 C74.1522204,120.836842 73.6168586,120.548191 72.7180099,120.548191 C71.8380757,120.548191 71.2731086,120.842599 71.2681743,120.845888 C70.954852,121.012829 70.5675164,120.896875 70.3997533,120.586842 C70.2319901,120.277632 70.3421875,119.891941 70.6505757,119.720888 C70.7352796,119.674013 71.5091283,119.264474 72.7180099,119.264474 C73.963898,119.264474 74.7155428,119.67977 74.7969572,119.727467 C75.1028783,119.905099 75.2073191,120.298191 75.0296875,120.604934 C74.9104441,120.809704 74.6949836,120.924013 74.4737664,120.924013"/>
  </g>
</svg>
