<?xml version="1.0" encoding="UTF-8" standalone="no"?>
<svg width="254px" height="254px" viewBox="0 0 254 254" version="1.1" xmlns="http://www.w3.org/2000/svg" xmlns:xlink="http://www.w3.org/1999/xlink">
    <!-- Generator: Sketch 39.1 (31720) - http://www.bohemiancoding.com/sketch -->
    <title>Page 1</title>
    <desc>Created with Sketch.</desc>
    <defs></defs>
    <g id="DESIGN" stroke="none" stroke-width="1" fill="none" fill-rule="evenodd">
        <g id="Logging_Roads_1_home_revised" transform="translate(-971.000000, -1171.000000)">
            <g id="Group-15" transform="translate(906.000000, 1173.000000)">
                <g id="Page-1" transform="translate(67.000000, 0.000000)">
                    <path d="M249.588816,124.794408 C249.588816,193.716283 193.716283,249.588816 124.794408,249.588816 C55.8725329,249.588816 0,193.716283 0,124.794408 C0,55.8725329 55.8725329,0 124.794408,0 C193.716283,0 249.588816,55.8725329 249.588816,124.794408 L249.588816,124.794408 Z" id="Fill-1" fill="#E7E4E2"></path>
                    <path d="M249.588816,124.794408 C249.588816,193.716283 193.716283,249.588816 124.794408,249.588816 C55.8725329,249.588816 0,193.716283 0,124.794408 C0,55.8725329 55.8725329,0 124.794408,0 C193.716283,0 249.588816,55.8725329 249.588816,124.794408 L249.588816,124.794408 Z" id="Stroke-3" stroke="#D6D6D6" stroke-width="4"></path>
                    <path d="M203.839227,197.912171 C203.839227,199.2625 168.898438,200.357072 125.796464,200.357072 C82.6944901,200.357072 47.7537007,199.2625 47.7537007,197.912171 C47.7537007,196.561842 82.6944901,195.46727 125.796464,195.46727 C168.898438,195.46727 203.839227,196.561842 203.839227,197.912171" id="Fill-5" fill="#000000" opacity="0.2"></path>
                    <polygon id="Fill-7" fill="#FF5D33" points="23.4629934 149.396382 225.698191 149.396382 225.698191 45.5690789 23.4629934 45.5690789"></polygon>
                    <polygon id="Fill-9" fill="#FFC22F" points="104.16176 175.078372 104.16176 195.74449 145.382977 195.714885 145.512089 175.545477"></polygon>
                    <polygon id="Fill-10" fill="#000000" opacity="0.2" points="104.16176 189.618668 104.16176 195.745312 145.382977 195.736266 145.512089 181.058635"></polygon>
                    <polygon id="Fill-11" fill="#FFD234" points="24.1300164 149.12648 24.1300164 175.267928 224.923602 175.230099 225.552714 149.717763"></polygon>
                    <polygon id="Fill-12" fill="#000000" opacity="0.2" points="24.1300164 170.599671 24.1300164 174.742763 224.923602 174.737007 225.552714 170.599671"></polygon>
                    <path d="M124.509211,166.20403 C122.397368,166.20403 120.679441,164.486102 120.679441,162.37426 C120.679441,160.26324 122.397368,158.54449 124.509211,158.54449 C126.621053,158.54449 128.33898,160.26324 128.33898,162.37426 C128.33898,164.486102 126.621053,166.20403 124.509211,166.20403" id="Fill-13" fill="#FF9C00"></path>
                    <polygon id="Fill-14" fill="#FFD234" points="24.795477 35.1205592 23.6803454 45.6748355 225.915543 45.6748355 225.076727 35.1205592"></polygon>
                    <path d="M222.489474,174.428125 L145.477961,174.428125 L104.117763,174.428125 L27.0996711,174.428125 C25.6835526,174.428125 24.5322368,173.276809 24.5322368,171.860691 L24.5322368,149.966776 L225.056908,149.966776 L225.056908,171.860691 C225.056908,173.276809 223.90477,174.428125 222.489474,174.428125 L222.489474,174.428125 Z M104.973026,194.683882 L144.621875,194.683882 L144.621875,176.139474 L104.973026,176.139474 L104.973026,194.683882 Z M24.5322368,148.255428 L225.056908,148.255428 L225.056908,46.4248355 L24.5322368,46.4248355 L24.5322368,148.255428 Z M27.0996711,36.0819079 L222.489474,36.0819079 C223.90477,36.0819079 225.056908,37.2340461 225.056908,38.6493421 L225.056908,44.7126645 L24.5322368,44.7126645 L24.5322368,38.6493421 C24.5322368,37.2340461 25.6835526,36.0819079 27.0996711,36.0819079 L27.0996711,36.0819079 Z M222.489474,34.3705592 L27.0996711,34.3705592 C24.7402961,34.3705592 22.8208882,36.2899671 22.8208882,38.6493421 L22.8208882,171.860691 C22.8208882,174.220066 24.7402961,176.139474 27.0996711,176.139474 L103.261678,176.139474 L103.261678,194.683882 L95.5536184,194.683882 C95.0807566,194.683882 94.6975329,195.066283 94.6975329,195.539145 C94.6975329,196.012829 95.0807566,196.39523 95.5536184,196.39523 L154.035526,196.39523 C154.508388,196.39523 154.890789,196.012829 154.890789,195.539145 C154.890789,195.066283 154.508388,194.683882 154.035526,194.683882 L146.334046,194.683882 L146.334046,176.139474 L222.489474,176.139474 C224.848849,176.139474 226.768257,174.220066 226.768257,171.860691 L226.768257,38.6493421 C226.768257,36.2899671 224.848849,34.3705592 222.489474,34.3705592 L222.489474,34.3705592 Z" id="Fill-15" fill="#000000"></path>
                    <path d="M124.509457,159.593339 C122.97574,159.593339 121.728207,160.840872 121.728207,162.374589 C121.728207,163.907484 122.97574,165.155839 124.509457,165.155839 C126.043174,165.155839 127.290707,163.907484 127.290707,162.374589 C127.290707,160.840872 126.043174,159.593339 124.509457,159.593339 M124.509457,166.867188 C122.032484,166.867188 120.016859,164.851563 120.016859,162.374589 C120.016859,159.897615 122.032484,157.88199 124.509457,157.88199 C126.986431,157.88199 129.002056,159.897615 129.002056,162.374589 C129.002056,164.851563 126.986431,166.867188 124.509457,166.867188" id="Fill-16" fill="#000000"></path>
                    <path d="M192.039556,146.681497 C191.566694,146.681497 191.18347,146.299095 191.18347,145.825411 L191.18347,142.265378 L64.823273,142.265378 L64.823273,145.697122 C64.823273,146.169984 64.4400493,146.553207 63.9671875,146.553207 C63.4943257,146.553207 63.111102,146.169984 63.111102,145.697122 L63.111102,142.265378 L59.6818257,142.265378 C59.2089638,142.265378 58.8265625,141.882155 58.8265625,141.409293 C58.8265625,140.936431 59.2089638,140.553207 59.6818257,140.553207 L63.111102,140.553207 L63.111102,60.9717928 L59.4244243,60.9717928 C58.9515625,60.9717928 58.5691612,60.5885691 58.5691612,60.1157072 C58.5691612,59.6428454 58.9515625,59.2604441 59.4244243,59.2604441 L63.111102,59.2604441 L63.111102,55.3443257 C63.111102,54.8714638 63.4943257,54.4882401 63.9671875,54.4882401 C64.4400493,54.4882401 64.823273,54.8714638 64.823273,55.3443257 L64.823273,59.2604441 L191.18347,59.2604441 L191.18347,55.601727 C191.18347,55.1288651 191.566694,54.7456414 192.039556,54.7456414 C192.512418,54.7456414 192.895641,55.1288651 192.895641,55.601727 L192.895641,59.2604441 L196.836431,59.2604441 C197.309293,59.2604441 197.691694,59.6428454 197.691694,60.1157072 C197.691694,60.5885691 197.309293,60.9717928 196.836431,60.9717928 L192.895641,60.9717928 L192.895641,140.553207 L196.838898,140.553207 C197.31176,140.553207 197.694161,140.936431 197.694161,141.409293 C197.694161,141.882155 197.31176,142.265378 196.838898,142.265378 L192.895641,142.265378 L192.895641,145.825411 C192.895641,146.299095 192.512418,146.681497 192.039556,146.681497" id="Fill-17" fill="#000000" opacity="0.2"></path>
                    <polygon id="Fill-18" fill="#FFB253" points="60.3898026 137.666941 188.581414 137.666941 188.581414 56.9893092 60.3898026 56.9893092"></polygon>
                    <path d="M62.2557566,137.130674 L186.905428,137.130674 C187.377467,137.130674 187.760691,136.747451 187.760691,136.274589 L187.760691,58.404523 C187.760691,57.9324836 187.377467,57.5484375 186.905428,57.5484375 L62.2557566,57.5484375 C61.7837171,57.5484375 61.3996711,57.9324836 61.3996711,58.404523 L61.3996711,136.274589 C61.3996711,136.747451 61.7837171,137.130674 62.2557566,137.130674 M188.616776,143.258964 C188.143914,143.258964 187.760691,142.87574 187.760691,142.402878 L187.760691,138.842023 L61.3996711,138.842023 L61.3996711,142.274589 C61.3996711,142.747451 61.0172697,143.129852 60.5444079,143.129852 C60.0715461,143.129852 59.6883224,142.747451 59.6883224,142.274589 L59.6883224,138.842023 L56.2590461,138.842023 C55.7861842,138.842023 55.4029605,138.459622 55.4029605,137.98676 C55.4029605,137.513076 55.7861842,137.130674 56.2590461,137.130674 L59.6883224,137.130674 L59.6883224,57.5484375 L56.0016447,57.5484375 C55.5287829,57.5484375 55.1455592,57.1660362 55.1455592,56.6931743 C55.1455592,56.2203125 55.5287829,55.8370888 56.0016447,55.8370888 L59.6883224,55.8370888 L59.6883224,51.9209704 C59.6883224,51.4481086 60.0715461,51.0657072 60.5444079,51.0657072 C61.0172697,51.0657072 61.3996711,51.4481086 61.3996711,51.9209704 L61.3996711,55.8370888 L187.760691,55.8370888 L187.760691,52.1783717 C187.760691,51.7055099 188.143914,51.3231086 188.616776,51.3231086 C189.089638,51.3231086 189.472039,51.7055099 189.472039,52.1783717 L189.472039,55.8370888 L193.413651,55.8370888 C193.886513,55.8370888 194.268914,56.2203125 194.268914,56.6931743 C194.268914,57.1660362 193.886513,57.5484375 193.413651,57.5484375 L189.472039,57.5484375 L189.472039,137.130674 L193.416118,137.130674 C193.88898,137.130674 194.271382,137.513076 194.271382,137.98676 C194.271382,138.459622 193.88898,138.842023 193.416118,138.842023 L189.472039,138.842023 L189.472039,142.402878 C189.472039,142.87574 189.089638,143.258964 188.616776,143.258964" id="Fill-19" fill="#000000"></path>
                    <path d="M163.488569,74.2291118 C164.46472,75.8680921 163.927714,77.9881579 162.288734,78.9651316 C160.649753,79.9412829 158.528865,79.4042763 157.552714,77.7652961 C156.576563,76.1254934 157.113569,74.0054276 158.752549,73.0292763 C160.39153,72.053125 162.512418,72.5901316 163.488569,74.2291118" id="Fill-20" fill="#FF6513"></path>
                    <path d="M131.826891,96.4778783 C132.803043,98.1168586 132.266036,100.236924 130.627056,101.213898 C128.988076,102.190049 126.867188,101.653043 125.891036,100.014063 C124.914885,98.3742599 125.451891,96.2541941 127.090872,95.2780428 C128.729852,94.3018914 130.85074,94.838898 131.826891,96.4778783" id="Fill-21" fill="#FF6513"></path>
                    <path d="M97.5981086,81.0748355 C98.5742599,82.7138158 98.0372533,84.8338816 96.398273,85.8108553 C94.7592928,86.7870066 92.6384046,86.25 91.6622533,84.6110197 C90.686102,82.9712171 91.2231086,80.8511513 92.8620888,79.875 C94.5010691,78.8988487 96.6219572,79.4358553 97.5981086,81.0748355" id="Fill-22" fill="#FF6513"></path>
                    <path d="M85.6180099,111.025082 C86.5941612,112.664062 86.0571546,114.784128 84.4181743,115.761102 C82.7791941,116.737253 80.6583059,116.200247 79.6821546,114.561266 C78.7060033,112.921464 79.2430099,110.801398 80.8819901,109.825247 C82.5209704,108.849095 84.6418586,109.386102 85.6180099,111.025082" id="Fill-23" fill="#FF6513"></path>
                    <path d="M165.079276,75.5029605 C164.490461,74.5136513 163.550493,73.8129934 162.435362,73.5300987 C161.316941,73.2463816 160.159046,73.4157895 159.170559,74.0054276 C158.18125,74.5942434 157.480592,75.5342105 157.19852,76.6493421 C156.960033,77.5893092 157.060362,78.5523026 157.443586,79.4256579 L132.66398,96.8384868 C132.13602,96.3376645 131.498684,95.9626645 130.773355,95.7784539 C129.655757,95.4955592 128.497039,95.6641447 127.508553,96.2537829 C126.991283,96.5621711 126.558717,96.9700658 126.217434,97.4453947 L99.68125,85.5029605 C99.9254934,84.4207237 99.7585526,83.3055921 99.1886513,82.3483553 C98.5998355,81.3590461 97.6606908,80.6592105 96.5447368,80.3754934 C95.4263158,80.0925987 94.2684211,80.2611842 93.2799342,80.8508224 C92.290625,81.4404605 91.5899671,82.3796053 91.3078947,83.4955592 C91.025,84.6115132 91.1935855,85.7710526 91.7832237,86.7603618 C92.1294408,87.3409539 92.5949013,87.803125 93.1261513,88.1501645 L84.2733553,110.281743 C83.2470395,110.095066 82.2026316,110.262829 81.2996711,110.80148 C80.3103618,111.390296 79.6097039,112.330263 79.3276316,113.445395 C79.0447368,114.562171 79.2141447,115.720888 79.8029605,116.710197 C80.6088816,118.062171 82.0422697,118.813816 83.5134868,118.813816 C84.2626645,118.813816 85.0225329,118.618092 85.7116776,118.20773 C86.7018092,117.618092 87.4016447,116.678947 87.6845395,115.562993 C87.9666118,114.446217 87.7980263,113.2875 87.2083882,112.299013 C86.86875,111.728289 86.4032895,111.268586 85.8638158,110.914967 L94.7157895,88.7842105 C94.9715461,88.8310855 95.2314145,88.8631579 95.49375,88.8631579 C96.2429276,88.8631579 97.0027961,88.6682566 97.6919408,88.2578947 C98.2092105,87.9486842 98.6425987,87.5407895 98.9830592,87.0662829 L125.520066,99.0078947 C125.275,100.090132 125.441941,101.206086 126.011842,102.163322 C126.817763,103.515296 128.251151,104.266941 129.722368,104.266941 C130.471546,104.266941 131.231414,104.071217 131.920559,103.660855 C132.910691,103.070395 133.610526,102.13125 133.893421,101.016118 C134.131086,100.076151 134.030757,99.1123355 133.647533,98.2398026 L158.41398,80.8368421 C159.222368,81.6024671 160.29227,82.0177632 161.384375,82.0177632 C162.133553,82.0177632 162.893421,81.8220395 163.582566,81.4116776 C164.571875,80.8220395 165.272533,79.8828947 165.554605,78.7669408 C165.8375,77.6509868 165.668092,76.4914474 165.079276,75.5029605" id="Fill-24" fill="#000000" opacity="0.2"></path>
                    <path d="M163.040296,76.6352796 C162.870066,77.307977 162.447368,77.8745888 161.851151,78.229852 C160.936678,78.7734375 159.822368,78.6879112 159.008224,78.1056743 C158.725329,77.9041941 158.477796,77.6443257 158.288651,77.3268914 C158.17023,77.1287007 158.091283,76.917352 158.029605,76.7010691 C157.90625,76.2668586 157.887336,75.807977 158.000822,75.3581414 C158.171875,74.6854441 158.594572,74.1196546 159.190789,73.7643914 C159.597862,73.5217928 160.053454,73.3967928 160.516447,73.3967928 C160.730263,73.3967928 160.945724,73.4239309 161.159539,73.4773849 C161.832237,73.6484375 162.398026,74.0703125 162.752467,74.667352 C163.108553,75.2635691 163.210526,75.9625822 163.040296,76.6352796 M131.378289,98.8836349 C131.208059,99.5563322 130.785362,100.122944 130.189145,100.478207 C128.957237,101.210115 127.36102,100.806332 126.626645,99.5760691 C126.34375,99.1015625 126.228618,98.5612664 126.276316,98.0217928 C126.288651,97.8836349 126.304276,97.7446546 126.339638,97.6073191 C126.450658,97.1681743 126.678454,96.7824836 126.98273,96.4634046 C127.144737,96.2931743 127.321546,96.1369243 127.528783,96.0135691 C127.936678,95.770148 128.39227,95.6459704 128.855263,95.6459704 C129.069079,95.6459704 129.284539,95.6722862 129.497533,95.7257401 C129.817434,95.807977 130.11102,95.9494243 130.371711,96.1369243 C130.658717,96.3425164 130.904605,96.6032072 131.091283,96.9157072 C131.208882,97.113898 131.288651,97.3252467 131.350329,97.5415296 C131.473684,97.9757401 131.492599,98.4346217 131.378289,98.8836349 M97.2129934,83.0662007 C97.2006579,83.2051809 97.1850329,83.3433388 97.1496711,83.4806743 C97.0386513,83.9198191 96.8108553,84.3063322 96.5065789,84.6254112 C96.3445724,84.7956414 96.1677632,84.9518914 95.9605263,85.0752467 C95.5074013,85.3449836 95.0049342,85.457648 94.5148026,85.4354441 C93.9333882,85.4091283 93.3758224,85.1805099 92.9292763,84.7907072 C92.7277961,84.6155428 92.5427632,84.4148849 92.3980263,84.1731086 C92.0419408,83.5760691 91.9399671,82.8770559 92.1110197,82.2043586 C92.28125,81.5316612 92.7039474,80.9658717 93.3001645,80.6106086 C93.7080592,80.3671875 94.1628289,80.2430099 94.6258224,80.2430099 C94.8396382,80.2430099 95.0559211,80.2693257 95.2689145,80.3227796 C95.9416118,80.4946546 96.5074013,80.9165296 96.8626645,81.5127467 C97.1455592,81.9880757 97.2606908,82.526727 97.2129934,83.0662007 M84.8824013,111.463405 C85.2384868,112.059622 85.3404605,112.758635 85.1694079,113.431332 C84.9991776,114.10403 84.5764803,114.670641 83.9802632,115.025905 C82.7491776,115.757812 81.1513158,115.353207 80.4177632,114.122944 C80.0625,113.526727 79.9605263,112.826891 80.1307566,112.154194 C80.3009868,111.481497 80.7236842,110.915707 81.3199013,110.560444 C81.7277961,110.317845 82.1833882,110.192845 82.6463816,110.192845 C82.6850329,110.192845 82.7236842,110.206003 82.7623355,110.207648 C82.9383224,110.215872 83.1143092,110.229852 83.2886513,110.273437 C83.6907895,110.376234 84.0476974,110.577714 84.3519737,110.843339 C84.5550987,111.021793 84.7401316,111.224095 84.8824013,111.463405 M164.223684,73.7915296 C163.634046,72.8022204 162.694901,72.1015625 161.57977,71.8186678 C160.461349,71.5349507 159.303454,71.7043586 158.314967,72.2939967 C157.324836,72.8828125 156.625,73.8227796 156.342105,74.9379112 C156.104441,75.8778783 156.20477,76.8408717 156.587993,77.714227 L131.808388,95.1270559 C131.280428,94.6262336 130.64227,94.2512336 129.917763,94.067023 C128.800164,93.7841283 127.641447,93.9527138 126.652961,94.542352 C126.135691,94.8507401 125.703125,95.2586349 125.361842,95.7339638 L98.8256579,83.7915296 C99.0699013,82.7092928 98.9029605,81.5933388 98.3330592,80.6369243 C97.7442434,79.6476151 96.8042763,78.9477796 95.6891447,78.6640625 C94.5707237,78.3811678 93.4128289,78.5497533 92.4243421,79.1393914 C91.4350329,79.7290296 90.734375,80.6681743 90.4523026,81.7841283 C90.1694079,82.9000822 90.3379934,84.0596217 90.9276316,85.0489309 C91.2730263,85.629523 91.7393092,86.0916941 92.2697368,86.4387336 L83.4169408,108.570312 C82.3914474,108.383635 81.3470395,108.551398 80.4440789,109.090049 C79.4547697,109.678865 78.7541118,110.618832 78.4720395,111.733964 C78.1891447,112.85074 78.3585526,114.009457 78.9473684,114.998766 C79.7532895,116.35074 81.1866776,117.102385 82.6578947,117.102385 C83.4070724,117.102385 84.1669408,116.906661 84.8560855,116.496299 C85.8453947,115.906661 86.5460526,114.967516 86.828125,113.851562 C87.1110197,112.734786 86.9424342,111.576069 86.3527961,110.587582 C86.0131579,110.016859 85.546875,109.557155 85.0074013,109.203536 L93.859375,87.0727796 C94.1159539,87.1196546 94.3758224,87.151727 94.6381579,87.151727 C95.3873355,87.151727 96.1472039,86.9568257 96.8363487,86.5464638 C97.3536184,86.2372533 97.7861842,85.8293586 98.1274671,85.354852 L124.663651,97.2964638 C124.419408,98.3787007 124.586349,99.4946546 125.15625,100.451891 C125.962171,101.803865 127.395559,102.554687 128.866776,102.554687 C129.615954,102.554687 130.375822,102.359786 131.064967,101.949424 C132.054276,101.358964 132.754934,100.419819 133.037007,99.3046875 C133.275493,98.3647204 133.174342,97.4009046 132.791941,96.5283717 L157.557566,79.1245888 C158.366776,79.8910362 159.436678,80.3063322 160.527961,80.3063322 C161.277961,80.3063322 162.037829,80.1106086 162.726974,79.7002467 C163.716283,79.1106086 164.416941,78.1714638 164.699013,77.0555099 C164.981908,75.9395559 164.8125,74.7800164 164.223684,73.7915296" id="Fill-25" fill="#000000"></path>
                    <path d="M210.809046,101.833059 L165.133882,76.9925987 C165.054934,76.9506579 164.971053,76.9235197 164.886349,76.9078947 C164.865789,76.9037829 164.84523,76.9054276 164.823849,76.9029605 C164.746546,76.8939145 164.669243,76.8955592 164.592763,76.9070724 C164.563158,76.9120066 164.535197,76.9169408 164.506414,76.9243421 C164.411842,76.9498355 164.319737,76.9851974 164.2375,77.0435855 C164.235855,77.0444079 164.233388,77.0444079 164.231743,77.0452303 C164.229276,77.046875 164.228454,77.0501645 164.225987,77.0518092 C164.144572,77.1101974 164.080428,77.1842105 164.025329,77.2639803 C164.008882,77.2878289 163.994901,77.3116776 163.981743,77.3371711 C163.943092,77.40625 163.915132,77.4794408 163.897862,77.5567434 C163.892928,77.5764803 163.885526,77.5945724 163.882237,77.6151316 C163.869079,77.7006579 163.865789,77.7878289 163.878947,77.8766447 L171.838651,129.291118 C171.883882,129.583882 172.077138,129.832237 172.350164,129.947368 C172.478454,130.002467 172.614967,130.023849 172.749836,130.013158 C172.901151,130.001645 173.049178,129.949836 173.177467,129.859375 L181.056579,124.307566 C181.133882,124.560033 181.239145,124.806743 181.399507,125.033717 L184.850164,129.930921 C185.389638,130.697368 186.276151,131.077303 187.149507,131.010691 C187.594408,130.976151 188.036842,130.825658 188.426645,130.550987 L206.614967,117.735197 C207.772039,116.919408 208.05,115.314967 207.235033,114.158717 L203.784375,109.261513 C203.624836,109.034539 203.427467,108.851974 203.216118,108.694079 L210.892928,103.285362 C211.134704,103.114309 211.271217,102.831414 211.253947,102.535362 C211.236678,102.240132 211.068914,101.974507 210.809046,101.833059" id="Fill-26" fill="#000000" opacity="0.2"></path>
                    <polygon id="Fill-27" fill="#FFFFFF" points="178.337089 121.561595 198.239227 107.323109 203.39301 114.119161 183.596957 128.442352"></polygon>
                    <polygon id="Fill-28" fill="#FFFFFF" points="169.26176 127.448437 206.97722 100.873602 161.302056 76.0339638"></polygon>
                    <path d="M197.275411,106.663158 C197.106003,106.733882 196.940707,106.82023 196.784457,106.930428 L178.596957,119.744572 C178.440707,119.855592 178.303372,119.982237 178.179194,120.11875 L169.896299,125.955099 L162.706332,79.5126645 L172.329688,93.1705592 C171.915214,93.65 171.627385,94.2264803 171.516365,94.8662829 C171.355181,95.7963816 171.56653,96.7322368 172.109293,97.5036184 C172.851891,98.5578947 174.071464,99.0817434 175.272944,98.9896382 C175.885609,98.9427632 176.494161,98.7363487 177.031168,98.3572368 C177.802549,97.8136513 178.31653,97.0019737 178.476891,96.0726974 C178.638898,95.1425987 178.427549,94.2059211 177.883964,93.4345395 C177.340378,92.6631579 176.529523,92.15 175.600247,91.9888158 C174.957155,91.8769737 174.318174,91.9542763 173.728536,92.1837171 L164.11176,78.5356908 L205.35847,100.967434 L197.275411,106.663158 Z M202.412747,113.432895 C202.544326,113.619572 202.595313,113.846546 202.555839,114.071053 C202.517188,114.296382 202.392188,114.492928 202.206332,114.624507 L184.018832,127.440296 C183.635609,127.7125 183.09778,127.61875 182.826398,127.233059 L179.37574,122.3375 C179.169326,122.043092 179.175905,121.664803 179.360115,121.379441 L198.057484,108.205099 C198.103536,108.194408 198.149589,108.179605 198.196464,108.176316 C198.487582,108.154112 198.782813,108.279934 198.962089,108.535691 L202.412747,113.432895 Z M207.386431,100.121217 L161.711266,75.2815789 C161.632319,75.2388158 161.548438,75.2125 161.462911,75.1960526 C161.442352,75.1919408 161.421793,75.1935855 161.401234,75.1911184 C161.323931,75.1820724 161.246628,75.1837171 161.169326,75.1960526 C161.140543,75.2001645 161.112582,75.2050987 161.083799,75.2125 C160.989227,75.2379934 160.897122,75.2741776 160.814063,75.3317434 C160.812418,75.3325658 160.810773,75.3325658 160.809128,75.3342105 C160.806661,75.3358553 160.805839,75.3383224 160.803372,75.3399671 C160.721957,75.3991776 160.65699,75.4723684 160.601891,75.5529605 C160.585444,75.5768092 160.572286,75.6006579 160.559128,75.6253289 C160.520477,75.6952303 160.492516,75.7684211 160.475247,75.8457237 C160.470313,75.8654605 160.462089,75.8835526 160.459622,75.9032895 C160.445641,75.9888158 160.442352,76.0768092 160.456332,76.1648026 L168.416036,127.579276 C168.460444,127.872039 168.654523,128.120395 168.926727,128.236349 C169.055016,128.290625 169.19153,128.312007 169.32722,128.302138 C169.478536,128.289803 169.626563,128.238816 169.75403,128.148355 L177.633964,122.596546 C177.711266,122.849013 177.81653,123.095724 177.976069,123.322697 L181.427549,128.219079 C181.967023,128.985526 182.853536,129.366283 183.726891,129.298849 C184.171793,129.265132 184.613405,129.114638 185.00403,128.839967 L203.192352,116.024178 C204.348602,115.207566 204.627385,113.603125 203.811595,112.446875 L200.36176,107.549671 C200.20222,107.322697 200.004852,107.140132 199.793503,106.982237 L207.470313,101.57352 C207.712089,101.403289 207.848602,101.119572 207.831332,100.824342 C207.814063,100.529112 207.646299,100.263487 207.386431,100.121217 L207.386431,100.121217 Z" id="Fill-29" fill="#000000"></path>
                    <path d="M184.625164,108.977385 C182.490296,110.449424 180.325822,109.616365 180.234539,109.580181 C179.905592,109.448602 179.743586,109.076069 179.875164,108.746299 C180.005099,108.419819 180.376809,108.25699 180.704934,108.38528 C180.780592,108.414062 182.344737,108.990543 183.896546,107.920641 C185.428618,106.863898 185.464803,105.165707 185.465625,105.094161 C185.469737,104.73972 185.758388,104.455181 186.110362,104.456826 C186.463158,104.45847 186.74852,104.743832 186.749342,105.096628 C186.74852,105.195312 186.725493,107.529194 184.625164,108.977385" id="Fill-30" fill="#000000"></path>
                    <path d="M175.377878,107.93273 C175.780016,108.516612 175.633635,109.315954 175.049753,109.718092 C174.466694,110.12023 173.667352,109.973849 173.264391,109.389967 C172.862253,108.806908 173.008635,108.007566 173.592516,107.604605 C174.176398,107.202467 174.97574,107.348849 175.377878,107.93273" id="Fill-31" fill="#000000"></path>
                    <path d="M189.048109,98.5052632 C189.450247,99.0891447 189.303865,99.8884868 188.719984,100.290625 C188.136924,100.692763 187.337582,100.546382 186.934622,99.9625 C186.532484,99.3794408 186.678865,98.5800987 187.262747,98.1771382 C187.846628,97.775 188.64597,97.9213816 189.048109,98.5052632" id="Fill-32" fill="#000000"></path>
                    <path d="M177.184622,110.377467 C177.345806,110.61102 176.651727,111.370066 175.633635,112.071546 C174.615543,112.773849 173.659951,113.152961 173.498766,112.919408 C173.337582,112.685855 174.031661,111.926809 175.049753,111.225329 C176.067845,110.523026 177.023437,110.143914 177.184622,110.377467" id="Fill-33" fill="#FF966A"></path>
                    <path d="M192.263734,99.9783717 C192.424918,100.211924 191.730839,100.97097 190.712747,101.672451 C189.694655,102.374753 188.739063,102.753865 188.577878,102.520313 C188.416694,102.28676 189.110773,101.527714 190.128865,100.826234 C191.146957,100.123931 192.102549,99.7448191 192.263734,99.9783717" id="Fill-34" fill="#FF966A"></path>
                </g>
            </g>
        </g>
    </g>
</svg>