<?xml version="1.0" encoding="UTF-8" standalone="no"?>
<svg width="254px" height="254px" viewBox="0 0 254 254" version="1.1" xmlns="http://www.w3.org/2000/svg" xmlns:xlink="http://www.w3.org/1999/xlink">
    <!-- Generator: Sketch 39.1 (31720) - http://www.bohemiancoding.com/sketch -->
    <title>Page 1</title>
    <desc>Created with Sketch.</desc>
    <defs></defs>
    <g id="DESIGN" stroke="none" stroke-width="1" fill="none" fill-rule="evenodd">
        <g id="Logging_Roads_1_home_revised" transform="translate(-573.000000, -1171.000000)">
            <g id="Group-3" transform="translate(509.000000, 1173.000000)">
                <g id="Page-1" transform="translate(66.000000, 0.000000)">
                    <path d="M249.588816,124.794408 C249.588816,193.716283 193.716283,249.588816 124.794408,249.588816 C55.8725329,249.588816 0,193.716283 0,124.794408 C0,55.8725329 55.8725329,0 124.794408,0 C193.716283,0 249.588816,55.8725329 249.588816,124.794408 L249.588816,124.794408 Z" id="Fill-1" fill="#E7E4E2"></path>
                    <path d="M249.588816,124.794408 C249.588816,193.716283 193.716283,249.588816 124.794408,249.588816 C55.8725329,249.588816 0,193.716283 0,124.794408 C0,55.8725329 55.8725329,0 124.794408,0 C193.716283,0 249.588816,55.8725329 249.588816,124.794408 L249.588816,124.794408 Z" id="Stroke-3" stroke="#D6D6D6" stroke-width="4"></path>
                    <path d="M203.839227,197.912171 C203.839227,199.2625 168.898438,200.357072 125.796464,200.357072 C82.6944901,200.357072 47.7537007,199.2625 47.7537007,197.912171 C47.7537007,196.561842 82.6944901,195.46727 125.796464,195.46727 C168.898438,195.46727 203.839227,196.561842 203.839227,197.912171" id="Fill-5" fill="#000000" opacity="0.2"></path>
                    <path d="M124.509211,166.20403 C122.397368,166.20403 120.679441,164.486102 120.679441,162.37426 C120.679441,160.26324 122.397368,158.54449 124.509211,158.54449 C126.621053,158.54449 128.33898,160.26324 128.33898,162.37426 C128.33898,164.486102 126.621053,166.20403 124.509211,166.20403" id="Fill-7" fill="#FF9C00"></path>
                    <path d="M124.509211,159.593339 C122.975493,159.593339 121.727961,160.840872 121.727961,162.374589 C121.727961,163.907484 122.975493,165.155839 124.509211,165.155839 C126.042928,165.155839 127.290461,163.907484 127.290461,162.374589 C127.290461,160.840872 126.042928,159.593339 124.509211,159.593339 M124.509211,166.867188 C122.032237,166.867188 120.016612,164.851563 120.016612,162.374589 C120.016612,159.897615 122.032237,157.88199 124.509211,157.88199 C126.986184,157.88199 129.001809,159.897615 129.001809,162.374589 C129.001809,164.851563 126.986184,166.867188 124.509211,166.867188" id="Fill-9" fill="#000000"></path>
                    <polygon id="Fill-11" fill="#FFC22F" points="104.122615 175.078372 104.122615 195.74449 145.343832 195.714885 145.472944 175.545477"></polygon>
                    <polygon id="Fill-13" fill="#000000" opacity="0.2" points="104.122615 189.618668 104.122615 195.745312 145.343832 195.736266 145.472944 181.058635"></polygon>
                    <polygon id="Fill-15" fill="#FFD234" points="24.6535362 149.12648 24.6535362 175.267928 225.447122 175.230099 226.076234 149.717763"></polygon>
                    <polygon id="Fill-17" fill="#000000" opacity="0.2" points="24.6535362 170.599671 24.6535362 174.742763 225.447122 174.737007 226.076234 170.599671"></polygon>
                    <polygon id="Fill-19" fill="#782500" points="23.6768092 149.396382 225.912007 149.396382 225.912007 45.5690789 23.6768092 45.5690789"></polygon>
                    <polygon id="Fill-21" fill="#FFD234" points="24.4077303 35.1205592 23.2925987 45.6748355 225.527796 45.6748355 224.68898 35.1205592"></polygon>
                    <path d="M225.056661,44.7128289 L24.5319901,44.7128289 L24.5319901,38.6495066 C24.5319901,37.2333882 25.6841283,36.0820724 27.0994243,36.0820724 L222.489227,36.0820724 C223.905345,36.0820724 225.056661,37.2333882 225.056661,38.6495066 L225.056661,44.7128289 Z M24.5319901,148.25477 L225.056661,148.25477 L225.056661,46.4241776 L24.5319901,46.4241776 L24.5319901,148.25477 Z M225.056661,171.860855 C225.056661,173.276151 223.905345,174.428289 222.489227,174.428289 L145.477714,174.428289 L104.117516,174.428289 L27.0994243,174.428289 C25.6841283,174.428289 24.5319901,173.276151 24.5319901,171.860855 L24.5319901,149.966118 L225.056661,149.966118 L225.056661,171.860855 Z M104.973602,194.684046 L144.622451,194.684046 L144.622451,176.139638 L104.973602,176.139638 L104.973602,194.684046 Z M222.489227,34.3707237 L27.0994243,34.3707237 C24.7400493,34.3707237 22.8206414,36.2901316 22.8206414,38.6495066 L22.8206414,171.860855 C22.8206414,174.22023 24.7400493,176.139638 27.0994243,176.139638 L103.262253,176.139638 L103.262253,194.684046 L95.5533717,194.684046 C95.0805099,194.684046 94.6981086,195.066447 94.6981086,195.539309 C94.6981086,196.012171 95.0805099,196.395395 95.5533717,196.395395 L154.03528,196.395395 C154.508141,196.395395 154.890543,196.012171 154.890543,195.539309 C154.890543,195.066447 154.508141,194.684046 154.03528,194.684046 L146.333799,194.684046 L146.333799,176.139638 L222.489227,176.139638 C224.848602,176.139638 226.76801,174.22023 226.76801,171.860855 L226.76801,38.6495066 C226.76801,36.2901316 224.848602,34.3707237 222.489227,34.3707237 L222.489227,34.3707237 Z" id="Fill-22" fill="#000000"></path>
                    <path d="M124.295313,166.20403 C122.18347,166.20403 120.465543,164.486102 120.465543,162.37426 C120.465543,160.26324 122.18347,158.54449 124.295313,158.54449 C126.407155,158.54449 128.125082,160.26324 128.125082,162.37426 C128.125082,164.486102 126.407155,166.20403 124.295313,166.20403" id="Fill-23" fill="#FF9C00"></path>
                    <polygon id="Fill-24" fill="#FF5D33" points="40.7911184 45.4259046 38.1726974 45.3856086 38.1315789 49.4193257 37.2253289 55.4094572 38.1315789 60.5435033 40.7911184 64.9645559 47.6365132 74.0928454 49.9185855 80.8543586 51.3116776 91.7647204 54.9103618 98.8247533 58.6184211 103.958799 62.1126645 107.167681 64.4662829 111.138076 65.8569079 116.272122 65.8569079 120.443997 67.5682566 125.257319 69.2796053 128.573109 70.6702303 136.060773 71.4185855 140.767187 71.4185855 144.832155 71.4185855 149.126562 193.787007 149.126562 195.819079 141.302549 198.065789 134.670148 202.129934 129.963734 206.729441 126.32722 209.510691 119.802549 210.04523 116.272122 211.115132 112.302549 217.961349 107.167681 219.886513 103.958799 223.629934 95.6158717 225.912007 91.123273 225.912007 45.5681743"></polygon>
                    <path d="M124.509457,159.593339 C122.97574,159.593339 121.728207,160.840872 121.728207,162.374589 C121.728207,163.907484 122.97574,165.155839 124.509457,165.155839 C126.043174,165.155839 127.290707,163.907484 127.290707,162.374589 C127.290707,160.840872 126.043174,159.593339 124.509457,159.593339 M124.509457,166.867188 C122.032484,166.867188 120.016859,164.851563 120.016859,162.374589 C120.016859,159.897615 122.032484,157.88199 124.509457,157.88199 C126.986431,157.88199 129.002056,159.897615 129.002056,162.374589 C129.002056,164.851563 126.986431,166.867188 124.509457,166.867188" id="Fill-25" fill="#000000"></path>
                    <path d="M72.6614309,148.255099 L193.200082,148.255099 C193.807812,145.428618 195.953372,135.973849 197.942681,133.587336 C198.409786,133.027303 198.825905,132.519079 199.200905,132.058553 C200.61949,130.321711 201.474753,129.274013 202.438569,128.695888 L202.547122,128.630099 C203.643339,127.975493 206.212418,126.440132 206.751069,124.102961 C207.052878,122.795395 207.617845,121.741118 208.116201,120.81102 C208.749424,119.627632 209.297122,118.605428 209.297122,117.235362 C209.297122,114.361184 209.297122,112.284704 212.88676,109.891612 C215.81028,107.942599 218.566859,105.857895 218.937747,103.818421 C219.169655,102.54375 220.575082,99.8726974 222.063569,97.0445724 C223.193503,94.8981908 224.901562,91.653125 224.913898,90.9606908 L224.913898,46.4245066 L39.6984375,46.4245066 C39.3176809,48.1868421 38.3135691,52.8899671 38.1458059,54.2320724 C37.9747533,55.6013158 39.4262336,60.8019737 39.820148,61.9845395 C40.1540296,62.6078947 45.0323191,68.8578947 48.0224507,72.6342105 C48.0709704,72.6958882 48.1112664,72.7633224 48.1416941,72.8365132 L50.2806743,77.9705592 C50.3020559,78.0223684 50.3193257,78.0766447 50.3300164,78.1317434 L53.5158717,94.0585526 C53.9722862,94.9467105 57.1342928,101.070066 57.7124178,102.033882 C57.9402138,102.413816 59.2354441,103.633388 60.2749178,104.612829 C61.9130757,106.153125 63.6063322,107.747697 64.139227,108.681086 C64.5816612,109.454934 67.4574836,115.422039 66.5356086,117.571711 C66.0537007,118.697533 65.9147204,121.169572 67.5109375,123.363651 C69.3119243,125.83898 70.2115954,127.913816 71.0750822,131.585691 C71.6227796,133.911349 71.904852,136.346382 72.154852,138.493586 C72.3004112,139.747697 72.4262336,140.830757 72.5808388,141.684375 C72.9130757,143.507566 72.7650493,146.683553 72.6614309,148.255099 M193.894161,149.966447 L71.7395559,149.966447 C71.5002467,149.966447 71.2708059,149.866118 71.1087993,149.689309 C70.9467928,149.511678 70.8662007,149.275658 70.8875822,149.036349 C70.8916941,148.988651 71.3004112,144.203289 70.898273,141.990296 C70.732977,141.083224 70.6038651,139.974671 70.4541941,138.690954 C70.210773,136.58898 69.9336349,134.207401 69.4089638,131.978783 C68.5939967,128.514145 67.7971217,126.665461 66.1277138,124.37023 C64.2395559,121.774836 64.2000822,118.677796 64.9632401,116.898191 C65.367023,115.955757 63.773273,111.490296 62.6532072,109.530592 C62.2461349,108.818421 60.5035362,107.176974 59.1030428,105.858717 C57.5479441,104.394901 56.5783717,103.468914 56.2444901,102.914638 C55.5964638,101.833224 52.0882401,95.0256579 51.9393914,94.7370066 C51.9023849,94.6654605 51.8768914,94.590625 51.8612664,94.5125 L48.6688322,78.5503289 L46.6071546,73.6046053 C41.1992599,66.7707237 38.3694901,63.04375 38.1967928,62.5256579 C38.1762336,62.4639803 36.1869243,56.1013158 36.4476151,54.0199013 C36.6647204,52.2896382 38.1112664,45.6671053 38.1729441,45.3858553 C38.257648,44.9927632 38.6063322,44.7131579 39.0084704,44.7131579 L225.769161,44.7131579 C226.242845,44.7131579 226.625247,45.0955592 226.625247,45.5684211 L226.625247,90.9615132 C226.625247,91.9993421 225.46653,94.2518092 223.578372,97.8422697 C222.27903,100.310197 220.806168,103.107895 220.621135,104.124342 C220.112089,106.925329 216.85222,109.304441 213.835773,111.315132 C211.00847,113.200822 211.00847,114.549507 211.00847,117.235362 C211.00847,119.035526 210.304523,120.348849 209.624424,121.619408 C209.132648,122.536349 208.668832,123.402303 208.419655,124.487007 C207.715707,127.535526 204.598931,129.398191 203.425411,130.099671 L203.319326,130.162993 C202.612089,130.587336 201.782319,131.602961 200.527385,133.140789 C200.148273,133.605428 199.728865,134.117763 199.257648,134.683553 C197.615378,136.65477 195.433635,145.890789 194.732155,149.283882 C194.649095,149.681908 194.299589,149.966447 193.894161,149.966447" id="Fill-26" fill="#000000"></path>
                    <path d="M196.932319,107.167928 L80.2966283,107.167928 C79.9421875,107.167928 79.6551809,106.880099 79.6551809,106.52648 C79.6551809,106.172039 79.9421875,105.884211 80.2966283,105.884211 L196.932319,105.884211 C197.28676,105.884211 197.573766,106.172039 197.573766,106.52648 C197.573766,106.880099 197.28676,107.167928 196.932319,107.167928" id="Fill-27" fill="#000000"></path>
                    <path d="M196.932319,102.033635 L74.3574836,102.033635 C74.0038651,102.033635 73.7160362,101.745806 73.7160362,101.392188 C73.7160362,101.037747 74.0038651,100.749918 74.3574836,100.749918 L196.932319,100.749918 C197.28676,100.749918 197.573766,101.037747 197.573766,101.392188 C197.573766,101.745806 197.28676,102.033635 196.932319,102.033635" id="Fill-28" fill="#000000"></path>
                    <path d="M196.932319,96.8992599 L120.003043,96.8992599 C119.648602,96.8992599 119.360773,96.6114309 119.360773,96.2578125 C119.360773,95.9033717 119.648602,95.6155428 120.003043,95.6155428 L196.932319,95.6155428 C197.28676,95.6155428 197.573766,95.9033717 197.573766,96.2578125 C197.573766,96.6114309 197.28676,96.8992599 196.932319,96.8992599" id="Fill-29" fill="#000000"></path>
                    <path d="M196.932319,91.7649671 L114.78347,91.7649671 C114.42903,91.7649671 114.141201,91.4771382 114.141201,91.1235197 C114.141201,90.7690789 114.42903,90.48125 114.78347,90.48125 L196.932319,90.48125 C197.28676,90.48125 197.573766,90.7690789 197.573766,91.1235197 C197.573766,91.4771382 197.28676,91.7649671 196.932319,91.7649671" id="Fill-30" fill="#000000"></path>
                    <path d="M196.932319,86.6305921 L96.4808388,86.6305921 C96.1272204,86.6305921 95.8393914,86.3427632 95.8393914,85.9891447 C95.8393914,85.6347039 96.1272204,85.346875 96.4808388,85.346875 L196.932319,85.346875 C197.28676,85.346875 197.573766,85.6347039 197.573766,85.9891447 C197.573766,86.3427632 197.28676,86.6305921 196.932319,86.6305921" id="Fill-31" fill="#000000"></path>
                    <path d="M196.932319,81.4962993 L130.186431,81.4962993 C129.83199,81.4962993 129.544161,81.2084704 129.544161,80.854852 C129.544161,80.5004112 129.83199,80.2125822 130.186431,80.2125822 L196.932319,80.2125822 C197.28676,80.2125822 197.573766,80.5004112 197.573766,80.854852 C197.573766,81.2084704 197.28676,81.4962993 196.932319,81.4962993" id="Fill-32" fill="#000000"></path>
                    <path d="M191.798026,112.30222 C191.443586,112.30222 191.156579,112.014391 191.156579,111.660773 L191.156579,85.988898 C191.156579,85.6344572 191.443586,85.3466283 191.798026,85.3466283 C192.152467,85.3466283 192.439474,85.6344572 192.439474,85.988898 L192.439474,111.660773 C192.439474,112.014391 192.152467,112.30222 191.798026,112.30222" id="Fill-33" fill="#000000"></path>
                    <path d="M186.663734,107.167928 C186.309293,107.167928 186.022286,106.880099 186.022286,106.52648 L186.022286,80.8546053 C186.022286,80.5001645 186.309293,80.2123355 186.663734,80.2123355 C187.018174,80.2123355 187.305181,80.5001645 187.305181,80.8546053 L187.305181,106.52648 C187.305181,106.880099 187.018174,107.167928 186.663734,107.167928" id="Fill-34" fill="#000000"></path>
                    <path d="M181.529359,107.167928 C181.174918,107.167928 180.887911,106.880099 180.887911,106.52648 L180.887911,80.8546053 C180.887911,80.5001645 181.174918,80.2123355 181.529359,80.2123355 C181.883799,80.2123355 182.170806,80.5001645 182.170806,80.8546053 L182.170806,106.52648 C182.170806,106.880099 181.883799,107.167928 181.529359,107.167928" id="Fill-35" fill="#000000"></path>
                    <path d="M176.395066,107.167928 C176.040625,107.167928 175.753618,106.880099 175.753618,106.52648 L175.753618,80.8546053 C175.753618,80.5001645 176.040625,80.2123355 176.395066,80.2123355 C176.749507,80.2123355 177.036513,80.5001645 177.036513,80.8546053 L177.036513,106.52648 C177.036513,106.880099 176.749507,107.167928 176.395066,107.167928" id="Fill-36" fill="#000000"></path>
                    <path d="M171.260691,112.30222 C170.90625,112.30222 170.619243,112.014391 170.619243,111.660773 L170.619243,81.2948191 C170.619243,80.9403783 170.90625,80.6533717 171.260691,80.6533717 C171.615132,80.6533717 171.902138,80.9403783 171.902138,81.2948191 L171.902138,111.660773 C171.902138,112.014391 171.615132,112.30222 171.260691,112.30222" id="Fill-37" fill="#000000"></path>
                    <path d="M166.126398,112.30222 C165.771957,112.30222 165.484951,112.014391 165.484951,111.660773 L165.484951,75.7199836 C165.484951,75.3655428 165.771957,75.0785362 166.126398,75.0785362 C166.480839,75.0785362 166.767845,75.3655428 166.767845,75.7199836 L166.767845,111.660773 C166.767845,112.014391 166.480839,112.30222 166.126398,112.30222" id="Fill-38" fill="#000000"></path>
                    <path d="M160.992105,112.30222 C160.637664,112.30222 160.350658,112.014391 160.350658,111.660773 L160.350658,75.7199836 C160.350658,75.3655428 160.637664,75.0785362 160.992105,75.0785362 C161.346546,75.0785362 161.633553,75.3655428 161.633553,75.7199836 L161.633553,111.660773 C161.633553,112.014391 161.346546,112.30222 160.992105,112.30222" id="Fill-39" fill="#000000"></path>
                    <path d="M155.85773,112.30222 C155.503289,112.30222 155.216283,112.014391 155.216283,111.660773 L155.216283,75.7199836 C155.216283,75.3655428 155.503289,75.0785362 155.85773,75.0785362 C156.212171,75.0785362 156.499178,75.3655428 156.499178,75.7199836 L156.499178,111.660773 C156.499178,112.014391 156.212171,112.30222 155.85773,112.30222" id="Fill-40" fill="#000000"></path>
                    <path d="M150.723438,102.033635 C150.368997,102.033635 150.08199,101.745806 150.08199,101.392188 L150.08199,75.7203125 C150.08199,75.3658717 150.368997,75.0780428 150.723438,75.0780428 C151.077878,75.0780428 151.364885,75.3658717 151.364885,75.7203125 L151.364885,101.392188 C151.364885,101.745806 151.077878,102.033635 150.723438,102.033635" id="Fill-41" fill="#000000"></path>
                    <path d="M145.589063,102.033635 C145.234622,102.033635 144.947615,101.745806 144.947615,101.392188 L144.947615,75.7203125 C144.947615,75.3658717 145.234622,75.0780428 145.589063,75.0780428 C145.943503,75.0780428 146.23051,75.3658717 146.23051,75.7203125 L146.23051,101.392188 C146.23051,101.745806 145.943503,102.033635 145.589063,102.033635" id="Fill-42" fill="#000000"></path>
                    <path d="M140.45477,102.033635 C140.100329,102.033635 139.813322,101.745806 139.813322,101.392188 L139.813322,75.7203125 C139.813322,75.3658717 140.100329,75.0780428 140.45477,75.0780428 C140.809211,75.0780428 141.096217,75.3658717 141.096217,75.7203125 L141.096217,101.392188 C141.096217,101.745806 140.809211,102.033635 140.45477,102.033635" id="Fill-43" fill="#000000"></path>
                    <path d="M135.320477,102.033635 C134.966036,102.033635 134.67903,101.745806 134.67903,101.392188 L134.67903,75.7203125 C134.67903,75.3658717 134.966036,75.0780428 135.320477,75.0780428 C135.674918,75.0780428 135.961924,75.3658717 135.961924,75.7203125 L135.961924,101.392188 C135.961924,101.745806 135.674918,102.033635 135.320477,102.033635" id="Fill-44" fill="#000000"></path>
                    <path d="M130.186102,112.30222 C129.831661,112.30222 129.544655,112.014391 129.544655,111.660773 L129.544655,85.988898 C129.544655,85.6344572 129.831661,85.3466283 130.186102,85.3466283 C130.540543,85.3466283 130.827549,85.6344572 130.827549,85.988898 L130.827549,111.660773 C130.827549,112.014391 130.540543,112.30222 130.186102,112.30222" id="Fill-45" fill="#000000"></path>
                    <path d="M125.051809,112.30222 C124.697368,112.30222 124.410362,112.014391 124.410362,111.660773 L124.410362,85.988898 C124.410362,85.6344572 124.697368,85.3466283 125.051809,85.3466283 C125.40625,85.3466283 125.693257,85.6344572 125.693257,85.988898 L125.693257,111.660773 C125.693257,112.014391 125.40625,112.30222 125.051809,112.30222" id="Fill-46" fill="#000000"></path>
                    <path d="M119.917434,112.30222 C119.562993,112.30222 119.275987,112.014391 119.275987,111.660773 L119.275987,85.988898 C119.275987,85.6344572 119.562993,85.3466283 119.917434,85.3466283 C120.271875,85.3466283 120.558882,85.6344572 120.558882,85.988898 L120.558882,111.660773 C120.558882,112.014391 120.271875,112.30222 119.917434,112.30222" id="Fill-47" fill="#000000"></path>
                    <path d="M114.783141,112.30222 C114.428701,112.30222 114.141694,112.014391 114.141694,111.660773 L114.141694,91.1229441 C114.141694,90.7685033 114.428701,90.4814967 114.783141,90.4814967 C115.137582,90.4814967 115.424589,90.7685033 115.424589,91.1229441 L115.424589,111.660773 C115.424589,112.014391 115.137582,112.30222 114.783141,112.30222" id="Fill-48" fill="#000000"></path>
                    <path d="M109.648849,107.167928 C109.294408,107.167928 109.007401,106.880099 109.007401,106.52648 L109.007401,79.9985197 C109.007401,79.6440789 109.294408,79.3570724 109.648849,79.3570724 C110.003289,79.3570724 110.290296,79.6440789 110.290296,79.9985197 L110.290296,106.52648 C110.290296,106.880099 110.003289,107.167928 109.648849,107.167928" id="Fill-49" fill="#000000"></path>
                    <path d="M103.658799,107.167928 C103.304359,107.167928 103.017352,106.880099 103.017352,106.52648 L103.017352,80.8546053 C103.017352,80.5001645 103.304359,80.2123355 103.658799,80.2123355 C104.01324,80.2123355 104.300247,80.5001645 104.300247,80.8546053 L104.300247,106.52648 C104.300247,106.880099 104.01324,107.167928 103.658799,107.167928" id="Fill-50" fill="#000000"></path>
                    <path d="M98.5244243,107.167928 C98.1699836,107.167928 97.882977,106.880099 97.882977,106.52648 L97.882977,80.8546053 C97.882977,80.5001645 98.1699836,80.2123355 98.5244243,80.2123355 C98.8788651,80.2123355 99.1658717,80.5001645 99.1658717,80.8546053 L99.1658717,106.52648 C99.1658717,106.880099 98.8788651,107.167928 98.5244243,107.167928" id="Fill-51" fill="#000000"></path>
                    <path d="M93.3901316,112.30222 C93.0356908,112.30222 92.7486842,112.014391 92.7486842,111.660773 L92.7486842,96.2578125 C92.7486842,95.9033717 93.0356908,95.6155428 93.3901316,95.6155428 C93.7445724,95.6155428 94.0315789,95.9033717 94.0315789,96.2578125 L94.0315789,111.660773 C94.0315789,112.014391 93.7445724,112.30222 93.3901316,112.30222" id="Fill-52" fill="#000000"></path>
                    <path d="M88.2557566,112.30222 C87.9013158,112.30222 87.6143092,112.014391 87.6143092,111.660773 L87.6143092,96.2578125 C87.6143092,95.9033717 87.9013158,95.6155428 88.2557566,95.6155428 C88.6101974,95.6155428 88.8972039,95.9033717 88.8972039,96.2578125 L88.8972039,111.660773 C88.8972039,112.014391 88.6101974,112.30222 88.2557566,112.30222" id="Fill-53" fill="#000000"></path>
                    <path d="M83.1214638,112.30222 C82.767023,112.30222 82.4800164,112.014391 82.4800164,111.660773 L82.4800164,96.2578125 C82.4800164,95.9033717 82.767023,95.6155428 83.1214638,95.6155428 C83.4759046,95.6155428 83.7629112,95.9033717 83.7629112,96.2578125 L83.7629112,111.660773 C83.7629112,112.014391 83.4759046,112.30222 83.1214638,112.30222" id="Fill-54" fill="#000000"></path>
                </g>
            </g>
        </g>
    </g>
</svg>