<?xml version="1.0" encoding="UTF-8" standalone="no"?>
<svg width="32px" height="30px" viewBox="0 0 32 30" version="1.1" xmlns="http://www.w3.org/2000/svg" xmlns:xlink="http://www.w3.org/1999/xlink">
    <!-- Generator: Sketch 3.8.3 (29802) - http://www.bohemiancoding.com/sketch -->
    <title>Combined Shape</title>
    <desc>Created with Sketch.</desc>
    <defs></defs>
    <g id="DESIGN" stroke="none" stroke-width="1" fill="none" fill-rule="evenodd" opacity="0.3">
        <g id="Logging_Roads_3_Campaigns" transform="translate(-1232.000000, -636.000000)" fill="#151515">
            <g id="SEARCH" transform="translate(112.000000, 621.000000)">
                <path d="M1143.51802,34.8906961 C1143.93523,34.9644098 1144.33473,35.1624397 1144.65738,35.485089 L1150.44142,41.2691338 C1151.27829,42.1060037 1151.28262,43.4585061 1150.43804,44.3030933 C1149.5993,45.141833 1148.24233,45.1447337 1147.40408,44.3064788 L1141.62003,38.522434 C1141.30717,38.2095702 1141.11066,37.8246395 1141.03137,37.4211232 C1138.91618,39.0386742 1136.26907,40 1133.39719,40 C1126.46918,40 1120.84924,34.4056042 1120.84924,27.5 C1120.84924,20.5943958 1126.46918,15 1133.39719,15 C1140.32519,15 1145.94513,20.5943958 1145.94513,27.5 C1145.94513,30.2655699 1145.04377,32.8208407 1143.51802,34.8906961 Z M1133.39719,36 C1128.67425,36 1124.84924,32.1923755 1124.84924,27.5 C1124.84924,22.8076245 1128.67425,19 1133.39719,19 C1138.12012,19 1141.94513,22.8076245 1141.94513,27.5 C1141.94513,32.1923755 1138.12012,36 1133.39719,36 Z" id="Combined-Shape"></path>
            </g>
        </g>
    </g>
</svg>