<?xml version="1.0" encoding="UTF-8" standalone="no"?>
<svg width="18px" height="18px" viewBox="0 0 18 18" version="1.1" xmlns="http://www.w3.org/2000/svg" xmlns:xlink="http://www.w3.org/1999/xlink">
    <!-- Generator: Sketch 39.1 (31720) - http://www.bohemiancoding.com/sketch -->
    <title>open_in_new</title>
    <desc>Created with Sketch.</desc>
    <defs></defs>
    <g id="Page-1" stroke="none" stroke-width="1" fill="none" fill-rule="evenodd">
        <g id="Desktop-Landscape" transform="translate(-375.000000, -275.000000)" fill="#000000">
            <path d="M386.015625,275 L393,275 L393,281.984375 L390.984375,281.984375 L390.984375,278.421875 L381.1875,288.21875 L379.78125,286.8125 L389.578125,277.015625 L386.015625,277.015625 L386.015625,275 Z M390.984375,290.984375 L390.984375,284 L393,284 L393,290.984375 C393,291.515628 392.796877,291.984373 392.390625,292.390625 C391.984373,292.796877 391.515628,293 390.984375,293 L377.015625,293 C376.453122,293 375.976564,292.796877 375.585938,292.390625 C375.195311,291.984373 375,291.515628 375,290.984375 L375,277.015625 C375,276.484372 375.195311,276.015627 375.585938,275.609375 C375.976564,275.203123 376.453122,275 377.015625,275 L384,275 L384,277.015625 L377.015625,277.015625 L377.015625,290.984375 L390.984375,290.984375 Z" id="open_in_new"></path>
        </g>
    </g>
</svg>